<svg width="38" height="33" viewBox="0 0 38 33" fill="none" xmlns="http://www.w3.org/2000/svg">
<path d="M33.6438 32.3562C33.8405 32.5529 34.1595 32.5529 34.3562 32.3562L37.5618 29.1505C37.7585 28.9538 37.7585 28.6349 37.5618 28.4382C37.3651 28.2415 37.0462 28.2415 36.8495 28.4382L34 31.2876L31.1505 28.4382C30.9538 28.2415 30.6349 28.2415 30.4382 28.4382C30.2415 28.6349 30.2415 28.9538 30.4382 29.1505L33.6438 32.3562ZM33.4963 -2.06775e-08L33.4963 32L34.5037 32L34.5037 2.06775e-08L33.4963 -2.06775e-08Z" fill="white"/>
<path d="M16.2387 0C11.4817 0 7.61182 3.813 7.61182 8.5V23.5C7.61182 28.187 11.4817 32 16.2387 32C20.9956 32 24.8655 28.187 24.8655 23.5V8.5C24.8655 3.813 20.9956 0 16.2387 0ZM23.8506 23.5C23.8506 27.6355 20.4359 31 16.2387 31C12.0415 31 8.62674 27.6355 8.62674 23.5V8.5C8.62674 4.3645 12.0415 1 16.2387 1C20.4359 1 23.8506 4.3645 23.8506 8.5V23.5Z" fill="white"/>
<path d="M16.7464 5H15.7314V9H16.7464V5Z" fill="white"/>
</svg>
