<svg width="43" height="96" viewBox="0 0 43 96" fill="none" xmlns="http://www.w3.org/2000/svg">
<mask id="mask0" mask-type="alpha" maskUnits="userSpaceOnUse" x="0" y="0" width="43" height="96">
<path d="M43 59.3468L0 96V0H43V59.3468Z" fill="#C4C4C4"/>
<path d="M43 59.3468L0 96V0H43V59.3468Z" fill="#F8002D"/>
</mask>
<g mask="url(#mask0)">
<g opacity="0.5">
<path d="M82 153C82 153.552 81.5523 154 81 154C80.4477 154 80 153.552 80 153C80 152.448 80.4477 152 81 152C81.5523 152 82 152.448 82 153Z" fill="#C4C4C4"/>
<path d="M82 145C82 145.552 81.5523 146 81 146C80.4477 146 80 145.552 80 145C80 144.448 80.4477 144 81 144C81.5523 144 82 144.448 82 145Z" fill="#C4C4C4"/>
<path d="M82 137C82 137.552 81.5523 138 81 138C80.4477 138 80 137.552 80 137C80 136.448 80.4477 136 81 136C81.5523 136 82 136.448 82 137Z" fill="#C4C4C4"/>
<path d="M82 129C82 129.552 81.5523 130 81 130C80.4477 130 80 129.552 80 129C80 128.448 80.4477 128 81 128C81.5523 128 82 128.448 82 129Z" fill="#C4C4C4"/>
<path d="M82 121C82 121.552 81.5523 122 81 122C80.4477 122 80 121.552 80 121C80 120.448 80.4477 120 81 120C81.5523 120 82 120.448 82 121Z" fill="#C4C4C4"/>
<path d="M82 113C82 113.552 81.5523 114 81 114C80.4477 114 80 113.552 80 113C80 112.448 80.4477 112 81 112C81.5523 112 82 112.448 82 113Z" fill="#C4C4C4"/>
<path d="M82 105C82 105.552 81.5523 106 81 106C80.4477 106 80 105.552 80 105C80 104.448 80.4477 104 81 104C81.5523 104 82 104.448 82 105Z" fill="#C4C4C4"/>
<path d="M82 97C82 97.5523 81.5523 98 81 98C80.4477 98 80 97.5523 80 97C80 96.4477 80.4477 96 81 96C81.5523 96 82 96.4477 82 97Z" fill="#C4C4C4"/>
<path d="M82 89C82 89.5523 81.5523 90 81 90C80.4477 90 80 89.5523 80 89C80 88.4477 80.4477 88 81 88C81.5523 88 82 88.4477 82 89Z" fill="#C4C4C4"/>
<path d="M82 81C82 81.5523 81.5523 82 81 82C80.4477 82 80 81.5523 80 81C80 80.4477 80.4477 80 81 80C81.5523 80 82 80.4477 82 81Z" fill="#C4C4C4"/>
<path d="M90 153C90 153.552 89.5523 154 89 154C88.4477 154 88 153.552 88 153C88 152.448 88.4477 152 89 152C89.5523 152 90 152.448 90 153Z" fill="#C4C4C4"/>
<path d="M90 145C90 145.552 89.5523 146 89 146C88.4477 146 88 145.552 88 145C88 144.448 88.4477 144 89 144C89.5523 144 90 144.448 90 145Z" fill="#C4C4C4"/>
<path d="M90 137C90 137.552 89.5523 138 89 138C88.4477 138 88 137.552 88 137C88 136.448 88.4477 136 89 136C89.5523 136 90 136.448 90 137Z" fill="#C4C4C4"/>
<path d="M90 129C90 129.552 89.5523 130 89 130C88.4477 130 88 129.552 88 129C88 128.448 88.4477 128 89 128C89.5523 128 90 128.448 90 129Z" fill="#C4C4C4"/>
<path d="M90 121C90 121.552 89.5523 122 89 122C88.4477 122 88 121.552 88 121C88 120.448 88.4477 120 89 120C89.5523 120 90 120.448 90 121Z" fill="#C4C4C4"/>
<path d="M90 113C90 113.552 89.5523 114 89 114C88.4477 114 88 113.552 88 113C88 112.448 88.4477 112 89 112C89.5523 112 90 112.448 90 113Z" fill="#C4C4C4"/>
<path d="M90 105C90 105.552 89.5523 106 89 106C88.4477 106 88 105.552 88 105C88 104.448 88.4477 104 89 104C89.5523 104 90 104.448 90 105Z" fill="#C4C4C4"/>
<path d="M90 97C90 97.5523 89.5523 98 89 98C88.4477 98 88 97.5523 88 97C88 96.4477 88.4477 96 89 96C89.5523 96 90 96.4477 90 97Z" fill="#C4C4C4"/>
<path d="M90 89C90 89.5523 89.5523 90 89 90C88.4477 90 88 89.5523 88 89C88 88.4477 88.4477 88 89 88C89.5523 88 90 88.4477 90 89Z" fill="#C4C4C4"/>
<path d="M90 81C90 81.5523 89.5523 82 89 82C88.4477 82 88 81.5523 88 81C88 80.4477 88.4477 80 89 80C89.5523 80 90 80.4477 90 81Z" fill="#C4C4C4"/>
<path d="M66 153C66 153.552 65.5523 154 65 154C64.4477 154 64 153.552 64 153C64 152.448 64.4477 152 65 152C65.5523 152 66 152.448 66 153Z" fill="#C4C4C4"/>
<path d="M66 145C66 145.552 65.5523 146 65 146C64.4477 146 64 145.552 64 145C64 144.448 64.4477 144 65 144C65.5523 144 66 144.448 66 145Z" fill="#C4C4C4"/>
<path d="M66 137C66 137.552 65.5523 138 65 138C64.4477 138 64 137.552 64 137C64 136.448 64.4477 136 65 136C65.5523 136 66 136.448 66 137Z" fill="#C4C4C4"/>
<path d="M66 129C66 129.552 65.5523 130 65 130C64.4477 130 64 129.552 64 129C64 128.448 64.4477 128 65 128C65.5523 128 66 128.448 66 129Z" fill="#C4C4C4"/>
<path d="M66 121C66 121.552 65.5523 122 65 122C64.4477 122 64 121.552 64 121C64 120.448 64.4477 120 65 120C65.5523 120 66 120.448 66 121Z" fill="#C4C4C4"/>
<path d="M66 113C66 113.552 65.5523 114 65 114C64.4477 114 64 113.552 64 113C64 112.448 64.4477 112 65 112C65.5523 112 66 112.448 66 113Z" fill="#C4C4C4"/>
<path d="M66 105C66 105.552 65.5523 106 65 106C64.4477 106 64 105.552 64 105C64 104.448 64.4477 104 65 104C65.5523 104 66 104.448 66 105Z" fill="#C4C4C4"/>
<path d="M66 97C66 97.5523 65.5523 98 65 98C64.4477 98 64 97.5523 64 97C64 96.4477 64.4477 96 65 96C65.5523 96 66 96.4477 66 97Z" fill="#C4C4C4"/>
<path d="M66 89C66 89.5523 65.5523 90 65 90C64.4477 90 64 89.5523 64 89C64 88.4477 64.4477 88 65 88C65.5523 88 66 88.4477 66 89Z" fill="#C4C4C4"/>
<path d="M66 81C66 81.5523 65.5523 82 65 82C64.4477 82 64 81.5523 64 81C64 80.4477 64.4477 80 65 80C65.5523 80 66 80.4477 66 81Z" fill="#C4C4C4"/>
<path d="M74 153C74 153.552 73.5523 154 73 154C72.4477 154 72 153.552 72 153C72 152.448 72.4477 152 73 152C73.5523 152 74 152.448 74 153Z" fill="#C4C4C4"/>
<path d="M74 145C74 145.552 73.5523 146 73 146C72.4477 146 72 145.552 72 145C72 144.448 72.4477 144 73 144C73.5523 144 74 144.448 74 145Z" fill="#C4C4C4"/>
<path d="M74 137C74 137.552 73.5523 138 73 138C72.4477 138 72 137.552 72 137C72 136.448 72.4477 136 73 136C73.5523 136 74 136.448 74 137Z" fill="#C4C4C4"/>
<path d="M74 129C74 129.552 73.5523 130 73 130C72.4477 130 72 129.552 72 129C72 128.448 72.4477 128 73 128C73.5523 128 74 128.448 74 129Z" fill="#C4C4C4"/>
<path d="M74 121C74 121.552 73.5523 122 73 122C72.4477 122 72 121.552 72 121C72 120.448 72.4477 120 73 120C73.5523 120 74 120.448 74 121Z" fill="#C4C4C4"/>
<path d="M74 113C74 113.552 73.5523 114 73 114C72.4477 114 72 113.552 72 113C72 112.448 72.4477 112 73 112C73.5523 112 74 112.448 74 113Z" fill="#C4C4C4"/>
<path d="M74 105C74 105.552 73.5523 106 73 106C72.4477 106 72 105.552 72 105C72 104.448 72.4477 104 73 104C73.5523 104 74 104.448 74 105Z" fill="#C4C4C4"/>
<path d="M74 97C74 97.5523 73.5523 98 73 98C72.4477 98 72 97.5523 72 97C72 96.4477 72.4477 96 73 96C73.5523 96 74 96.4477 74 97Z" fill="#C4C4C4"/>
<path d="M74 89C74 89.5523 73.5523 90 73 90C72.4477 90 72 89.5523 72 89C72 88.4477 72.4477 88 73 88C73.5523 88 74 88.4477 74 89Z" fill="#C4C4C4"/>
<path d="M74 81C74 81.5523 73.5523 82 73 82C72.4477 82 72 81.5523 72 81C72 80.4477 72.4477 80 73 80C73.5523 80 74 80.4477 74 81Z" fill="#C4C4C4"/>
<path d="M50 153C50 153.552 49.5523 154 49 154C48.4477 154 48 153.552 48 153C48 152.448 48.4477 152 49 152C49.5523 152 50 152.448 50 153Z" fill="#C4C4C4"/>
<path d="M50 145C50 145.552 49.5523 146 49 146C48.4477 146 48 145.552 48 145C48 144.448 48.4477 144 49 144C49.5523 144 50 144.448 50 145Z" fill="#C4C4C4"/>
<path d="M50 137C50 137.552 49.5523 138 49 138C48.4477 138 48 137.552 48 137C48 136.448 48.4477 136 49 136C49.5523 136 50 136.448 50 137Z" fill="#C4C4C4"/>
<path d="M50 129C50 129.552 49.5523 130 49 130C48.4477 130 48 129.552 48 129C48 128.448 48.4477 128 49 128C49.5523 128 50 128.448 50 129Z" fill="#C4C4C4"/>
<path d="M50 121C50 121.552 49.5523 122 49 122C48.4477 122 48 121.552 48 121C48 120.448 48.4477 120 49 120C49.5523 120 50 120.448 50 121Z" fill="#C4C4C4"/>
<path d="M50 113C50 113.552 49.5523 114 49 114C48.4477 114 48 113.552 48 113C48 112.448 48.4477 112 49 112C49.5523 112 50 112.448 50 113Z" fill="#C4C4C4"/>
<path d="M50 105C50 105.552 49.5523 106 49 106C48.4477 106 48 105.552 48 105C48 104.448 48.4477 104 49 104C49.5523 104 50 104.448 50 105Z" fill="#C4C4C4"/>
<path d="M50 97C50 97.5523 49.5523 98 49 98C48.4477 98 48 97.5523 48 97C48 96.4477 48.4477 96 49 96C49.5523 96 50 96.4477 50 97Z" fill="#C4C4C4"/>
<path d="M50 89C50 89.5523 49.5523 90 49 90C48.4477 90 48 89.5523 48 89C48 88.4477 48.4477 88 49 88C49.5523 88 50 88.4477 50 89Z" fill="#C4C4C4"/>
<path d="M50 81C50 81.5523 49.5523 82 49 82C48.4477 82 48 81.5523 48 81C48 80.4477 48.4477 80 49 80C49.5523 80 50 80.4477 50 81Z" fill="#C4C4C4"/>
<path d="M58 153C58 153.552 57.5523 154 57 154C56.4477 154 56 153.552 56 153C56 152.448 56.4477 152 57 152C57.5523 152 58 152.448 58 153Z" fill="#C4C4C4"/>
<path d="M58 145C58 145.552 57.5523 146 57 146C56.4477 146 56 145.552 56 145C56 144.448 56.4477 144 57 144C57.5523 144 58 144.448 58 145Z" fill="#C4C4C4"/>
<path d="M58 137C58 137.552 57.5523 138 57 138C56.4477 138 56 137.552 56 137C56 136.448 56.4477 136 57 136C57.5523 136 58 136.448 58 137Z" fill="#C4C4C4"/>
<path d="M58 129C58 129.552 57.5523 130 57 130C56.4477 130 56 129.552 56 129C56 128.448 56.4477 128 57 128C57.5523 128 58 128.448 58 129Z" fill="#C4C4C4"/>
<path d="M58 121C58 121.552 57.5523 122 57 122C56.4477 122 56 121.552 56 121C56 120.448 56.4477 120 57 120C57.5523 120 58 120.448 58 121Z" fill="#C4C4C4"/>
<path d="M58 113C58 113.552 57.5523 114 57 114C56.4477 114 56 113.552 56 113C56 112.448 56.4477 112 57 112C57.5523 112 58 112.448 58 113Z" fill="#C4C4C4"/>
<path d="M58 105C58 105.552 57.5523 106 57 106C56.4477 106 56 105.552 56 105C56 104.448 56.4477 104 57 104C57.5523 104 58 104.448 58 105Z" fill="#C4C4C4"/>
<path d="M58 97C58 97.5523 57.5523 98 57 98C56.4477 98 56 97.5523 56 97C56 96.4477 56.4477 96 57 96C57.5523 96 58 96.4477 58 97Z" fill="#C4C4C4"/>
<path d="M58 89C58 89.5523 57.5523 90 57 90C56.4477 90 56 89.5523 56 89C56 88.4477 56.4477 88 57 88C57.5523 88 58 88.4477 58 89Z" fill="#C4C4C4"/>
<path d="M58 81C58 81.5523 57.5523 82 57 82C56.4477 82 56 81.5523 56 81C56 80.4477 56.4477 80 57 80C57.5523 80 58 80.4477 58 81Z" fill="#C4C4C4"/>
<path d="M34 153C34 153.552 33.5523 154 33 154C32.4477 154 32 153.552 32 153C32 152.448 32.4477 152 33 152C33.5523 152 34 152.448 34 153Z" fill="#C4C4C4"/>
<path d="M34 145C34 145.552 33.5523 146 33 146C32.4477 146 32 145.552 32 145C32 144.448 32.4477 144 33 144C33.5523 144 34 144.448 34 145Z" fill="#C4C4C4"/>
<path d="M34 137C34 137.552 33.5523 138 33 138C32.4477 138 32 137.552 32 137C32 136.448 32.4477 136 33 136C33.5523 136 34 136.448 34 137Z" fill="#C4C4C4"/>
<path d="M34 129C34 129.552 33.5523 130 33 130C32.4477 130 32 129.552 32 129C32 128.448 32.4477 128 33 128C33.5523 128 34 128.448 34 129Z" fill="#C4C4C4"/>
<path d="M34 121C34 121.552 33.5523 122 33 122C32.4477 122 32 121.552 32 121C32 120.448 32.4477 120 33 120C33.5523 120 34 120.448 34 121Z" fill="#C4C4C4"/>
<path d="M34 113C34 113.552 33.5523 114 33 114C32.4477 114 32 113.552 32 113C32 112.448 32.4477 112 33 112C33.5523 112 34 112.448 34 113Z" fill="#C4C4C4"/>
<path d="M34 105C34 105.552 33.5523 106 33 106C32.4477 106 32 105.552 32 105C32 104.448 32.4477 104 33 104C33.5523 104 34 104.448 34 105Z" fill="#C4C4C4"/>
<path d="M34 97C34 97.5523 33.5523 98 33 98C32.4477 98 32 97.5523 32 97C32 96.4477 32.4477 96 33 96C33.5523 96 34 96.4477 34 97Z" fill="#C4C4C4"/>
<path d="M34 89C34 89.5523 33.5523 90 33 90C32.4477 90 32 89.5523 32 89C32 88.4477 32.4477 88 33 88C33.5523 88 34 88.4477 34 89Z" fill="#C4C4C4"/>
<path d="M34 81C34 81.5523 33.5523 82 33 82C32.4477 82 32 81.5523 32 81C32 80.4477 32.4477 80 33 80C33.5523 80 34 80.4477 34 81Z" fill="#C4C4C4"/>
<path d="M42 153C42 153.552 41.5523 154 41 154C40.4477 154 40 153.552 40 153C40 152.448 40.4477 152 41 152C41.5523 152 42 152.448 42 153Z" fill="#C4C4C4"/>
<path d="M42 145C42 145.552 41.5523 146 41 146C40.4477 146 40 145.552 40 145C40 144.448 40.4477 144 41 144C41.5523 144 42 144.448 42 145Z" fill="#C4C4C4"/>
<path d="M42 137C42 137.552 41.5523 138 41 138C40.4477 138 40 137.552 40 137C40 136.448 40.4477 136 41 136C41.5523 136 42 136.448 42 137Z" fill="#C4C4C4"/>
<path d="M42 129C42 129.552 41.5523 130 41 130C40.4477 130 40 129.552 40 129C40 128.448 40.4477 128 41 128C41.5523 128 42 128.448 42 129Z" fill="#C4C4C4"/>
<path d="M42 121C42 121.552 41.5523 122 41 122C40.4477 122 40 121.552 40 121C40 120.448 40.4477 120 41 120C41.5523 120 42 120.448 42 121Z" fill="#C4C4C4"/>
<path d="M42 113C42 113.552 41.5523 114 41 114C40.4477 114 40 113.552 40 113C40 112.448 40.4477 112 41 112C41.5523 112 42 112.448 42 113Z" fill="#C4C4C4"/>
<path d="M42 105C42 105.552 41.5523 106 41 106C40.4477 106 40 105.552 40 105C40 104.448 40.4477 104 41 104C41.5523 104 42 104.448 42 105Z" fill="#C4C4C4"/>
<path d="M42 97C42 97.5523 41.5523 98 41 98C40.4477 98 40 97.5523 40 97C40 96.4477 40.4477 96 41 96C41.5523 96 42 96.4477 42 97Z" fill="#C4C4C4"/>
<path d="M42 89C42 89.5523 41.5523 90 41 90C40.4477 90 40 89.5523 40 89C40 88.4477 40.4477 88 41 88C41.5523 88 42 88.4477 42 89Z" fill="#C4C4C4"/>
<path d="M42 81C42 81.5523 41.5523 82 41 82C40.4477 82 40 81.5523 40 81C40 80.4477 40.4477 80 41 80C41.5523 80 42 80.4477 42 81Z" fill="#C4C4C4"/>
<path d="M18 153C18 153.552 17.5523 154 17 154C16.4477 154 16 153.552 16 153C16 152.448 16.4477 152 17 152C17.5523 152 18 152.448 18 153Z" fill="#C4C4C4"/>
<path d="M18 145C18 145.552 17.5523 146 17 146C16.4477 146 16 145.552 16 145C16 144.448 16.4477 144 17 144C17.5523 144 18 144.448 18 145Z" fill="#C4C4C4"/>
<path d="M18 137C18 137.552 17.5523 138 17 138C16.4477 138 16 137.552 16 137C16 136.448 16.4477 136 17 136C17.5523 136 18 136.448 18 137Z" fill="#C4C4C4"/>
<path d="M18 129C18 129.552 17.5523 130 17 130C16.4477 130 16 129.552 16 129C16 128.448 16.4477 128 17 128C17.5523 128 18 128.448 18 129Z" fill="#C4C4C4"/>
<path d="M18 121C18 121.552 17.5523 122 17 122C16.4477 122 16 121.552 16 121C16 120.448 16.4477 120 17 120C17.5523 120 18 120.448 18 121Z" fill="#C4C4C4"/>
<path d="M18 113C18 113.552 17.5523 114 17 114C16.4477 114 16 113.552 16 113C16 112.448 16.4477 112 17 112C17.5523 112 18 112.448 18 113Z" fill="#C4C4C4"/>
<path d="M18 105C18 105.552 17.5523 106 17 106C16.4477 106 16 105.552 16 105C16 104.448 16.4477 104 17 104C17.5523 104 18 104.448 18 105Z" fill="#C4C4C4"/>
<path d="M18 97C18 97.5523 17.5523 98 17 98C16.4477 98 16 97.5523 16 97C16 96.4477 16.4477 96 17 96C17.5523 96 18 96.4477 18 97Z" fill="#C4C4C4"/>
<path d="M18 89C18 89.5523 17.5523 90 17 90C16.4477 90 16 89.5523 16 89C16 88.4477 16.4477 88 17 88C17.5523 88 18 88.4477 18 89Z" fill="#C4C4C4"/>
<path d="M18 81C18 81.5523 17.5523 82 17 82C16.4477 82 16 81.5523 16 81C16 80.4477 16.4477 80 17 80C17.5523 80 18 80.4477 18 81Z" fill="#C4C4C4"/>
<path d="M26 153C26 153.552 25.5523 154 25 154C24.4477 154 24 153.552 24 153C24 152.448 24.4477 152 25 152C25.5523 152 26 152.448 26 153Z" fill="#C4C4C4"/>
<path d="M26 145C26 145.552 25.5523 146 25 146C24.4477 146 24 145.552 24 145C24 144.448 24.4477 144 25 144C25.5523 144 26 144.448 26 145Z" fill="#C4C4C4"/>
<path d="M26 137C26 137.552 25.5523 138 25 138C24.4477 138 24 137.552 24 137C24 136.448 24.4477 136 25 136C25.5523 136 26 136.448 26 137Z" fill="#C4C4C4"/>
<path d="M26 129C26 129.552 25.5523 130 25 130C24.4477 130 24 129.552 24 129C24 128.448 24.4477 128 25 128C25.5523 128 26 128.448 26 129Z" fill="#C4C4C4"/>
<path d="M26 121C26 121.552 25.5523 122 25 122C24.4477 122 24 121.552 24 121C24 120.448 24.4477 120 25 120C25.5523 120 26 120.448 26 121Z" fill="#C4C4C4"/>
<path d="M26 113C26 113.552 25.5523 114 25 114C24.4477 114 24 113.552 24 113C24 112.448 24.4477 112 25 112C25.5523 112 26 112.448 26 113Z" fill="#C4C4C4"/>
<path d="M26 105C26 105.552 25.5523 106 25 106C24.4477 106 24 105.552 24 105C24 104.448 24.4477 104 25 104C25.5523 104 26 104.448 26 105Z" fill="#C4C4C4"/>
<path d="M26 97C26 97.5523 25.5523 98 25 98C24.4477 98 24 97.5523 24 97C24 96.4477 24.4477 96 25 96C25.5523 96 26 96.4477 26 97Z" fill="#C4C4C4"/>
<path d="M26 89C26 89.5523 25.5523 90 25 90C24.4477 90 24 89.5523 24 89C24 88.4477 24.4477 88 25 88C25.5523 88 26 88.4477 26 89Z" fill="#C4C4C4"/>
<path d="M26 81C26 81.5523 25.5523 82 25 82C24.4477 82 24 81.5523 24 81C24 80.4477 24.4477 80 25 80C25.5523 80 26 80.4477 26 81Z" fill="#C4C4C4"/>
<path d="M2 153C2 153.552 1.55228 154 1 154C0.447715 154 0 153.552 0 153C0 152.448 0.447715 152 1 152C1.55228 152 2 152.448 2 153Z" fill="#C4C4C4"/>
<path d="M2 145C2 145.552 1.55228 146 1 146C0.447715 146 0 145.552 0 145C0 144.448 0.447715 144 1 144C1.55228 144 2 144.448 2 145Z" fill="#C4C4C4"/>
<path d="M2 137C2 137.552 1.55228 138 1 138C0.447715 138 0 137.552 0 137C0 136.448 0.447715 136 1 136C1.55228 136 2 136.448 2 137Z" fill="#C4C4C4"/>
<path d="M2 129C2 129.552 1.55228 130 1 130C0.447715 130 0 129.552 0 129C0 128.448 0.447715 128 1 128C1.55228 128 2 128.448 2 129Z" fill="#C4C4C4"/>
<path d="M2 121C2 121.552 1.55228 122 1 122C0.447715 122 0 121.552 0 121C0 120.448 0.447715 120 1 120C1.55228 120 2 120.448 2 121Z" fill="#C4C4C4"/>
<path d="M2 113C2 113.552 1.55228 114 1 114C0.447715 114 0 113.552 0 113C0 112.448 0.447715 112 1 112C1.55228 112 2 112.448 2 113Z" fill="#C4C4C4"/>
<path d="M2 105C2 105.552 1.55228 106 1 106C0.447715 106 0 105.552 0 105C0 104.448 0.447715 104 1 104C1.55228 104 2 104.448 2 105Z" fill="#C4C4C4"/>
<path d="M2 97C2 97.5523 1.55228 98 1 98C0.447715 98 0 97.5523 0 97C0 96.4477 0.447715 96 1 96C1.55228 96 2 96.4477 2 97Z" fill="#C4C4C4"/>
<path d="M2 89C2 89.5523 1.55228 90 1 90C0.447715 90 0 89.5523 0 89C0 88.4477 0.447715 88 1 88C1.55228 88 2 88.4477 2 89Z" fill="#C4C4C4"/>
<path d="M2 81C2 81.5523 1.55228 82 1 82C0.447715 82 0 81.5523 0 81C0 80.4477 0.447715 80 1 80C1.55228 80 2 80.4477 2 81Z" fill="#C4C4C4"/>
<path d="M10 153C10 153.552 9.55229 154 9 154C8.44771 154 8 153.552 8 153C8 152.448 8.44771 152 9 152C9.55229 152 10 152.448 10 153Z" fill="#C4C4C4"/>
<path d="M10 145C10 145.552 9.55229 146 9 146C8.44771 146 8 145.552 8 145C8 144.448 8.44771 144 9 144C9.55229 144 10 144.448 10 145Z" fill="#C4C4C4"/>
<path d="M10 137C10 137.552 9.55229 138 9 138C8.44771 138 8 137.552 8 137C8 136.448 8.44771 136 9 136C9.55229 136 10 136.448 10 137Z" fill="#C4C4C4"/>
<path d="M10 129C10 129.552 9.55229 130 9 130C8.44771 130 8 129.552 8 129C8 128.448 8.44771 128 9 128C9.55229 128 10 128.448 10 129Z" fill="#C4C4C4"/>
<path d="M10 121C10 121.552 9.55229 122 9 122C8.44771 122 8 121.552 8 121C8 120.448 8.44771 120 9 120C9.55229 120 10 120.448 10 121Z" fill="#C4C4C4"/>
<path d="M10 113C10 113.552 9.55229 114 9 114C8.44771 114 8 113.552 8 113C8 112.448 8.44771 112 9 112C9.55229 112 10 112.448 10 113Z" fill="#C4C4C4"/>
<path d="M10 105C10 105.552 9.55229 106 9 106C8.44771 106 8 105.552 8 105C8 104.448 8.44771 104 9 104C9.55229 104 10 104.448 10 105Z" fill="#C4C4C4"/>
<path d="M10 97C10 97.5523 9.55229 98 9 98C8.44771 98 8 97.5523 8 97C8 96.4477 8.44771 96 9 96C9.55229 96 10 96.4477 10 97Z" fill="#C4C4C4"/>
<path d="M10 89C10 89.5523 9.55229 90 9 90C8.44771 90 8 89.5523 8 89C8 88.4477 8.44771 88 9 88C9.55229 88 10 88.4477 10 89Z" fill="#C4C4C4"/>
<path d="M10 81C10 81.5523 9.55229 82 9 82C8.44771 82 8 81.5523 8 81C8 80.4477 8.44771 80 9 80C9.55229 80 10 80.4477 10 81Z" fill="#C4C4C4"/>
<path d="M82 73C82 73.5523 81.5523 74 81 74C80.4477 74 80 73.5523 80 73C80 72.4477 80.4477 72 81 72C81.5523 72 82 72.4477 82 73Z" fill="#C4C4C4"/>
<path d="M82 65C82 65.5523 81.5523 66 81 66C80.4477 66 80 65.5523 80 65C80 64.4477 80.4477 64 81 64C81.5523 64 82 64.4477 82 65Z" fill="#C4C4C4"/>
<path d="M82 57C82 57.5523 81.5523 58 81 58C80.4477 58 80 57.5523 80 57C80 56.4477 80.4477 56 81 56C81.5523 56 82 56.4477 82 57Z" fill="#C4C4C4"/>
<path d="M82 49C82 49.5523 81.5523 50 81 50C80.4477 50 80 49.5523 80 49C80 48.4477 80.4477 48 81 48C81.5523 48 82 48.4477 82 49Z" fill="#C4C4C4"/>
<path d="M82 41C82 41.5523 81.5523 42 81 42C80.4477 42 80 41.5523 80 41C80 40.4477 80.4477 40 81 40C81.5523 40 82 40.4477 82 41Z" fill="#C4C4C4"/>
<path d="M82 33C82 33.5523 81.5523 34 81 34C80.4477 34 80 33.5523 80 33C80 32.4477 80.4477 32 81 32C81.5523 32 82 32.4477 82 33Z" fill="#C4C4C4"/>
<path d="M82 25C82 25.5523 81.5523 26 81 26C80.4477 26 80 25.5523 80 25C80 24.4477 80.4477 24 81 24C81.5523 24 82 24.4477 82 25Z" fill="#C4C4C4"/>
<path d="M82 17C82 17.5523 81.5523 18 81 18C80.4477 18 80 17.5523 80 17C80 16.4477 80.4477 16 81 16C81.5523 16 82 16.4477 82 17Z" fill="#C4C4C4"/>
<path d="M82 9C82 9.55229 81.5523 10 81 10C80.4477 10 80 9.55229 80 9C80 8.44771 80.4477 8 81 8C81.5523 8 82 8.44771 82 9Z" fill="#C4C4C4"/>
<path d="M82 1C82 1.55228 81.5523 2 81 2C80.4477 2 80 1.55228 80 1C80 0.447715 80.4477 0 81 0C81.5523 0 82 0.447715 82 1Z" fill="#C4C4C4"/>
<path d="M90 73C90 73.5523 89.5523 74 89 74C88.4477 74 88 73.5523 88 73C88 72.4477 88.4477 72 89 72C89.5523 72 90 72.4477 90 73Z" fill="#C4C4C4"/>
<path d="M90 65C90 65.5523 89.5523 66 89 66C88.4477 66 88 65.5523 88 65C88 64.4477 88.4477 64 89 64C89.5523 64 90 64.4477 90 65Z" fill="#C4C4C4"/>
<path d="M90 57C90 57.5523 89.5523 58 89 58C88.4477 58 88 57.5523 88 57C88 56.4477 88.4477 56 89 56C89.5523 56 90 56.4477 90 57Z" fill="#C4C4C4"/>
<path d="M90 49C90 49.5523 89.5523 50 89 50C88.4477 50 88 49.5523 88 49C88 48.4477 88.4477 48 89 48C89.5523 48 90 48.4477 90 49Z" fill="#C4C4C4"/>
<path d="M90 41C90 41.5523 89.5523 42 89 42C88.4477 42 88 41.5523 88 41C88 40.4477 88.4477 40 89 40C89.5523 40 90 40.4477 90 41Z" fill="#C4C4C4"/>
<path d="M90 33C90 33.5523 89.5523 34 89 34C88.4477 34 88 33.5523 88 33C88 32.4477 88.4477 32 89 32C89.5523 32 90 32.4477 90 33Z" fill="#C4C4C4"/>
<path d="M90 25C90 25.5523 89.5523 26 89 26C88.4477 26 88 25.5523 88 25C88 24.4477 88.4477 24 89 24C89.5523 24 90 24.4477 90 25Z" fill="#C4C4C4"/>
<path d="M90 17C90 17.5523 89.5523 18 89 18C88.4477 18 88 17.5523 88 17C88 16.4477 88.4477 16 89 16C89.5523 16 90 16.4477 90 17Z" fill="#C4C4C4"/>
<path d="M90 9C90 9.55229 89.5523 10 89 10C88.4477 10 88 9.55229 88 9C88 8.44771 88.4477 8 89 8C89.5523 8 90 8.44771 90 9Z" fill="#C4C4C4"/>
<path d="M90 1C90 1.55228 89.5523 2 89 2C88.4477 2 88 1.55228 88 1C88 0.447715 88.4477 0 89 0C89.5523 0 90 0.447715 90 1Z" fill="#C4C4C4"/>
<path d="M66 73C66 73.5523 65.5523 74 65 74C64.4477 74 64 73.5523 64 73C64 72.4477 64.4477 72 65 72C65.5523 72 66 72.4477 66 73Z" fill="#C4C4C4"/>
<path d="M66 65C66 65.5523 65.5523 66 65 66C64.4477 66 64 65.5523 64 65C64 64.4477 64.4477 64 65 64C65.5523 64 66 64.4477 66 65Z" fill="#C4C4C4"/>
<path d="M66 57C66 57.5523 65.5523 58 65 58C64.4477 58 64 57.5523 64 57C64 56.4477 64.4477 56 65 56C65.5523 56 66 56.4477 66 57Z" fill="#C4C4C4"/>
<path d="M66 49C66 49.5523 65.5523 50 65 50C64.4477 50 64 49.5523 64 49C64 48.4477 64.4477 48 65 48C65.5523 48 66 48.4477 66 49Z" fill="#C4C4C4"/>
<path d="M66 41C66 41.5523 65.5523 42 65 42C64.4477 42 64 41.5523 64 41C64 40.4477 64.4477 40 65 40C65.5523 40 66 40.4477 66 41Z" fill="#C4C4C4"/>
<path d="M66 33C66 33.5523 65.5523 34 65 34C64.4477 34 64 33.5523 64 33C64 32.4477 64.4477 32 65 32C65.5523 32 66 32.4477 66 33Z" fill="#C4C4C4"/>
<path d="M66 25C66 25.5523 65.5523 26 65 26C64.4477 26 64 25.5523 64 25C64 24.4477 64.4477 24 65 24C65.5523 24 66 24.4477 66 25Z" fill="#C4C4C4"/>
<path d="M66 17C66 17.5523 65.5523 18 65 18C64.4477 18 64 17.5523 64 17C64 16.4477 64.4477 16 65 16C65.5523 16 66 16.4477 66 17Z" fill="#C4C4C4"/>
<path d="M66 9C66 9.55229 65.5523 10 65 10C64.4477 10 64 9.55229 64 9C64 8.44771 64.4477 8 65 8C65.5523 8 66 8.44771 66 9Z" fill="#C4C4C4"/>
<path d="M66 1C66 1.55228 65.5523 2 65 2C64.4477 2 64 1.55228 64 1C64 0.447715 64.4477 0 65 0C65.5523 0 66 0.447715 66 1Z" fill="#C4C4C4"/>
<path d="M74 73C74 73.5523 73.5523 74 73 74C72.4477 74 72 73.5523 72 73C72 72.4477 72.4477 72 73 72C73.5523 72 74 72.4477 74 73Z" fill="#C4C4C4"/>
<path d="M74 65C74 65.5523 73.5523 66 73 66C72.4477 66 72 65.5523 72 65C72 64.4477 72.4477 64 73 64C73.5523 64 74 64.4477 74 65Z" fill="#C4C4C4"/>
<path d="M74 57C74 57.5523 73.5523 58 73 58C72.4477 58 72 57.5523 72 57C72 56.4477 72.4477 56 73 56C73.5523 56 74 56.4477 74 57Z" fill="#C4C4C4"/>
<path d="M74 49C74 49.5523 73.5523 50 73 50C72.4477 50 72 49.5523 72 49C72 48.4477 72.4477 48 73 48C73.5523 48 74 48.4477 74 49Z" fill="#C4C4C4"/>
<path d="M74 41C74 41.5523 73.5523 42 73 42C72.4477 42 72 41.5523 72 41C72 40.4477 72.4477 40 73 40C73.5523 40 74 40.4477 74 41Z" fill="#C4C4C4"/>
<path d="M74 33C74 33.5523 73.5523 34 73 34C72.4477 34 72 33.5523 72 33C72 32.4477 72.4477 32 73 32C73.5523 32 74 32.4477 74 33Z" fill="#C4C4C4"/>
<path d="M74 25C74 25.5523 73.5523 26 73 26C72.4477 26 72 25.5523 72 25C72 24.4477 72.4477 24 73 24C73.5523 24 74 24.4477 74 25Z" fill="#C4C4C4"/>
<path d="M74 17C74 17.5523 73.5523 18 73 18C72.4477 18 72 17.5523 72 17C72 16.4477 72.4477 16 73 16C73.5523 16 74 16.4477 74 17Z" fill="#C4C4C4"/>
<path d="M74 9C74 9.55229 73.5523 10 73 10C72.4477 10 72 9.55229 72 9C72 8.44771 72.4477 8 73 8C73.5523 8 74 8.44771 74 9Z" fill="#C4C4C4"/>
<path d="M74 1C74 1.55228 73.5523 2 73 2C72.4477 2 72 1.55228 72 1C72 0.447715 72.4477 0 73 0C73.5523 0 74 0.447715 74 1Z" fill="#C4C4C4"/>
<path d="M50 73C50 73.5523 49.5523 74 49 74C48.4477 74 48 73.5523 48 73C48 72.4477 48.4477 72 49 72C49.5523 72 50 72.4477 50 73Z" fill="#C4C4C4"/>
<path d="M50 65C50 65.5523 49.5523 66 49 66C48.4477 66 48 65.5523 48 65C48 64.4477 48.4477 64 49 64C49.5523 64 50 64.4477 50 65Z" fill="#C4C4C4"/>
<path d="M50 57C50 57.5523 49.5523 58 49 58C48.4477 58 48 57.5523 48 57C48 56.4477 48.4477 56 49 56C49.5523 56 50 56.4477 50 57Z" fill="#C4C4C4"/>
<path d="M50 49C50 49.5523 49.5523 50 49 50C48.4477 50 48 49.5523 48 49C48 48.4477 48.4477 48 49 48C49.5523 48 50 48.4477 50 49Z" fill="#C4C4C4"/>
<path d="M50 41C50 41.5523 49.5523 42 49 42C48.4477 42 48 41.5523 48 41C48 40.4477 48.4477 40 49 40C49.5523 40 50 40.4477 50 41Z" fill="#C4C4C4"/>
<path d="M50 33C50 33.5523 49.5523 34 49 34C48.4477 34 48 33.5523 48 33C48 32.4477 48.4477 32 49 32C49.5523 32 50 32.4477 50 33Z" fill="#C4C4C4"/>
<path d="M50 25C50 25.5523 49.5523 26 49 26C48.4477 26 48 25.5523 48 25C48 24.4477 48.4477 24 49 24C49.5523 24 50 24.4477 50 25Z" fill="#C4C4C4"/>
<path d="M50 17C50 17.5523 49.5523 18 49 18C48.4477 18 48 17.5523 48 17C48 16.4477 48.4477 16 49 16C49.5523 16 50 16.4477 50 17Z" fill="#C4C4C4"/>
<path d="M50 9C50 9.55229 49.5523 10 49 10C48.4477 10 48 9.55229 48 9C48 8.44771 48.4477 8 49 8C49.5523 8 50 8.44771 50 9Z" fill="#C4C4C4"/>
<path d="M50 1C50 1.55228 49.5523 2 49 2C48.4477 2 48 1.55228 48 1C48 0.447715 48.4477 0 49 0C49.5523 0 50 0.447715 50 1Z" fill="#C4C4C4"/>
<path d="M58 73C58 73.5523 57.5523 74 57 74C56.4477 74 56 73.5523 56 73C56 72.4477 56.4477 72 57 72C57.5523 72 58 72.4477 58 73Z" fill="#C4C4C4"/>
<path d="M58 65C58 65.5523 57.5523 66 57 66C56.4477 66 56 65.5523 56 65C56 64.4477 56.4477 64 57 64C57.5523 64 58 64.4477 58 65Z" fill="#C4C4C4"/>
<path d="M58 57C58 57.5523 57.5523 58 57 58C56.4477 58 56 57.5523 56 57C56 56.4477 56.4477 56 57 56C57.5523 56 58 56.4477 58 57Z" fill="#C4C4C4"/>
<path d="M58 49C58 49.5523 57.5523 50 57 50C56.4477 50 56 49.5523 56 49C56 48.4477 56.4477 48 57 48C57.5523 48 58 48.4477 58 49Z" fill="#C4C4C4"/>
<path d="M58 41C58 41.5523 57.5523 42 57 42C56.4477 42 56 41.5523 56 41C56 40.4477 56.4477 40 57 40C57.5523 40 58 40.4477 58 41Z" fill="#C4C4C4"/>
<path d="M58 33C58 33.5523 57.5523 34 57 34C56.4477 34 56 33.5523 56 33C56 32.4477 56.4477 32 57 32C57.5523 32 58 32.4477 58 33Z" fill="#C4C4C4"/>
<path d="M58 25C58 25.5523 57.5523 26 57 26C56.4477 26 56 25.5523 56 25C56 24.4477 56.4477 24 57 24C57.5523 24 58 24.4477 58 25Z" fill="#C4C4C4"/>
<path d="M58 17C58 17.5523 57.5523 18 57 18C56.4477 18 56 17.5523 56 17C56 16.4477 56.4477 16 57 16C57.5523 16 58 16.4477 58 17Z" fill="#C4C4C4"/>
<path d="M58 9C58 9.55229 57.5523 10 57 10C56.4477 10 56 9.55229 56 9C56 8.44771 56.4477 8 57 8C57.5523 8 58 8.44771 58 9Z" fill="#C4C4C4"/>
<path d="M58 1C58 1.55228 57.5523 2 57 2C56.4477 2 56 1.55228 56 1C56 0.447715 56.4477 0 57 0C57.5523 0 58 0.447715 58 1Z" fill="#C4C4C4"/>
<path d="M34 73C34 73.5523 33.5523 74 33 74C32.4477 74 32 73.5523 32 73C32 72.4477 32.4477 72 33 72C33.5523 72 34 72.4477 34 73Z" fill="#C4C4C4"/>
<path d="M34 65C34 65.5523 33.5523 66 33 66C32.4477 66 32 65.5523 32 65C32 64.4477 32.4477 64 33 64C33.5523 64 34 64.4477 34 65Z" fill="#C4C4C4"/>
<path d="M34 57C34 57.5523 33.5523 58 33 58C32.4477 58 32 57.5523 32 57C32 56.4477 32.4477 56 33 56C33.5523 56 34 56.4477 34 57Z" fill="#C4C4C4"/>
<path d="M34 49C34 49.5523 33.5523 50 33 50C32.4477 50 32 49.5523 32 49C32 48.4477 32.4477 48 33 48C33.5523 48 34 48.4477 34 49Z" fill="#C4C4C4"/>
<path d="M34 41C34 41.5523 33.5523 42 33 42C32.4477 42 32 41.5523 32 41C32 40.4477 32.4477 40 33 40C33.5523 40 34 40.4477 34 41Z" fill="#C4C4C4"/>
<path d="M34 33C34 33.5523 33.5523 34 33 34C32.4477 34 32 33.5523 32 33C32 32.4477 32.4477 32 33 32C33.5523 32 34 32.4477 34 33Z" fill="#C4C4C4"/>
<path d="M34 25C34 25.5523 33.5523 26 33 26C32.4477 26 32 25.5523 32 25C32 24.4477 32.4477 24 33 24C33.5523 24 34 24.4477 34 25Z" fill="#C4C4C4"/>
<path d="M34 17C34 17.5523 33.5523 18 33 18C32.4477 18 32 17.5523 32 17C32 16.4477 32.4477 16 33 16C33.5523 16 34 16.4477 34 17Z" fill="#C4C4C4"/>
<path d="M34 9C34 9.55229 33.5523 10 33 10C32.4477 10 32 9.55229 32 9C32 8.44771 32.4477 8 33 8C33.5523 8 34 8.44771 34 9Z" fill="#C4C4C4"/>
<path d="M34 1C34 1.55228 33.5523 2 33 2C32.4477 2 32 1.55228 32 1C32 0.447715 32.4477 0 33 0C33.5523 0 34 0.447715 34 1Z" fill="#C4C4C4"/>
<path d="M42 73C42 73.5523 41.5523 74 41 74C40.4477 74 40 73.5523 40 73C40 72.4477 40.4477 72 41 72C41.5523 72 42 72.4477 42 73Z" fill="#C4C4C4"/>
<path d="M42 65C42 65.5523 41.5523 66 41 66C40.4477 66 40 65.5523 40 65C40 64.4477 40.4477 64 41 64C41.5523 64 42 64.4477 42 65Z" fill="#C4C4C4"/>
<path d="M42 57C42 57.5523 41.5523 58 41 58C40.4477 58 40 57.5523 40 57C40 56.4477 40.4477 56 41 56C41.5523 56 42 56.4477 42 57Z" fill="#C4C4C4"/>
<path d="M42 49C42 49.5523 41.5523 50 41 50C40.4477 50 40 49.5523 40 49C40 48.4477 40.4477 48 41 48C41.5523 48 42 48.4477 42 49Z" fill="#C4C4C4"/>
<path d="M42 41C42 41.5523 41.5523 42 41 42C40.4477 42 40 41.5523 40 41C40 40.4477 40.4477 40 41 40C41.5523 40 42 40.4477 42 41Z" fill="#C4C4C4"/>
<path d="M42 33C42 33.5523 41.5523 34 41 34C40.4477 34 40 33.5523 40 33C40 32.4477 40.4477 32 41 32C41.5523 32 42 32.4477 42 33Z" fill="#C4C4C4"/>
<path d="M42 25C42 25.5523 41.5523 26 41 26C40.4477 26 40 25.5523 40 25C40 24.4477 40.4477 24 41 24C41.5523 24 42 24.4477 42 25Z" fill="#C4C4C4"/>
<path d="M42 17C42 17.5523 41.5523 18 41 18C40.4477 18 40 17.5523 40 17C40 16.4477 40.4477 16 41 16C41.5523 16 42 16.4477 42 17Z" fill="#C4C4C4"/>
<path d="M42 9C42 9.55229 41.5523 10 41 10C40.4477 10 40 9.55229 40 9C40 8.44771 40.4477 8 41 8C41.5523 8 42 8.44771 42 9Z" fill="#C4C4C4"/>
<path d="M42 1C42 1.55228 41.5523 2 41 2C40.4477 2 40 1.55228 40 1C40 0.447715 40.4477 0 41 0C41.5523 0 42 0.447715 42 1Z" fill="#C4C4C4"/>
<path d="M18 73C18 73.5523 17.5523 74 17 74C16.4477 74 16 73.5523 16 73C16 72.4477 16.4477 72 17 72C17.5523 72 18 72.4477 18 73Z" fill="#C4C4C4"/>
<path d="M18 65C18 65.5523 17.5523 66 17 66C16.4477 66 16 65.5523 16 65C16 64.4477 16.4477 64 17 64C17.5523 64 18 64.4477 18 65Z" fill="#C4C4C4"/>
<path d="M18 57C18 57.5523 17.5523 58 17 58C16.4477 58 16 57.5523 16 57C16 56.4477 16.4477 56 17 56C17.5523 56 18 56.4477 18 57Z" fill="#C4C4C4"/>
<path d="M18 49C18 49.5523 17.5523 50 17 50C16.4477 50 16 49.5523 16 49C16 48.4477 16.4477 48 17 48C17.5523 48 18 48.4477 18 49Z" fill="#C4C4C4"/>
<path d="M18 41C18 41.5523 17.5523 42 17 42C16.4477 42 16 41.5523 16 41C16 40.4477 16.4477 40 17 40C17.5523 40 18 40.4477 18 41Z" fill="#C4C4C4"/>
<path d="M18 33C18 33.5523 17.5523 34 17 34C16.4477 34 16 33.5523 16 33C16 32.4477 16.4477 32 17 32C17.5523 32 18 32.4477 18 33Z" fill="#C4C4C4"/>
<path d="M18 25C18 25.5523 17.5523 26 17 26C16.4477 26 16 25.5523 16 25C16 24.4477 16.4477 24 17 24C17.5523 24 18 24.4477 18 25Z" fill="#C4C4C4"/>
<path d="M18 17C18 17.5523 17.5523 18 17 18C16.4477 18 16 17.5523 16 17C16 16.4477 16.4477 16 17 16C17.5523 16 18 16.4477 18 17Z" fill="#C4C4C4"/>
<path d="M18 9C18 9.55229 17.5523 10 17 10C16.4477 10 16 9.55229 16 9C16 8.44771 16.4477 8 17 8C17.5523 8 18 8.44771 18 9Z" fill="#C4C4C4"/>
<path d="M18 1C18 1.55228 17.5523 2 17 2C16.4477 2 16 1.55228 16 1C16 0.447715 16.4477 0 17 0C17.5523 0 18 0.447715 18 1Z" fill="#C4C4C4"/>
<path d="M26 73C26 73.5523 25.5523 74 25 74C24.4477 74 24 73.5523 24 73C24 72.4477 24.4477 72 25 72C25.5523 72 26 72.4477 26 73Z" fill="#C4C4C4"/>
<path d="M26 65C26 65.5523 25.5523 66 25 66C24.4477 66 24 65.5523 24 65C24 64.4477 24.4477 64 25 64C25.5523 64 26 64.4477 26 65Z" fill="#C4C4C4"/>
<path d="M26 57C26 57.5523 25.5523 58 25 58C24.4477 58 24 57.5523 24 57C24 56.4477 24.4477 56 25 56C25.5523 56 26 56.4477 26 57Z" fill="#C4C4C4"/>
<path d="M26 49C26 49.5523 25.5523 50 25 50C24.4477 50 24 49.5523 24 49C24 48.4477 24.4477 48 25 48C25.5523 48 26 48.4477 26 49Z" fill="#C4C4C4"/>
<path d="M26 41C26 41.5523 25.5523 42 25 42C24.4477 42 24 41.5523 24 41C24 40.4477 24.4477 40 25 40C25.5523 40 26 40.4477 26 41Z" fill="#C4C4C4"/>
<path d="M26 33C26 33.5523 25.5523 34 25 34C24.4477 34 24 33.5523 24 33C24 32.4477 24.4477 32 25 32C25.5523 32 26 32.4477 26 33Z" fill="#C4C4C4"/>
<path d="M26 25C26 25.5523 25.5523 26 25 26C24.4477 26 24 25.5523 24 25C24 24.4477 24.4477 24 25 24C25.5523 24 26 24.4477 26 25Z" fill="#C4C4C4"/>
<path d="M26 17C26 17.5523 25.5523 18 25 18C24.4477 18 24 17.5523 24 17C24 16.4477 24.4477 16 25 16C25.5523 16 26 16.4477 26 17Z" fill="#C4C4C4"/>
<path d="M26 9C26 9.55229 25.5523 10 25 10C24.4477 10 24 9.55229 24 9C24 8.44771 24.4477 8 25 8C25.5523 8 26 8.44771 26 9Z" fill="#C4C4C4"/>
<path d="M26 1C26 1.55228 25.5523 2 25 2C24.4477 2 24 1.55228 24 1C24 0.447715 24.4477 0 25 0C25.5523 0 26 0.447715 26 1Z" fill="#C4C4C4"/>
<path d="M2 73C2 73.5523 1.55228 74 1 74C0.447715 74 0 73.5523 0 73C0 72.4477 0.447715 72 1 72C1.55228 72 2 72.4477 2 73Z" fill="#C4C4C4"/>
<path d="M2 65C2 65.5523 1.55228 66 1 66C0.447715 66 0 65.5523 0 65C0 64.4477 0.447715 64 1 64C1.55228 64 2 64.4477 2 65Z" fill="#C4C4C4"/>
<path d="M2 57C2 57.5523 1.55228 58 1 58C0.447715 58 0 57.5523 0 57C0 56.4477 0.447715 56 1 56C1.55228 56 2 56.4477 2 57Z" fill="#C4C4C4"/>
<path d="M2 49C2 49.5523 1.55228 50 1 50C0.447715 50 0 49.5523 0 49C0 48.4477 0.447715 48 1 48C1.55228 48 2 48.4477 2 49Z" fill="#C4C4C4"/>
<path d="M2 41C2 41.5523 1.55228 42 1 42C0.447715 42 0 41.5523 0 41C0 40.4477 0.447715 40 1 40C1.55228 40 2 40.4477 2 41Z" fill="#C4C4C4"/>
<path d="M2 33C2 33.5523 1.55228 34 1 34C0.447715 34 0 33.5523 0 33C0 32.4477 0.447715 32 1 32C1.55228 32 2 32.4477 2 33Z" fill="#C4C4C4"/>
<path d="M2 25C2 25.5523 1.55228 26 1 26C0.447715 26 0 25.5523 0 25C0 24.4477 0.447715 24 1 24C1.55228 24 2 24.4477 2 25Z" fill="#C4C4C4"/>
<path d="M2 17C2 17.5523 1.55228 18 1 18C0.447715 18 0 17.5523 0 17C0 16.4477 0.447715 16 1 16C1.55228 16 2 16.4477 2 17Z" fill="#C4C4C4"/>
<path d="M2 9C2 9.55229 1.55228 10 1 10C0.447715 10 0 9.55229 0 9C0 8.44771 0.447715 8 1 8C1.55228 8 2 8.44771 2 9Z" fill="#C4C4C4"/>
<path d="M2 1C2 1.55228 1.55228 2 1 2C0.447715 2 0 1.55228 0 1C0 0.447715 0.447715 0 1 0C1.55228 0 2 0.447715 2 1Z" fill="#C4C4C4"/>
<path d="M10 73C10 73.5523 9.55229 74 9 74C8.44771 74 8 73.5523 8 73C8 72.4477 8.44771 72 9 72C9.55229 72 10 72.4477 10 73Z" fill="#C4C4C4"/>
<path d="M10 65C10 65.5523 9.55229 66 9 66C8.44771 66 8 65.5523 8 65C8 64.4477 8.44771 64 9 64C9.55229 64 10 64.4477 10 65Z" fill="#C4C4C4"/>
<path d="M10 57C10 57.5523 9.55229 58 9 58C8.44771 58 8 57.5523 8 57C8 56.4477 8.44771 56 9 56C9.55229 56 10 56.4477 10 57Z" fill="#C4C4C4"/>
<path d="M10 49C10 49.5523 9.55229 50 9 50C8.44771 50 8 49.5523 8 49C8 48.4477 8.44771 48 9 48C9.55229 48 10 48.4477 10 49Z" fill="#C4C4C4"/>
<path d="M10 41C10 41.5523 9.55229 42 9 42C8.44771 42 8 41.5523 8 41C8 40.4477 8.44771 40 9 40C9.55229 40 10 40.4477 10 41Z" fill="#C4C4C4"/>
<path d="M10 33C10 33.5523 9.55229 34 9 34C8.44771 34 8 33.5523 8 33C8 32.4477 8.44771 32 9 32C9.55229 32 10 32.4477 10 33Z" fill="#C4C4C4"/>
<path d="M10 25C10 25.5523 9.55229 26 9 26C8.44771 26 8 25.5523 8 25C8 24.4477 8.44771 24 9 24C9.55229 24 10 24.4477 10 25Z" fill="#C4C4C4"/>
<path d="M10 17C10 17.5523 9.55229 18 9 18C8.44771 18 8 17.5523 8 17C8 16.4477 8.44771 16 9 16C9.55229 16 10 16.4477 10 17Z" fill="#C4C4C4"/>
<path d="M10 9C10 9.55229 9.55229 10 9 10C8.44771 10 8 9.55229 8 9C8 8.44771 8.44771 8 9 8C9.55229 8 10 8.44771 10 9Z" fill="#C4C4C4"/>
<path d="M10 1C10 1.55228 9.55229 2 9 2C8.44771 2 8 1.55228 8 1C8 0.447715 8.44771 0 9 0C9.55229 0 10 0.447715 10 1Z" fill="#C4C4C4"/>
</g>
</g>
</svg>
