<svg width="68" height="207" viewBox="0 0 68 207" fill="none" xmlns="http://www.w3.org/2000/svg">
<g opacity="0.5">
<mask id="mask0" mask-type="alpha" maskUnits="userSpaceOnUse" x="0" y="0" width="68" height="207">
<rect width="68" height="207" fill="#C4C4C4"/>
</mask>
<g mask="url(#mask0)">
<path d="M71 100C71 100.552 70.5523 101 70 101C69.4477 101 69 100.552 69 100C69 99.4477 69.4477 99 70 99C70.5523 99 71 99.4477 71 100Z" fill="white"/>
<path d="M71 92C71 92.5523 70.5523 93 70 93C69.4477 93 69 92.5523 69 92C69 91.4477 69.4477 91 70 91C70.5523 91 71 91.4477 71 92Z" fill="white"/>
<path d="M71 84C71 84.5523 70.5523 85 70 85C69.4477 85 69 84.5523 69 84C69 83.4477 69.4477 83 70 83C70.5523 83 71 83.4477 71 84Z" fill="white"/>
<path d="M71 76C71 76.5523 70.5523 77 70 77C69.4477 77 69 76.5523 69 76C69 75.4477 69.4477 75 70 75C70.5523 75 71 75.4477 71 76Z" fill="white"/>
<path d="M71 68C71 68.5523 70.5523 69 70 69C69.4477 69 69 68.5523 69 68C69 67.4477 69.4477 67 70 67C70.5523 67 71 67.4477 71 68Z" fill="white"/>
<path d="M71 60C71 60.5523 70.5523 61 70 61C69.4477 61 69 60.5523 69 60C69 59.4477 69.4477 59 70 59C70.5523 59 71 59.4477 71 60Z" fill="white"/>
<path d="M71 52C71 52.5523 70.5523 53 70 53C69.4477 53 69 52.5523 69 52C69 51.4477 69.4477 51 70 51C70.5523 51 71 51.4477 71 52Z" fill="white"/>
<path d="M71 44C71 44.5523 70.5523 45 70 45C69.4477 45 69 44.5523 69 44C69 43.4477 69.4477 43 70 43C70.5523 43 71 43.4477 71 44Z" fill="white"/>
<path d="M71 36C71 36.5523 70.5523 37 70 37C69.4477 37 69 36.5523 69 36C69 35.4477 69.4477 35 70 35C70.5523 35 71 35.4477 71 36Z" fill="white"/>
<path d="M71 28C71 28.5523 70.5523 29 70 29C69.4477 29 69 28.5523 69 28C69 27.4477 69.4477 27 70 27C70.5523 27 71 27.4477 71 28Z" fill="white"/>
<path d="M79 100C79 100.552 78.5523 101 78 101C77.4477 101 77 100.552 77 100C77 99.4477 77.4477 99 78 99C78.5523 99 79 99.4477 79 100Z" fill="white"/>
<path d="M79 92C79 92.5523 78.5523 93 78 93C77.4477 93 77 92.5523 77 92C77 91.4477 77.4477 91 78 91C78.5523 91 79 91.4477 79 92Z" fill="white"/>
<path d="M79 84C79 84.5523 78.5523 85 78 85C77.4477 85 77 84.5523 77 84C77 83.4477 77.4477 83 78 83C78.5523 83 79 83.4477 79 84Z" fill="white"/>
<path d="M79 76C79 76.5523 78.5523 77 78 77C77.4477 77 77 76.5523 77 76C77 75.4477 77.4477 75 78 75C78.5523 75 79 75.4477 79 76Z" fill="white"/>
<path d="M79 68C79 68.5523 78.5523 69 78 69C77.4477 69 77 68.5523 77 68C77 67.4477 77.4477 67 78 67C78.5523 67 79 67.4477 79 68Z" fill="white"/>
<path d="M79 60C79 60.5523 78.5523 61 78 61C77.4477 61 77 60.5523 77 60C77 59.4477 77.4477 59 78 59C78.5523 59 79 59.4477 79 60Z" fill="white"/>
<path d="M79 52C79 52.5523 78.5523 53 78 53C77.4477 53 77 52.5523 77 52C77 51.4477 77.4477 51 78 51C78.5523 51 79 51.4477 79 52Z" fill="white"/>
<path d="M79 44C79 44.5523 78.5523 45 78 45C77.4477 45 77 44.5523 77 44C77 43.4477 77.4477 43 78 43C78.5523 43 79 43.4477 79 44Z" fill="white"/>
<path d="M79 36C79 36.5523 78.5523 37 78 37C77.4477 37 77 36.5523 77 36C77 35.4477 77.4477 35 78 35C78.5523 35 79 35.4477 79 36Z" fill="white"/>
<path d="M79 28C79 28.5523 78.5523 29 78 29C77.4477 29 77 28.5523 77 28C77 27.4477 77.4477 27 78 27C78.5523 27 79 27.4477 79 28Z" fill="white"/>
<path d="M55 100C55 100.552 54.5523 101 54 101C53.4477 101 53 100.552 53 100C53 99.4477 53.4477 99 54 99C54.5523 99 55 99.4477 55 100Z" fill="white"/>
<path d="M55 92C55 92.5523 54.5523 93 54 93C53.4477 93 53 92.5523 53 92C53 91.4477 53.4477 91 54 91C54.5523 91 55 91.4477 55 92Z" fill="white"/>
<path d="M55 84C55 84.5523 54.5523 85 54 85C53.4477 85 53 84.5523 53 84C53 83.4477 53.4477 83 54 83C54.5523 83 55 83.4477 55 84Z" fill="white"/>
<path d="M55 76C55 76.5523 54.5523 77 54 77C53.4477 77 53 76.5523 53 76C53 75.4477 53.4477 75 54 75C54.5523 75 55 75.4477 55 76Z" fill="white"/>
<path d="M55 68C55 68.5523 54.5523 69 54 69C53.4477 69 53 68.5523 53 68C53 67.4477 53.4477 67 54 67C54.5523 67 55 67.4477 55 68Z" fill="white"/>
<path d="M55 60C55 60.5523 54.5523 61 54 61C53.4477 61 53 60.5523 53 60C53 59.4477 53.4477 59 54 59C54.5523 59 55 59.4477 55 60Z" fill="white"/>
<path d="M55 52C55 52.5523 54.5523 53 54 53C53.4477 53 53 52.5523 53 52C53 51.4477 53.4477 51 54 51C54.5523 51 55 51.4477 55 52Z" fill="white"/>
<path d="M55 44C55 44.5523 54.5523 45 54 45C53.4477 45 53 44.5523 53 44C53 43.4477 53.4477 43 54 43C54.5523 43 55 43.4477 55 44Z" fill="white"/>
<path d="M55 36C55 36.5523 54.5523 37 54 37C53.4477 37 53 36.5523 53 36C53 35.4477 53.4477 35 54 35C54.5523 35 55 35.4477 55 36Z" fill="white"/>
<path d="M55 28C55 28.5523 54.5523 29 54 29C53.4477 29 53 28.5523 53 28C53 27.4477 53.4477 27 54 27C54.5523 27 55 27.4477 55 28Z" fill="white"/>
<path d="M63 100C63 100.552 62.5523 101 62 101C61.4477 101 61 100.552 61 100C61 99.4477 61.4477 99 62 99C62.5523 99 63 99.4477 63 100Z" fill="white"/>
<path d="M63 92C63 92.5523 62.5523 93 62 93C61.4477 93 61 92.5523 61 92C61 91.4477 61.4477 91 62 91C62.5523 91 63 91.4477 63 92Z" fill="white"/>
<path d="M63 84C63 84.5523 62.5523 85 62 85C61.4477 85 61 84.5523 61 84C61 83.4477 61.4477 83 62 83C62.5523 83 63 83.4477 63 84Z" fill="white"/>
<path d="M63 76C63 76.5523 62.5523 77 62 77C61.4477 77 61 76.5523 61 76C61 75.4477 61.4477 75 62 75C62.5523 75 63 75.4477 63 76Z" fill="white"/>
<path d="M63 68C63 68.5523 62.5523 69 62 69C61.4477 69 61 68.5523 61 68C61 67.4477 61.4477 67 62 67C62.5523 67 63 67.4477 63 68Z" fill="white"/>
<path d="M63 60C63 60.5523 62.5523 61 62 61C61.4477 61 61 60.5523 61 60C61 59.4477 61.4477 59 62 59C62.5523 59 63 59.4477 63 60Z" fill="white"/>
<path d="M63 52C63 52.5523 62.5523 53 62 53C61.4477 53 61 52.5523 61 52C61 51.4477 61.4477 51 62 51C62.5523 51 63 51.4477 63 52Z" fill="white"/>
<path d="M63 44C63 44.5523 62.5523 45 62 45C61.4477 45 61 44.5523 61 44C61 43.4477 61.4477 43 62 43C62.5523 43 63 43.4477 63 44Z" fill="white"/>
<path d="M63 36C63 36.5523 62.5523 37 62 37C61.4477 37 61 36.5523 61 36C61 35.4477 61.4477 35 62 35C62.5523 35 63 35.4477 63 36Z" fill="white"/>
<path d="M63 28C63 28.5523 62.5523 29 62 29C61.4477 29 61 28.5523 61 28C61 27.4477 61.4477 27 62 27C62.5523 27 63 27.4477 63 28Z" fill="white"/>
<path d="M39 100C39 100.552 38.5523 101 38 101C37.4477 101 37 100.552 37 100C37 99.4477 37.4477 99 38 99C38.5523 99 39 99.4477 39 100Z" fill="white"/>
<path d="M39 92C39 92.5523 38.5523 93 38 93C37.4477 93 37 92.5523 37 92C37 91.4477 37.4477 91 38 91C38.5523 91 39 91.4477 39 92Z" fill="white"/>
<path d="M39 84C39 84.5523 38.5523 85 38 85C37.4477 85 37 84.5523 37 84C37 83.4477 37.4477 83 38 83C38.5523 83 39 83.4477 39 84Z" fill="white"/>
<path d="M39 76C39 76.5523 38.5523 77 38 77C37.4477 77 37 76.5523 37 76C37 75.4477 37.4477 75 38 75C38.5523 75 39 75.4477 39 76Z" fill="white"/>
<path d="M39 68C39 68.5523 38.5523 69 38 69C37.4477 69 37 68.5523 37 68C37 67.4477 37.4477 67 38 67C38.5523 67 39 67.4477 39 68Z" fill="white"/>
<path d="M39 60C39 60.5523 38.5523 61 38 61C37.4477 61 37 60.5523 37 60C37 59.4477 37.4477 59 38 59C38.5523 59 39 59.4477 39 60Z" fill="white"/>
<path d="M39 52C39 52.5523 38.5523 53 38 53C37.4477 53 37 52.5523 37 52C37 51.4477 37.4477 51 38 51C38.5523 51 39 51.4477 39 52Z" fill="white"/>
<path d="M39 44C39 44.5523 38.5523 45 38 45C37.4477 45 37 44.5523 37 44C37 43.4477 37.4477 43 38 43C38.5523 43 39 43.4477 39 44Z" fill="white"/>
<path d="M39 36C39 36.5523 38.5523 37 38 37C37.4477 37 37 36.5523 37 36C37 35.4477 37.4477 35 38 35C38.5523 35 39 35.4477 39 36Z" fill="white"/>
<path d="M39 28C39 28.5523 38.5523 29 38 29C37.4477 29 37 28.5523 37 28C37 27.4477 37.4477 27 38 27C38.5523 27 39 27.4477 39 28Z" fill="white"/>
<path d="M47 100C47 100.552 46.5523 101 46 101C45.4477 101 45 100.552 45 100C45 99.4477 45.4477 99 46 99C46.5523 99 47 99.4477 47 100Z" fill="white"/>
<path d="M47 92C47 92.5523 46.5523 93 46 93C45.4477 93 45 92.5523 45 92C45 91.4477 45.4477 91 46 91C46.5523 91 47 91.4477 47 92Z" fill="white"/>
<path d="M47 84C47 84.5523 46.5523 85 46 85C45.4477 85 45 84.5523 45 84C45 83.4477 45.4477 83 46 83C46.5523 83 47 83.4477 47 84Z" fill="white"/>
<path d="M47 76C47 76.5523 46.5523 77 46 77C45.4477 77 45 76.5523 45 76C45 75.4477 45.4477 75 46 75C46.5523 75 47 75.4477 47 76Z" fill="white"/>
<path d="M47 68C47 68.5523 46.5523 69 46 69C45.4477 69 45 68.5523 45 68C45 67.4477 45.4477 67 46 67C46.5523 67 47 67.4477 47 68Z" fill="white"/>
<path d="M47 60C47 60.5523 46.5523 61 46 61C45.4477 61 45 60.5523 45 60C45 59.4477 45.4477 59 46 59C46.5523 59 47 59.4477 47 60Z" fill="white"/>
<path d="M47 52C47 52.5523 46.5523 53 46 53C45.4477 53 45 52.5523 45 52C45 51.4477 45.4477 51 46 51C46.5523 51 47 51.4477 47 52Z" fill="white"/>
<path d="M47 44C47 44.5523 46.5523 45 46 45C45.4477 45 45 44.5523 45 44C45 43.4477 45.4477 43 46 43C46.5523 43 47 43.4477 47 44Z" fill="white"/>
<path d="M47 36C47 36.5523 46.5523 37 46 37C45.4477 37 45 36.5523 45 36C45 35.4477 45.4477 35 46 35C46.5523 35 47 35.4477 47 36Z" fill="white"/>
<path d="M47 28C47 28.5523 46.5523 29 46 29C45.4477 29 45 28.5523 45 28C45 27.4477 45.4477 27 46 27C46.5523 27 47 27.4477 47 28Z" fill="white"/>
<path d="M23 100C23 100.552 22.5523 101 22 101C21.4477 101 21 100.552 21 100C21 99.4477 21.4477 99 22 99C22.5523 99 23 99.4477 23 100Z" fill="white"/>
<path d="M23 92C23 92.5523 22.5523 93 22 93C21.4477 93 21 92.5523 21 92C21 91.4477 21.4477 91 22 91C22.5523 91 23 91.4477 23 92Z" fill="white"/>
<path d="M23 84C23 84.5523 22.5523 85 22 85C21.4477 85 21 84.5523 21 84C21 83.4477 21.4477 83 22 83C22.5523 83 23 83.4477 23 84Z" fill="white"/>
<path d="M23 76C23 76.5523 22.5523 77 22 77C21.4477 77 21 76.5523 21 76C21 75.4477 21.4477 75 22 75C22.5523 75 23 75.4477 23 76Z" fill="white"/>
<path d="M23 68C23 68.5523 22.5523 69 22 69C21.4477 69 21 68.5523 21 68C21 67.4477 21.4477 67 22 67C22.5523 67 23 67.4477 23 68Z" fill="white"/>
<path d="M23 60C23 60.5523 22.5523 61 22 61C21.4477 61 21 60.5523 21 60C21 59.4477 21.4477 59 22 59C22.5523 59 23 59.4477 23 60Z" fill="white"/>
<path d="M23 52C23 52.5523 22.5523 53 22 53C21.4477 53 21 52.5523 21 52C21 51.4477 21.4477 51 22 51C22.5523 51 23 51.4477 23 52Z" fill="white"/>
<path d="M23 44C23 44.5523 22.5523 45 22 45C21.4477 45 21 44.5523 21 44C21 43.4477 21.4477 43 22 43C22.5523 43 23 43.4477 23 44Z" fill="white"/>
<path d="M23 36C23 36.5523 22.5523 37 22 37C21.4477 37 21 36.5523 21 36C21 35.4477 21.4477 35 22 35C22.5523 35 23 35.4477 23 36Z" fill="white"/>
<path d="M23 28C23 28.5523 22.5523 29 22 29C21.4477 29 21 28.5523 21 28C21 27.4477 21.4477 27 22 27C22.5523 27 23 27.4477 23 28Z" fill="white"/>
<path d="M31 100C31 100.552 30.5523 101 30 101C29.4477 101 29 100.552 29 100C29 99.4477 29.4477 99 30 99C30.5523 99 31 99.4477 31 100Z" fill="white"/>
<path d="M31 92C31 92.5523 30.5523 93 30 93C29.4477 93 29 92.5523 29 92C29 91.4477 29.4477 91 30 91C30.5523 91 31 91.4477 31 92Z" fill="white"/>
<path d="M31 84C31 84.5523 30.5523 85 30 85C29.4477 85 29 84.5523 29 84C29 83.4477 29.4477 83 30 83C30.5523 83 31 83.4477 31 84Z" fill="white"/>
<path d="M31 76C31 76.5523 30.5523 77 30 77C29.4477 77 29 76.5523 29 76C29 75.4477 29.4477 75 30 75C30.5523 75 31 75.4477 31 76Z" fill="white"/>
<path d="M31 68C31 68.5523 30.5523 69 30 69C29.4477 69 29 68.5523 29 68C29 67.4477 29.4477 67 30 67C30.5523 67 31 67.4477 31 68Z" fill="white"/>
<path d="M31 60C31 60.5523 30.5523 61 30 61C29.4477 61 29 60.5523 29 60C29 59.4477 29.4477 59 30 59C30.5523 59 31 59.4477 31 60Z" fill="white"/>
<path d="M31 52C31 52.5523 30.5523 53 30 53C29.4477 53 29 52.5523 29 52C29 51.4477 29.4477 51 30 51C30.5523 51 31 51.4477 31 52Z" fill="white"/>
<path d="M31 44C31 44.5523 30.5523 45 30 45C29.4477 45 29 44.5523 29 44C29 43.4477 29.4477 43 30 43C30.5523 43 31 43.4477 31 44Z" fill="white"/>
<path d="M31 36C31 36.5523 30.5523 37 30 37C29.4477 37 29 36.5523 29 36C29 35.4477 29.4477 35 30 35C30.5523 35 31 35.4477 31 36Z" fill="white"/>
<path d="M31 28C31 28.5523 30.5523 29 30 29C29.4477 29 29 28.5523 29 28C29 27.4477 29.4477 27 30 27C30.5523 27 31 27.4477 31 28Z" fill="white"/>
<path d="M7 100C7 100.552 6.55228 101 6 101C5.44772 101 5 100.552 5 100C5 99.4477 5.44772 99 6 99C6.55228 99 7 99.4477 7 100Z" fill="white"/>
<path d="M7 92C7 92.5523 6.55228 93 6 93C5.44772 93 5 92.5523 5 92C5 91.4477 5.44772 91 6 91C6.55228 91 7 91.4477 7 92Z" fill="white"/>
<path d="M7 84C7 84.5523 6.55228 85 6 85C5.44772 85 5 84.5523 5 84C5 83.4477 5.44772 83 6 83C6.55228 83 7 83.4477 7 84Z" fill="white"/>
<path d="M7 76C7 76.5523 6.55228 77 6 77C5.44772 77 5 76.5523 5 76C5 75.4477 5.44772 75 6 75C6.55228 75 7 75.4477 7 76Z" fill="white"/>
<path d="M7 68C7 68.5523 6.55228 69 6 69C5.44772 69 5 68.5523 5 68C5 67.4477 5.44772 67 6 67C6.55228 67 7 67.4477 7 68Z" fill="white"/>
<path d="M7 60C7 60.5523 6.55228 61 6 61C5.44772 61 5 60.5523 5 60C5 59.4477 5.44772 59 6 59C6.55228 59 7 59.4477 7 60Z" fill="white"/>
<path d="M7 52C7 52.5523 6.55228 53 6 53C5.44772 53 5 52.5523 5 52C5 51.4477 5.44772 51 6 51C6.55228 51 7 51.4477 7 52Z" fill="white"/>
<path d="M7 44C7 44.5523 6.55228 45 6 45C5.44772 45 5 44.5523 5 44C5 43.4477 5.44772 43 6 43C6.55228 43 7 43.4477 7 44Z" fill="white"/>
<path d="M7 36C7 36.5523 6.55228 37 6 37C5.44772 37 5 36.5523 5 36C5 35.4477 5.44772 35 6 35C6.55228 35 7 35.4477 7 36Z" fill="white"/>
<path d="M7 28C7 28.5523 6.55228 29 6 29C5.44772 29 5 28.5523 5 28C5 27.4477 5.44772 27 6 27C6.55228 27 7 27.4477 7 28Z" fill="white"/>
<path d="M15 100C15 100.552 14.5523 101 14 101C13.4477 101 13 100.552 13 100C13 99.4477 13.4477 99 14 99C14.5523 99 15 99.4477 15 100Z" fill="white"/>
<path d="M15 92C15 92.5523 14.5523 93 14 93C13.4477 93 13 92.5523 13 92C13 91.4477 13.4477 91 14 91C14.5523 91 15 91.4477 15 92Z" fill="white"/>
<path d="M15 84C15 84.5523 14.5523 85 14 85C13.4477 85 13 84.5523 13 84C13 83.4477 13.4477 83 14 83C14.5523 83 15 83.4477 15 84Z" fill="white"/>
<path d="M15 76C15 76.5523 14.5523 77 14 77C13.4477 77 13 76.5523 13 76C13 75.4477 13.4477 75 14 75C14.5523 75 15 75.4477 15 76Z" fill="white"/>
<path d="M15 68C15 68.5523 14.5523 69 14 69C13.4477 69 13 68.5523 13 68C13 67.4477 13.4477 67 14 67C14.5523 67 15 67.4477 15 68Z" fill="white"/>
<path d="M15 60C15 60.5523 14.5523 61 14 61C13.4477 61 13 60.5523 13 60C13 59.4477 13.4477 59 14 59C14.5523 59 15 59.4477 15 60Z" fill="white"/>
<path d="M15 52C15 52.5523 14.5523 53 14 53C13.4477 53 13 52.5523 13 52C13 51.4477 13.4477 51 14 51C14.5523 51 15 51.4477 15 52Z" fill="white"/>
<path d="M15 44C15 44.5523 14.5523 45 14 45C13.4477 45 13 44.5523 13 44C13 43.4477 13.4477 43 14 43C14.5523 43 15 43.4477 15 44Z" fill="white"/>
<path d="M15 36C15 36.5523 14.5523 37 14 37C13.4477 37 13 36.5523 13 36C13 35.4477 13.4477 35 14 35C14.5523 35 15 35.4477 15 36Z" fill="white"/>
<path d="M15 28C15 28.5523 14.5523 29 14 29C13.4477 29 13 28.5523 13 28C13 27.4477 13.4477 27 14 27C14.5523 27 15 27.4477 15 28Z" fill="white"/>
<path d="M-9 100C-9 100.552 -9.44772 101 -10 101C-10.5523 101 -11 100.552 -11 100C-11 99.4477 -10.5523 99 -10 99C-9.44772 99 -9 99.4477 -9 100Z" fill="white"/>
<path d="M-9 92C-9 92.5523 -9.44772 93 -10 93C-10.5523 93 -11 92.5523 -11 92C-11 91.4477 -10.5523 91 -10 91C-9.44772 91 -9 91.4477 -9 92Z" fill="white"/>
<path d="M-9 84C-9 84.5523 -9.44772 85 -10 85C-10.5523 85 -11 84.5523 -11 84C-11 83.4477 -10.5523 83 -10 83C-9.44772 83 -9 83.4477 -9 84Z" fill="white"/>
<path d="M-9 76C-9 76.5523 -9.44772 77 -10 77C-10.5523 77 -11 76.5523 -11 76C-11 75.4477 -10.5523 75 -10 75C-9.44772 75 -9 75.4477 -9 76Z" fill="white"/>
<path d="M-9 68C-9 68.5523 -9.44772 69 -10 69C-10.5523 69 -11 68.5523 -11 68C-11 67.4477 -10.5523 67 -10 67C-9.44772 67 -9 67.4477 -9 68Z" fill="white"/>
<path d="M-9 60C-9 60.5523 -9.44772 61 -10 61C-10.5523 61 -11 60.5523 -11 60C-11 59.4477 -10.5523 59 -10 59C-9.44772 59 -9 59.4477 -9 60Z" fill="white"/>
<path d="M-9 52C-9 52.5523 -9.44772 53 -10 53C-10.5523 53 -11 52.5523 -11 52C-11 51.4477 -10.5523 51 -10 51C-9.44772 51 -9 51.4477 -9 52Z" fill="white"/>
<path d="M-9 44C-9 44.5523 -9.44772 45 -10 45C-10.5523 45 -11 44.5523 -11 44C-11 43.4477 -10.5523 43 -10 43C-9.44772 43 -9 43.4477 -9 44Z" fill="white"/>
<path d="M-9 36C-9 36.5523 -9.44772 37 -10 37C-10.5523 37 -11 36.5523 -11 36C-11 35.4477 -10.5523 35 -10 35C-9.44772 35 -9 35.4477 -9 36Z" fill="white"/>
<path d="M-9 28C-9 28.5523 -9.44772 29 -10 29C-10.5523 29 -11 28.5523 -11 28C-11 27.4477 -10.5523 27 -10 27C-9.44772 27 -9 27.4477 -9 28Z" fill="white"/>
<path d="M-1 100C-1 100.552 -1.44771 101 -2 101C-2.55229 101 -3 100.552 -3 100C-3 99.4477 -2.55229 99 -2 99C-1.44771 99 -1 99.4477 -1 100Z" fill="white"/>
<path d="M-1 92C-1 92.5523 -1.44771 93 -2 93C-2.55229 93 -3 92.5523 -3 92C-3 91.4477 -2.55229 91 -2 91C-1.44771 91 -1 91.4477 -1 92Z" fill="white"/>
<path d="M-1 84C-1 84.5523 -1.44771 85 -2 85C-2.55229 85 -3 84.5523 -3 84C-3 83.4477 -2.55229 83 -2 83C-1.44771 83 -1 83.4477 -1 84Z" fill="white"/>
<path d="M-1 76C-1 76.5523 -1.44771 77 -2 77C-2.55229 77 -3 76.5523 -3 76C-3 75.4477 -2.55229 75 -2 75C-1.44771 75 -1 75.4477 -1 76Z" fill="white"/>
<path d="M-1 68C-1 68.5523 -1.44771 69 -2 69C-2.55229 69 -3 68.5523 -3 68C-3 67.4477 -2.55229 67 -2 67C-1.44771 67 -1 67.4477 -1 68Z" fill="white"/>
<path d="M-1 60C-1 60.5523 -1.44771 61 -2 61C-2.55229 61 -3 60.5523 -3 60C-3 59.4477 -2.55229 59 -2 59C-1.44771 59 -1 59.4477 -1 60Z" fill="white"/>
<path d="M-1 52C-1 52.5523 -1.44771 53 -2 53C-2.55229 53 -3 52.5523 -3 52C-3 51.4477 -2.55229 51 -2 51C-1.44771 51 -1 51.4477 -1 52Z" fill="white"/>
<path d="M-1 44C-1 44.5523 -1.44771 45 -2 45C-2.55229 45 -3 44.5523 -3 44C-3 43.4477 -2.55229 43 -2 43C-1.44771 43 -1 43.4477 -1 44Z" fill="white"/>
<path d="M-1 36C-1 36.5523 -1.44771 37 -2 37C-2.55229 37 -3 36.5523 -3 36C-3 35.4477 -2.55229 35 -2 35C-1.44771 35 -1 35.4477 -1 36Z" fill="white"/>
<path d="M-1 28C-1 28.5523 -1.44771 29 -2 29C-2.55229 29 -3 28.5523 -3 28C-3 27.4477 -2.55229 27 -2 27C-1.44771 27 -1 27.4477 -1 28Z" fill="white"/>
<path d="M71 20C71 20.5523 70.5523 21 70 21C69.4477 21 69 20.5523 69 20C69 19.4477 69.4477 19 70 19C70.5523 19 71 19.4477 71 20Z" fill="white"/>
<path d="M71 12C71 12.5523 70.5523 13 70 13C69.4477 13 69 12.5523 69 12C69 11.4477 69.4477 11 70 11C70.5523 11 71 11.4477 71 12Z" fill="white"/>
<path d="M71 4C71 4.55228 70.5523 5 70 5C69.4477 5 69 4.55228 69 4C69 3.44772 69.4477 3 70 3C70.5523 3 71 3.44772 71 4Z" fill="white"/>
<path d="M71 -4C71 -3.44772 70.5523 -3 70 -3C69.4477 -3 69 -3.44772 69 -4C69 -4.55228 69.4477 -5 70 -5C70.5523 -5 71 -4.55228 71 -4Z" fill="white"/>
<path d="M71 -12C71 -11.4477 70.5523 -11 70 -11C69.4477 -11 69 -11.4477 69 -12C69 -12.5523 69.4477 -13 70 -13C70.5523 -13 71 -12.5523 71 -12Z" fill="white"/>
<path d="M71 -20C71 -19.4477 70.5523 -19 70 -19C69.4477 -19 69 -19.4477 69 -20C69 -20.5523 69.4477 -21 70 -21C70.5523 -21 71 -20.5523 71 -20Z" fill="white"/>
<path d="M71 -28C71 -27.4477 70.5523 -27 70 -27C69.4477 -27 69 -27.4477 69 -28C69 -28.5523 69.4477 -29 70 -29C70.5523 -29 71 -28.5523 71 -28Z" fill="white"/>
<path d="M71 -36C71 -35.4477 70.5523 -35 70 -35C69.4477 -35 69 -35.4477 69 -36C69 -36.5523 69.4477 -37 70 -37C70.5523 -37 71 -36.5523 71 -36Z" fill="white"/>
<path d="M71 -44C71 -43.4477 70.5523 -43 70 -43C69.4477 -43 69 -43.4477 69 -44C69 -44.5523 69.4477 -45 70 -45C70.5523 -45 71 -44.5523 71 -44Z" fill="white"/>
<path d="M71 -52C71 -51.4477 70.5523 -51 70 -51C69.4477 -51 69 -51.4477 69 -52C69 -52.5523 69.4477 -53 70 -53C70.5523 -53 71 -52.5523 71 -52Z" fill="white"/>
<path d="M79 20C79 20.5523 78.5523 21 78 21C77.4477 21 77 20.5523 77 20C77 19.4477 77.4477 19 78 19C78.5523 19 79 19.4477 79 20Z" fill="white"/>
<path d="M79 12C79 12.5523 78.5523 13 78 13C77.4477 13 77 12.5523 77 12C77 11.4477 77.4477 11 78 11C78.5523 11 79 11.4477 79 12Z" fill="white"/>
<path d="M79 4C79 4.55228 78.5523 5 78 5C77.4477 5 77 4.55228 77 4C77 3.44772 77.4477 3 78 3C78.5523 3 79 3.44772 79 4Z" fill="white"/>
<path d="M79 -4C79 -3.44772 78.5523 -3 78 -3C77.4477 -3 77 -3.44772 77 -4C77 -4.55228 77.4477 -5 78 -5C78.5523 -5 79 -4.55228 79 -4Z" fill="white"/>
<path d="M79 -12C79 -11.4477 78.5523 -11 78 -11C77.4477 -11 77 -11.4477 77 -12C77 -12.5523 77.4477 -13 78 -13C78.5523 -13 79 -12.5523 79 -12Z" fill="white"/>
<path d="M79 -20C79 -19.4477 78.5523 -19 78 -19C77.4477 -19 77 -19.4477 77 -20C77 -20.5523 77.4477 -21 78 -21C78.5523 -21 79 -20.5523 79 -20Z" fill="white"/>
<path d="M79 -28C79 -27.4477 78.5523 -27 78 -27C77.4477 -27 77 -27.4477 77 -28C77 -28.5523 77.4477 -29 78 -29C78.5523 -29 79 -28.5523 79 -28Z" fill="white"/>
<path d="M79 -36C79 -35.4477 78.5523 -35 78 -35C77.4477 -35 77 -35.4477 77 -36C77 -36.5523 77.4477 -37 78 -37C78.5523 -37 79 -36.5523 79 -36Z" fill="white"/>
<path d="M79 -44C79 -43.4477 78.5523 -43 78 -43C77.4477 -43 77 -43.4477 77 -44C77 -44.5523 77.4477 -45 78 -45C78.5523 -45 79 -44.5523 79 -44Z" fill="white"/>
<path d="M79 -52C79 -51.4477 78.5523 -51 78 -51C77.4477 -51 77 -51.4477 77 -52C77 -52.5523 77.4477 -53 78 -53C78.5523 -53 79 -52.5523 79 -52Z" fill="white"/>
<path d="M55 20C55 20.5523 54.5523 21 54 21C53.4477 21 53 20.5523 53 20C53 19.4477 53.4477 19 54 19C54.5523 19 55 19.4477 55 20Z" fill="white"/>
<path d="M55 12C55 12.5523 54.5523 13 54 13C53.4477 13 53 12.5523 53 12C53 11.4477 53.4477 11 54 11C54.5523 11 55 11.4477 55 12Z" fill="white"/>
<path d="M55 4C55 4.55228 54.5523 5 54 5C53.4477 5 53 4.55228 53 4C53 3.44772 53.4477 3 54 3C54.5523 3 55 3.44772 55 4Z" fill="white"/>
<path d="M55 -4C55 -3.44772 54.5523 -3 54 -3C53.4477 -3 53 -3.44772 53 -4C53 -4.55228 53.4477 -5 54 -5C54.5523 -5 55 -4.55228 55 -4Z" fill="white"/>
<path d="M55 -12C55 -11.4477 54.5523 -11 54 -11C53.4477 -11 53 -11.4477 53 -12C53 -12.5523 53.4477 -13 54 -13C54.5523 -13 55 -12.5523 55 -12Z" fill="white"/>
<path d="M55 -20C55 -19.4477 54.5523 -19 54 -19C53.4477 -19 53 -19.4477 53 -20C53 -20.5523 53.4477 -21 54 -21C54.5523 -21 55 -20.5523 55 -20Z" fill="white"/>
<path d="M55 -28C55 -27.4477 54.5523 -27 54 -27C53.4477 -27 53 -27.4477 53 -28C53 -28.5523 53.4477 -29 54 -29C54.5523 -29 55 -28.5523 55 -28Z" fill="white"/>
<path d="M55 -36C55 -35.4477 54.5523 -35 54 -35C53.4477 -35 53 -35.4477 53 -36C53 -36.5523 53.4477 -37 54 -37C54.5523 -37 55 -36.5523 55 -36Z" fill="white"/>
<path d="M55 -44C55 -43.4477 54.5523 -43 54 -43C53.4477 -43 53 -43.4477 53 -44C53 -44.5523 53.4477 -45 54 -45C54.5523 -45 55 -44.5523 55 -44Z" fill="white"/>
<path d="M55 -52C55 -51.4477 54.5523 -51 54 -51C53.4477 -51 53 -51.4477 53 -52C53 -52.5523 53.4477 -53 54 -53C54.5523 -53 55 -52.5523 55 -52Z" fill="white"/>
<path d="M63 20C63 20.5523 62.5523 21 62 21C61.4477 21 61 20.5523 61 20C61 19.4477 61.4477 19 62 19C62.5523 19 63 19.4477 63 20Z" fill="white"/>
<path d="M63 12C63 12.5523 62.5523 13 62 13C61.4477 13 61 12.5523 61 12C61 11.4477 61.4477 11 62 11C62.5523 11 63 11.4477 63 12Z" fill="white"/>
<path d="M63 4C63 4.55228 62.5523 5 62 5C61.4477 5 61 4.55228 61 4C61 3.44772 61.4477 3 62 3C62.5523 3 63 3.44772 63 4Z" fill="white"/>
<path d="M63 -4C63 -3.44772 62.5523 -3 62 -3C61.4477 -3 61 -3.44772 61 -4C61 -4.55228 61.4477 -5 62 -5C62.5523 -5 63 -4.55228 63 -4Z" fill="white"/>
<path d="M63 -12C63 -11.4477 62.5523 -11 62 -11C61.4477 -11 61 -11.4477 61 -12C61 -12.5523 61.4477 -13 62 -13C62.5523 -13 63 -12.5523 63 -12Z" fill="white"/>
<path d="M63 -20C63 -19.4477 62.5523 -19 62 -19C61.4477 -19 61 -19.4477 61 -20C61 -20.5523 61.4477 -21 62 -21C62.5523 -21 63 -20.5523 63 -20Z" fill="white"/>
<path d="M63 -28C63 -27.4477 62.5523 -27 62 -27C61.4477 -27 61 -27.4477 61 -28C61 -28.5523 61.4477 -29 62 -29C62.5523 -29 63 -28.5523 63 -28Z" fill="white"/>
<path d="M63 -36C63 -35.4477 62.5523 -35 62 -35C61.4477 -35 61 -35.4477 61 -36C61 -36.5523 61.4477 -37 62 -37C62.5523 -37 63 -36.5523 63 -36Z" fill="white"/>
<path d="M63 -44C63 -43.4477 62.5523 -43 62 -43C61.4477 -43 61 -43.4477 61 -44C61 -44.5523 61.4477 -45 62 -45C62.5523 -45 63 -44.5523 63 -44Z" fill="white"/>
<path d="M63 -52C63 -51.4477 62.5523 -51 62 -51C61.4477 -51 61 -51.4477 61 -52C61 -52.5523 61.4477 -53 62 -53C62.5523 -53 63 -52.5523 63 -52Z" fill="white"/>
<path d="M39 20C39 20.5523 38.5523 21 38 21C37.4477 21 37 20.5523 37 20C37 19.4477 37.4477 19 38 19C38.5523 19 39 19.4477 39 20Z" fill="white"/>
<path d="M39 12C39 12.5523 38.5523 13 38 13C37.4477 13 37 12.5523 37 12C37 11.4477 37.4477 11 38 11C38.5523 11 39 11.4477 39 12Z" fill="white"/>
<path d="M39 4C39 4.55228 38.5523 5 38 5C37.4477 5 37 4.55228 37 4C37 3.44772 37.4477 3 38 3C38.5523 3 39 3.44772 39 4Z" fill="white"/>
<path d="M39 -4C39 -3.44772 38.5523 -3 38 -3C37.4477 -3 37 -3.44772 37 -4C37 -4.55228 37.4477 -5 38 -5C38.5523 -5 39 -4.55228 39 -4Z" fill="white"/>
<path d="M39 -12C39 -11.4477 38.5523 -11 38 -11C37.4477 -11 37 -11.4477 37 -12C37 -12.5523 37.4477 -13 38 -13C38.5523 -13 39 -12.5523 39 -12Z" fill="white"/>
<path d="M39 -20C39 -19.4477 38.5523 -19 38 -19C37.4477 -19 37 -19.4477 37 -20C37 -20.5523 37.4477 -21 38 -21C38.5523 -21 39 -20.5523 39 -20Z" fill="white"/>
<path d="M39 -28C39 -27.4477 38.5523 -27 38 -27C37.4477 -27 37 -27.4477 37 -28C37 -28.5523 37.4477 -29 38 -29C38.5523 -29 39 -28.5523 39 -28Z" fill="white"/>
<path d="M39 -36C39 -35.4477 38.5523 -35 38 -35C37.4477 -35 37 -35.4477 37 -36C37 -36.5523 37.4477 -37 38 -37C38.5523 -37 39 -36.5523 39 -36Z" fill="white"/>
<path d="M39 -44C39 -43.4477 38.5523 -43 38 -43C37.4477 -43 37 -43.4477 37 -44C37 -44.5523 37.4477 -45 38 -45C38.5523 -45 39 -44.5523 39 -44Z" fill="white"/>
<path d="M39 -52C39 -51.4477 38.5523 -51 38 -51C37.4477 -51 37 -51.4477 37 -52C37 -52.5523 37.4477 -53 38 -53C38.5523 -53 39 -52.5523 39 -52Z" fill="white"/>
<path d="M47 20C47 20.5523 46.5523 21 46 21C45.4477 21 45 20.5523 45 20C45 19.4477 45.4477 19 46 19C46.5523 19 47 19.4477 47 20Z" fill="white"/>
<path d="M47 12C47 12.5523 46.5523 13 46 13C45.4477 13 45 12.5523 45 12C45 11.4477 45.4477 11 46 11C46.5523 11 47 11.4477 47 12Z" fill="white"/>
<path d="M47 4C47 4.55228 46.5523 5 46 5C45.4477 5 45 4.55228 45 4C45 3.44772 45.4477 3 46 3C46.5523 3 47 3.44772 47 4Z" fill="white"/>
<path d="M47 -4C47 -3.44772 46.5523 -3 46 -3C45.4477 -3 45 -3.44772 45 -4C45 -4.55228 45.4477 -5 46 -5C46.5523 -5 47 -4.55228 47 -4Z" fill="white"/>
<path d="M47 -12C47 -11.4477 46.5523 -11 46 -11C45.4477 -11 45 -11.4477 45 -12C45 -12.5523 45.4477 -13 46 -13C46.5523 -13 47 -12.5523 47 -12Z" fill="white"/>
<path d="M47 -20C47 -19.4477 46.5523 -19 46 -19C45.4477 -19 45 -19.4477 45 -20C45 -20.5523 45.4477 -21 46 -21C46.5523 -21 47 -20.5523 47 -20Z" fill="white"/>
<path d="M47 -28C47 -27.4477 46.5523 -27 46 -27C45.4477 -27 45 -27.4477 45 -28C45 -28.5523 45.4477 -29 46 -29C46.5523 -29 47 -28.5523 47 -28Z" fill="white"/>
<path d="M47 -36C47 -35.4477 46.5523 -35 46 -35C45.4477 -35 45 -35.4477 45 -36C45 -36.5523 45.4477 -37 46 -37C46.5523 -37 47 -36.5523 47 -36Z" fill="white"/>
<path d="M47 -44C47 -43.4477 46.5523 -43 46 -43C45.4477 -43 45 -43.4477 45 -44C45 -44.5523 45.4477 -45 46 -45C46.5523 -45 47 -44.5523 47 -44Z" fill="white"/>
<path d="M47 -52C47 -51.4477 46.5523 -51 46 -51C45.4477 -51 45 -51.4477 45 -52C45 -52.5523 45.4477 -53 46 -53C46.5523 -53 47 -52.5523 47 -52Z" fill="white"/>
<path d="M23 20C23 20.5523 22.5523 21 22 21C21.4477 21 21 20.5523 21 20C21 19.4477 21.4477 19 22 19C22.5523 19 23 19.4477 23 20Z" fill="white"/>
<path d="M23 12C23 12.5523 22.5523 13 22 13C21.4477 13 21 12.5523 21 12C21 11.4477 21.4477 11 22 11C22.5523 11 23 11.4477 23 12Z" fill="white"/>
<path d="M23 4C23 4.55228 22.5523 5 22 5C21.4477 5 21 4.55228 21 4C21 3.44772 21.4477 3 22 3C22.5523 3 23 3.44772 23 4Z" fill="white"/>
<path d="M23 -4C23 -3.44772 22.5523 -3 22 -3C21.4477 -3 21 -3.44772 21 -4C21 -4.55228 21.4477 -5 22 -5C22.5523 -5 23 -4.55228 23 -4Z" fill="white"/>
<path d="M23 -12C23 -11.4477 22.5523 -11 22 -11C21.4477 -11 21 -11.4477 21 -12C21 -12.5523 21.4477 -13 22 -13C22.5523 -13 23 -12.5523 23 -12Z" fill="white"/>
<path d="M23 -20C23 -19.4477 22.5523 -19 22 -19C21.4477 -19 21 -19.4477 21 -20C21 -20.5523 21.4477 -21 22 -21C22.5523 -21 23 -20.5523 23 -20Z" fill="white"/>
<path d="M23 -28C23 -27.4477 22.5523 -27 22 -27C21.4477 -27 21 -27.4477 21 -28C21 -28.5523 21.4477 -29 22 -29C22.5523 -29 23 -28.5523 23 -28Z" fill="white"/>
<path d="M23 -36C23 -35.4477 22.5523 -35 22 -35C21.4477 -35 21 -35.4477 21 -36C21 -36.5523 21.4477 -37 22 -37C22.5523 -37 23 -36.5523 23 -36Z" fill="white"/>
<path d="M23 -44C23 -43.4477 22.5523 -43 22 -43C21.4477 -43 21 -43.4477 21 -44C21 -44.5523 21.4477 -45 22 -45C22.5523 -45 23 -44.5523 23 -44Z" fill="white"/>
<path d="M23 -52C23 -51.4477 22.5523 -51 22 -51C21.4477 -51 21 -51.4477 21 -52C21 -52.5523 21.4477 -53 22 -53C22.5523 -53 23 -52.5523 23 -52Z" fill="white"/>
<path d="M31 20C31 20.5523 30.5523 21 30 21C29.4477 21 29 20.5523 29 20C29 19.4477 29.4477 19 30 19C30.5523 19 31 19.4477 31 20Z" fill="white"/>
<path d="M31 12C31 12.5523 30.5523 13 30 13C29.4477 13 29 12.5523 29 12C29 11.4477 29.4477 11 30 11C30.5523 11 31 11.4477 31 12Z" fill="white"/>
<path d="M31 4C31 4.55228 30.5523 5 30 5C29.4477 5 29 4.55228 29 4C29 3.44772 29.4477 3 30 3C30.5523 3 31 3.44772 31 4Z" fill="white"/>
<path d="M31 -4C31 -3.44772 30.5523 -3 30 -3C29.4477 -3 29 -3.44772 29 -4C29 -4.55228 29.4477 -5 30 -5C30.5523 -5 31 -4.55228 31 -4Z" fill="white"/>
<path d="M31 -12C31 -11.4477 30.5523 -11 30 -11C29.4477 -11 29 -11.4477 29 -12C29 -12.5523 29.4477 -13 30 -13C30.5523 -13 31 -12.5523 31 -12Z" fill="white"/>
<path d="M31 -20C31 -19.4477 30.5523 -19 30 -19C29.4477 -19 29 -19.4477 29 -20C29 -20.5523 29.4477 -21 30 -21C30.5523 -21 31 -20.5523 31 -20Z" fill="white"/>
<path d="M31 -28C31 -27.4477 30.5523 -27 30 -27C29.4477 -27 29 -27.4477 29 -28C29 -28.5523 29.4477 -29 30 -29C30.5523 -29 31 -28.5523 31 -28Z" fill="white"/>
<path d="M31 -36C31 -35.4477 30.5523 -35 30 -35C29.4477 -35 29 -35.4477 29 -36C29 -36.5523 29.4477 -37 30 -37C30.5523 -37 31 -36.5523 31 -36Z" fill="white"/>
<path d="M31 -44C31 -43.4477 30.5523 -43 30 -43C29.4477 -43 29 -43.4477 29 -44C29 -44.5523 29.4477 -45 30 -45C30.5523 -45 31 -44.5523 31 -44Z" fill="white"/>
<path d="M31 -52C31 -51.4477 30.5523 -51 30 -51C29.4477 -51 29 -51.4477 29 -52C29 -52.5523 29.4477 -53 30 -53C30.5523 -53 31 -52.5523 31 -52Z" fill="white"/>
<path d="M7 20C7 20.5523 6.55228 21 6 21C5.44772 21 5 20.5523 5 20C5 19.4477 5.44772 19 6 19C6.55228 19 7 19.4477 7 20Z" fill="white"/>
<path d="M7 12C7 12.5523 6.55228 13 6 13C5.44772 13 5 12.5523 5 12C5 11.4477 5.44772 11 6 11C6.55228 11 7 11.4477 7 12Z" fill="white"/>
<path d="M7 4C7 4.55228 6.55228 5 6 5C5.44772 5 5 4.55228 5 4C5 3.44772 5.44772 3 6 3C6.55228 3 7 3.44772 7 4Z" fill="white"/>
<path d="M7 -4C7 -3.44772 6.55228 -3 6 -3C5.44772 -3 5 -3.44772 5 -4C5 -4.55228 5.44772 -5 6 -5C6.55228 -5 7 -4.55228 7 -4Z" fill="white"/>
<path d="M7 -12C7 -11.4477 6.55228 -11 6 -11C5.44772 -11 5 -11.4477 5 -12C5 -12.5523 5.44772 -13 6 -13C6.55228 -13 7 -12.5523 7 -12Z" fill="white"/>
<path d="M7 -20C7 -19.4477 6.55228 -19 6 -19C5.44772 -19 5 -19.4477 5 -20C5 -20.5523 5.44772 -21 6 -21C6.55228 -21 7 -20.5523 7 -20Z" fill="white"/>
<path d="M7 -28C7 -27.4477 6.55228 -27 6 -27C5.44772 -27 5 -27.4477 5 -28C5 -28.5523 5.44772 -29 6 -29C6.55228 -29 7 -28.5523 7 -28Z" fill="white"/>
<path d="M7 -36C7 -35.4477 6.55228 -35 6 -35C5.44772 -35 5 -35.4477 5 -36C5 -36.5523 5.44772 -37 6 -37C6.55228 -37 7 -36.5523 7 -36Z" fill="white"/>
<path d="M7 -44C7 -43.4477 6.55228 -43 6 -43C5.44772 -43 5 -43.4477 5 -44C5 -44.5523 5.44772 -45 6 -45C6.55228 -45 7 -44.5523 7 -44Z" fill="white"/>
<path d="M7 -52C7 -51.4477 6.55228 -51 6 -51C5.44772 -51 5 -51.4477 5 -52C5 -52.5523 5.44772 -53 6 -53C6.55228 -53 7 -52.5523 7 -52Z" fill="white"/>
<path d="M15 20C15 20.5523 14.5523 21 14 21C13.4477 21 13 20.5523 13 20C13 19.4477 13.4477 19 14 19C14.5523 19 15 19.4477 15 20Z" fill="white"/>
<path d="M15 12C15 12.5523 14.5523 13 14 13C13.4477 13 13 12.5523 13 12C13 11.4477 13.4477 11 14 11C14.5523 11 15 11.4477 15 12Z" fill="white"/>
<path d="M15 4C15 4.55228 14.5523 5 14 5C13.4477 5 13 4.55228 13 4C13 3.44772 13.4477 3 14 3C14.5523 3 15 3.44772 15 4Z" fill="white"/>
<path d="M15 -4C15 -3.44772 14.5523 -3 14 -3C13.4477 -3 13 -3.44772 13 -4C13 -4.55228 13.4477 -5 14 -5C14.5523 -5 15 -4.55228 15 -4Z" fill="white"/>
<path d="M15 -12C15 -11.4477 14.5523 -11 14 -11C13.4477 -11 13 -11.4477 13 -12C13 -12.5523 13.4477 -13 14 -13C14.5523 -13 15 -12.5523 15 -12Z" fill="white"/>
<path d="M15 -20C15 -19.4477 14.5523 -19 14 -19C13.4477 -19 13 -19.4477 13 -20C13 -20.5523 13.4477 -21 14 -21C14.5523 -21 15 -20.5523 15 -20Z" fill="white"/>
<path d="M15 -28C15 -27.4477 14.5523 -27 14 -27C13.4477 -27 13 -27.4477 13 -28C13 -28.5523 13.4477 -29 14 -29C14.5523 -29 15 -28.5523 15 -28Z" fill="white"/>
<path d="M15 -36C15 -35.4477 14.5523 -35 14 -35C13.4477 -35 13 -35.4477 13 -36C13 -36.5523 13.4477 -37 14 -37C14.5523 -37 15 -36.5523 15 -36Z" fill="white"/>
<path d="M15 -44C15 -43.4477 14.5523 -43 14 -43C13.4477 -43 13 -43.4477 13 -44C13 -44.5523 13.4477 -45 14 -45C14.5523 -45 15 -44.5523 15 -44Z" fill="white"/>
<path d="M15 -52C15 -51.4477 14.5523 -51 14 -51C13.4477 -51 13 -51.4477 13 -52C13 -52.5523 13.4477 -53 14 -53C14.5523 -53 15 -52.5523 15 -52Z" fill="white"/>
<path d="M-9 20C-9 20.5523 -9.44772 21 -10 21C-10.5523 21 -11 20.5523 -11 20C-11 19.4477 -10.5523 19 -10 19C-9.44772 19 -9 19.4477 -9 20Z" fill="white"/>
<path d="M-9 12C-9 12.5523 -9.44772 13 -10 13C-10.5523 13 -11 12.5523 -11 12C-11 11.4477 -10.5523 11 -10 11C-9.44772 11 -9 11.4477 -9 12Z" fill="white"/>
<path d="M-9 4C-9 4.55228 -9.44772 5 -10 5C-10.5523 5 -11 4.55228 -11 4C-11 3.44772 -10.5523 3 -10 3C-9.44772 3 -9 3.44772 -9 4Z" fill="white"/>
<path d="M-9 -4C-9 -3.44772 -9.44772 -3 -10 -3C-10.5523 -3 -11 -3.44772 -11 -4C-11 -4.55228 -10.5523 -5 -10 -5C-9.44772 -5 -9 -4.55228 -9 -4Z" fill="white"/>
<path d="M-9 -12C-9 -11.4477 -9.44772 -11 -10 -11C-10.5523 -11 -11 -11.4477 -11 -12C-11 -12.5523 -10.5523 -13 -10 -13C-9.44772 -13 -9 -12.5523 -9 -12Z" fill="white"/>
<path d="M-9 -20C-9 -19.4477 -9.44772 -19 -10 -19C-10.5523 -19 -11 -19.4477 -11 -20C-11 -20.5523 -10.5523 -21 -10 -21C-9.44772 -21 -9 -20.5523 -9 -20Z" fill="white"/>
<path d="M-9 -28C-9 -27.4477 -9.44772 -27 -10 -27C-10.5523 -27 -11 -27.4477 -11 -28C-11 -28.5523 -10.5523 -29 -10 -29C-9.44772 -29 -9 -28.5523 -9 -28Z" fill="white"/>
<path d="M-9 -36C-9 -35.4477 -9.44772 -35 -10 -35C-10.5523 -35 -11 -35.4477 -11 -36C-11 -36.5523 -10.5523 -37 -10 -37C-9.44772 -37 -9 -36.5523 -9 -36Z" fill="white"/>
<path d="M-9 -44C-9 -43.4477 -9.44772 -43 -10 -43C-10.5523 -43 -11 -43.4477 -11 -44C-11 -44.5523 -10.5523 -45 -10 -45C-9.44772 -45 -9 -44.5523 -9 -44Z" fill="white"/>
<path d="M-9 -52C-9 -51.4477 -9.44772 -51 -10 -51C-10.5523 -51 -11 -51.4477 -11 -52C-11 -52.5523 -10.5523 -53 -10 -53C-9.44772 -53 -9 -52.5523 -9 -52Z" fill="white"/>
<path d="M-1 20C-1 20.5523 -1.44771 21 -2 21C-2.55229 21 -3 20.5523 -3 20C-3 19.4477 -2.55229 19 -2 19C-1.44771 19 -1 19.4477 -1 20Z" fill="white"/>
<path d="M-1 12C-1 12.5523 -1.44771 13 -2 13C-2.55229 13 -3 12.5523 -3 12C-3 11.4477 -2.55229 11 -2 11C-1.44771 11 -1 11.4477 -1 12Z" fill="white"/>
<path d="M-1 4C-1 4.55228 -1.44771 5 -2 5C-2.55229 5 -3 4.55228 -3 4C-3 3.44772 -2.55229 3 -2 3C-1.44771 3 -1 3.44772 -1 4Z" fill="white"/>
<path d="M-1 -4C-1 -3.44772 -1.44771 -3 -2 -3C-2.55229 -3 -3 -3.44772 -3 -4C-3 -4.55228 -2.55229 -5 -2 -5C-1.44771 -5 -1 -4.55228 -1 -4Z" fill="white"/>
<path d="M-1 -12C-1 -11.4477 -1.44771 -11 -2 -11C-2.55229 -11 -3 -11.4477 -3 -12C-3 -12.5523 -2.55229 -13 -2 -13C-1.44771 -13 -1 -12.5523 -1 -12Z" fill="white"/>
<path d="M-1 -20C-1 -19.4477 -1.44771 -19 -2 -19C-2.55229 -19 -3 -19.4477 -3 -20C-3 -20.5523 -2.55229 -21 -2 -21C-1.44771 -21 -1 -20.5523 -1 -20Z" fill="white"/>
<path d="M-1 -28C-1 -27.4477 -1.44771 -27 -2 -27C-2.55229 -27 -3 -27.4477 -3 -28C-3 -28.5523 -2.55229 -29 -2 -29C-1.44771 -29 -1 -28.5523 -1 -28Z" fill="white"/>
<path d="M-1 -36C-1 -35.4477 -1.44771 -35 -2 -35C-2.55229 -35 -3 -35.4477 -3 -36C-3 -36.5523 -2.55229 -37 -2 -37C-1.44771 -37 -1 -36.5523 -1 -36Z" fill="white"/>
<path d="M-1 -44C-1 -43.4477 -1.44771 -43 -2 -43C-2.55229 -43 -3 -43.4477 -3 -44C-3 -44.5523 -2.55229 -45 -2 -45C-1.44771 -45 -1 -44.5523 -1 -44Z" fill="white"/>
<path d="M-1 -52C-1 -51.4477 -1.44771 -51 -2 -51C-2.55229 -51 -3 -51.4477 -3 -52C-3 -52.5523 -2.55229 -53 -2 -53C-1.44771 -53 -1 -52.5523 -1 -52Z" fill="white"/>
<path d="M71 260C71 260.552 70.5523 261 70 261C69.4477 261 69 260.552 69 260C69 259.448 69.4477 259 70 259C70.5523 259 71 259.448 71 260Z" fill="white"/>
<path d="M71 252C71 252.552 70.5523 253 70 253C69.4477 253 69 252.552 69 252C69 251.448 69.4477 251 70 251C70.5523 251 71 251.448 71 252Z" fill="white"/>
<path d="M71 244C71 244.552 70.5523 245 70 245C69.4477 245 69 244.552 69 244C69 243.448 69.4477 243 70 243C70.5523 243 71 243.448 71 244Z" fill="white"/>
<path d="M71 236C71 236.552 70.5523 237 70 237C69.4477 237 69 236.552 69 236C69 235.448 69.4477 235 70 235C70.5523 235 71 235.448 71 236Z" fill="white"/>
<path d="M71 228C71 228.552 70.5523 229 70 229C69.4477 229 69 228.552 69 228C69 227.448 69.4477 227 70 227C70.5523 227 71 227.448 71 228Z" fill="white"/>
<path d="M71 220C71 220.552 70.5523 221 70 221C69.4477 221 69 220.552 69 220C69 219.448 69.4477 219 70 219C70.5523 219 71 219.448 71 220Z" fill="white"/>
<path d="M71 212C71 212.552 70.5523 213 70 213C69.4477 213 69 212.552 69 212C69 211.448 69.4477 211 70 211C70.5523 211 71 211.448 71 212Z" fill="white"/>
<path d="M71 204C71 204.552 70.5523 205 70 205C69.4477 205 69 204.552 69 204C69 203.448 69.4477 203 70 203C70.5523 203 71 203.448 71 204Z" fill="white"/>
<path d="M71 196C71 196.552 70.5523 197 70 197C69.4477 197 69 196.552 69 196C69 195.448 69.4477 195 70 195C70.5523 195 71 195.448 71 196Z" fill="white"/>
<path d="M71 188C71 188.552 70.5523 189 70 189C69.4477 189 69 188.552 69 188C69 187.448 69.4477 187 70 187C70.5523 187 71 187.448 71 188Z" fill="white"/>
<path d="M79 260C79 260.552 78.5523 261 78 261C77.4477 261 77 260.552 77 260C77 259.448 77.4477 259 78 259C78.5523 259 79 259.448 79 260Z" fill="white"/>
<path d="M79 252C79 252.552 78.5523 253 78 253C77.4477 253 77 252.552 77 252C77 251.448 77.4477 251 78 251C78.5523 251 79 251.448 79 252Z" fill="white"/>
<path d="M79 244C79 244.552 78.5523 245 78 245C77.4477 245 77 244.552 77 244C77 243.448 77.4477 243 78 243C78.5523 243 79 243.448 79 244Z" fill="white"/>
<path d="M79 236C79 236.552 78.5523 237 78 237C77.4477 237 77 236.552 77 236C77 235.448 77.4477 235 78 235C78.5523 235 79 235.448 79 236Z" fill="white"/>
<path d="M79 228C79 228.552 78.5523 229 78 229C77.4477 229 77 228.552 77 228C77 227.448 77.4477 227 78 227C78.5523 227 79 227.448 79 228Z" fill="white"/>
<path d="M79 220C79 220.552 78.5523 221 78 221C77.4477 221 77 220.552 77 220C77 219.448 77.4477 219 78 219C78.5523 219 79 219.448 79 220Z" fill="white"/>
<path d="M79 212C79 212.552 78.5523 213 78 213C77.4477 213 77 212.552 77 212C77 211.448 77.4477 211 78 211C78.5523 211 79 211.448 79 212Z" fill="white"/>
<path d="M79 204C79 204.552 78.5523 205 78 205C77.4477 205 77 204.552 77 204C77 203.448 77.4477 203 78 203C78.5523 203 79 203.448 79 204Z" fill="white"/>
<path d="M79 196C79 196.552 78.5523 197 78 197C77.4477 197 77 196.552 77 196C77 195.448 77.4477 195 78 195C78.5523 195 79 195.448 79 196Z" fill="white"/>
<path d="M79 188C79 188.552 78.5523 189 78 189C77.4477 189 77 188.552 77 188C77 187.448 77.4477 187 78 187C78.5523 187 79 187.448 79 188Z" fill="white"/>
<path d="M55 260C55 260.552 54.5523 261 54 261C53.4477 261 53 260.552 53 260C53 259.448 53.4477 259 54 259C54.5523 259 55 259.448 55 260Z" fill="white"/>
<path d="M55 252C55 252.552 54.5523 253 54 253C53.4477 253 53 252.552 53 252C53 251.448 53.4477 251 54 251C54.5523 251 55 251.448 55 252Z" fill="white"/>
<path d="M55 244C55 244.552 54.5523 245 54 245C53.4477 245 53 244.552 53 244C53 243.448 53.4477 243 54 243C54.5523 243 55 243.448 55 244Z" fill="white"/>
<path d="M55 236C55 236.552 54.5523 237 54 237C53.4477 237 53 236.552 53 236C53 235.448 53.4477 235 54 235C54.5523 235 55 235.448 55 236Z" fill="white"/>
<path d="M55 228C55 228.552 54.5523 229 54 229C53.4477 229 53 228.552 53 228C53 227.448 53.4477 227 54 227C54.5523 227 55 227.448 55 228Z" fill="white"/>
<path d="M55 220C55 220.552 54.5523 221 54 221C53.4477 221 53 220.552 53 220C53 219.448 53.4477 219 54 219C54.5523 219 55 219.448 55 220Z" fill="white"/>
<path d="M55 212C55 212.552 54.5523 213 54 213C53.4477 213 53 212.552 53 212C53 211.448 53.4477 211 54 211C54.5523 211 55 211.448 55 212Z" fill="white"/>
<path d="M55 204C55 204.552 54.5523 205 54 205C53.4477 205 53 204.552 53 204C53 203.448 53.4477 203 54 203C54.5523 203 55 203.448 55 204Z" fill="white"/>
<path d="M55 196C55 196.552 54.5523 197 54 197C53.4477 197 53 196.552 53 196C53 195.448 53.4477 195 54 195C54.5523 195 55 195.448 55 196Z" fill="white"/>
<path d="M55 188C55 188.552 54.5523 189 54 189C53.4477 189 53 188.552 53 188C53 187.448 53.4477 187 54 187C54.5523 187 55 187.448 55 188Z" fill="white"/>
<path d="M63 260C63 260.552 62.5523 261 62 261C61.4477 261 61 260.552 61 260C61 259.448 61.4477 259 62 259C62.5523 259 63 259.448 63 260Z" fill="white"/>
<path d="M63 252C63 252.552 62.5523 253 62 253C61.4477 253 61 252.552 61 252C61 251.448 61.4477 251 62 251C62.5523 251 63 251.448 63 252Z" fill="white"/>
<path d="M63 244C63 244.552 62.5523 245 62 245C61.4477 245 61 244.552 61 244C61 243.448 61.4477 243 62 243C62.5523 243 63 243.448 63 244Z" fill="white"/>
<path d="M63 236C63 236.552 62.5523 237 62 237C61.4477 237 61 236.552 61 236C61 235.448 61.4477 235 62 235C62.5523 235 63 235.448 63 236Z" fill="white"/>
<path d="M63 228C63 228.552 62.5523 229 62 229C61.4477 229 61 228.552 61 228C61 227.448 61.4477 227 62 227C62.5523 227 63 227.448 63 228Z" fill="white"/>
<path d="M63 220C63 220.552 62.5523 221 62 221C61.4477 221 61 220.552 61 220C61 219.448 61.4477 219 62 219C62.5523 219 63 219.448 63 220Z" fill="white"/>
<path d="M63 212C63 212.552 62.5523 213 62 213C61.4477 213 61 212.552 61 212C61 211.448 61.4477 211 62 211C62.5523 211 63 211.448 63 212Z" fill="white"/>
<path d="M63 204C63 204.552 62.5523 205 62 205C61.4477 205 61 204.552 61 204C61 203.448 61.4477 203 62 203C62.5523 203 63 203.448 63 204Z" fill="white"/>
<path d="M63 196C63 196.552 62.5523 197 62 197C61.4477 197 61 196.552 61 196C61 195.448 61.4477 195 62 195C62.5523 195 63 195.448 63 196Z" fill="white"/>
<path d="M63 188C63 188.552 62.5523 189 62 189C61.4477 189 61 188.552 61 188C61 187.448 61.4477 187 62 187C62.5523 187 63 187.448 63 188Z" fill="white"/>
<path d="M39 260C39 260.552 38.5523 261 38 261C37.4477 261 37 260.552 37 260C37 259.448 37.4477 259 38 259C38.5523 259 39 259.448 39 260Z" fill="white"/>
<path d="M39 252C39 252.552 38.5523 253 38 253C37.4477 253 37 252.552 37 252C37 251.448 37.4477 251 38 251C38.5523 251 39 251.448 39 252Z" fill="white"/>
<path d="M39 244C39 244.552 38.5523 245 38 245C37.4477 245 37 244.552 37 244C37 243.448 37.4477 243 38 243C38.5523 243 39 243.448 39 244Z" fill="white"/>
<path d="M39 236C39 236.552 38.5523 237 38 237C37.4477 237 37 236.552 37 236C37 235.448 37.4477 235 38 235C38.5523 235 39 235.448 39 236Z" fill="white"/>
<path d="M39 228C39 228.552 38.5523 229 38 229C37.4477 229 37 228.552 37 228C37 227.448 37.4477 227 38 227C38.5523 227 39 227.448 39 228Z" fill="white"/>
<path d="M39 220C39 220.552 38.5523 221 38 221C37.4477 221 37 220.552 37 220C37 219.448 37.4477 219 38 219C38.5523 219 39 219.448 39 220Z" fill="white"/>
<path d="M39 212C39 212.552 38.5523 213 38 213C37.4477 213 37 212.552 37 212C37 211.448 37.4477 211 38 211C38.5523 211 39 211.448 39 212Z" fill="white"/>
<path d="M39 204C39 204.552 38.5523 205 38 205C37.4477 205 37 204.552 37 204C37 203.448 37.4477 203 38 203C38.5523 203 39 203.448 39 204Z" fill="white"/>
<path d="M39 196C39 196.552 38.5523 197 38 197C37.4477 197 37 196.552 37 196C37 195.448 37.4477 195 38 195C38.5523 195 39 195.448 39 196Z" fill="white"/>
<path d="M39 188C39 188.552 38.5523 189 38 189C37.4477 189 37 188.552 37 188C37 187.448 37.4477 187 38 187C38.5523 187 39 187.448 39 188Z" fill="white"/>
<path d="M47 260C47 260.552 46.5523 261 46 261C45.4477 261 45 260.552 45 260C45 259.448 45.4477 259 46 259C46.5523 259 47 259.448 47 260Z" fill="white"/>
<path d="M47 252C47 252.552 46.5523 253 46 253C45.4477 253 45 252.552 45 252C45 251.448 45.4477 251 46 251C46.5523 251 47 251.448 47 252Z" fill="white"/>
<path d="M47 244C47 244.552 46.5523 245 46 245C45.4477 245 45 244.552 45 244C45 243.448 45.4477 243 46 243C46.5523 243 47 243.448 47 244Z" fill="white"/>
<path d="M47 236C47 236.552 46.5523 237 46 237C45.4477 237 45 236.552 45 236C45 235.448 45.4477 235 46 235C46.5523 235 47 235.448 47 236Z" fill="white"/>
<path d="M47 228C47 228.552 46.5523 229 46 229C45.4477 229 45 228.552 45 228C45 227.448 45.4477 227 46 227C46.5523 227 47 227.448 47 228Z" fill="white"/>
<path d="M47 220C47 220.552 46.5523 221 46 221C45.4477 221 45 220.552 45 220C45 219.448 45.4477 219 46 219C46.5523 219 47 219.448 47 220Z" fill="white"/>
<path d="M47 212C47 212.552 46.5523 213 46 213C45.4477 213 45 212.552 45 212C45 211.448 45.4477 211 46 211C46.5523 211 47 211.448 47 212Z" fill="white"/>
<path d="M47 204C47 204.552 46.5523 205 46 205C45.4477 205 45 204.552 45 204C45 203.448 45.4477 203 46 203C46.5523 203 47 203.448 47 204Z" fill="white"/>
<path d="M47 196C47 196.552 46.5523 197 46 197C45.4477 197 45 196.552 45 196C45 195.448 45.4477 195 46 195C46.5523 195 47 195.448 47 196Z" fill="white"/>
<path d="M47 188C47 188.552 46.5523 189 46 189C45.4477 189 45 188.552 45 188C45 187.448 45.4477 187 46 187C46.5523 187 47 187.448 47 188Z" fill="white"/>
<path d="M23 260C23 260.552 22.5523 261 22 261C21.4477 261 21 260.552 21 260C21 259.448 21.4477 259 22 259C22.5523 259 23 259.448 23 260Z" fill="white"/>
<path d="M23 252C23 252.552 22.5523 253 22 253C21.4477 253 21 252.552 21 252C21 251.448 21.4477 251 22 251C22.5523 251 23 251.448 23 252Z" fill="white"/>
<path d="M23 244C23 244.552 22.5523 245 22 245C21.4477 245 21 244.552 21 244C21 243.448 21.4477 243 22 243C22.5523 243 23 243.448 23 244Z" fill="white"/>
<path d="M23 236C23 236.552 22.5523 237 22 237C21.4477 237 21 236.552 21 236C21 235.448 21.4477 235 22 235C22.5523 235 23 235.448 23 236Z" fill="white"/>
<path d="M23 228C23 228.552 22.5523 229 22 229C21.4477 229 21 228.552 21 228C21 227.448 21.4477 227 22 227C22.5523 227 23 227.448 23 228Z" fill="white"/>
<path d="M23 220C23 220.552 22.5523 221 22 221C21.4477 221 21 220.552 21 220C21 219.448 21.4477 219 22 219C22.5523 219 23 219.448 23 220Z" fill="white"/>
<path d="M23 212C23 212.552 22.5523 213 22 213C21.4477 213 21 212.552 21 212C21 211.448 21.4477 211 22 211C22.5523 211 23 211.448 23 212Z" fill="white"/>
<path d="M23 204C23 204.552 22.5523 205 22 205C21.4477 205 21 204.552 21 204C21 203.448 21.4477 203 22 203C22.5523 203 23 203.448 23 204Z" fill="white"/>
<path d="M23 196C23 196.552 22.5523 197 22 197C21.4477 197 21 196.552 21 196C21 195.448 21.4477 195 22 195C22.5523 195 23 195.448 23 196Z" fill="white"/>
<path d="M23 188C23 188.552 22.5523 189 22 189C21.4477 189 21 188.552 21 188C21 187.448 21.4477 187 22 187C22.5523 187 23 187.448 23 188Z" fill="white"/>
<path d="M31 260C31 260.552 30.5523 261 30 261C29.4477 261 29 260.552 29 260C29 259.448 29.4477 259 30 259C30.5523 259 31 259.448 31 260Z" fill="white"/>
<path d="M31 252C31 252.552 30.5523 253 30 253C29.4477 253 29 252.552 29 252C29 251.448 29.4477 251 30 251C30.5523 251 31 251.448 31 252Z" fill="white"/>
<path d="M31 244C31 244.552 30.5523 245 30 245C29.4477 245 29 244.552 29 244C29 243.448 29.4477 243 30 243C30.5523 243 31 243.448 31 244Z" fill="white"/>
<path d="M31 236C31 236.552 30.5523 237 30 237C29.4477 237 29 236.552 29 236C29 235.448 29.4477 235 30 235C30.5523 235 31 235.448 31 236Z" fill="white"/>
<path d="M31 228C31 228.552 30.5523 229 30 229C29.4477 229 29 228.552 29 228C29 227.448 29.4477 227 30 227C30.5523 227 31 227.448 31 228Z" fill="white"/>
<path d="M31 220C31 220.552 30.5523 221 30 221C29.4477 221 29 220.552 29 220C29 219.448 29.4477 219 30 219C30.5523 219 31 219.448 31 220Z" fill="white"/>
<path d="M31 212C31 212.552 30.5523 213 30 213C29.4477 213 29 212.552 29 212C29 211.448 29.4477 211 30 211C30.5523 211 31 211.448 31 212Z" fill="white"/>
<path d="M31 204C31 204.552 30.5523 205 30 205C29.4477 205 29 204.552 29 204C29 203.448 29.4477 203 30 203C30.5523 203 31 203.448 31 204Z" fill="white"/>
<path d="M31 196C31 196.552 30.5523 197 30 197C29.4477 197 29 196.552 29 196C29 195.448 29.4477 195 30 195C30.5523 195 31 195.448 31 196Z" fill="white"/>
<path d="M31 188C31 188.552 30.5523 189 30 189C29.4477 189 29 188.552 29 188C29 187.448 29.4477 187 30 187C30.5523 187 31 187.448 31 188Z" fill="white"/>
<path d="M7 260C7 260.552 6.55228 261 6 261C5.44772 261 5 260.552 5 260C5 259.448 5.44772 259 6 259C6.55228 259 7 259.448 7 260Z" fill="white"/>
<path d="M7 252C7 252.552 6.55228 253 6 253C5.44772 253 5 252.552 5 252C5 251.448 5.44772 251 6 251C6.55228 251 7 251.448 7 252Z" fill="white"/>
<path d="M7 244C7 244.552 6.55228 245 6 245C5.44772 245 5 244.552 5 244C5 243.448 5.44772 243 6 243C6.55228 243 7 243.448 7 244Z" fill="white"/>
<path d="M7 236C7 236.552 6.55228 237 6 237C5.44772 237 5 236.552 5 236C5 235.448 5.44772 235 6 235C6.55228 235 7 235.448 7 236Z" fill="white"/>
<path d="M7 228C7 228.552 6.55228 229 6 229C5.44772 229 5 228.552 5 228C5 227.448 5.44772 227 6 227C6.55228 227 7 227.448 7 228Z" fill="white"/>
<path d="M7 220C7 220.552 6.55228 221 6 221C5.44772 221 5 220.552 5 220C5 219.448 5.44772 219 6 219C6.55228 219 7 219.448 7 220Z" fill="white"/>
<path d="M7 212C7 212.552 6.55228 213 6 213C5.44772 213 5 212.552 5 212C5 211.448 5.44772 211 6 211C6.55228 211 7 211.448 7 212Z" fill="white"/>
<path d="M7 204C7 204.552 6.55228 205 6 205C5.44772 205 5 204.552 5 204C5 203.448 5.44772 203 6 203C6.55228 203 7 203.448 7 204Z" fill="white"/>
<path d="M7 196C7 196.552 6.55228 197 6 197C5.44772 197 5 196.552 5 196C5 195.448 5.44772 195 6 195C6.55228 195 7 195.448 7 196Z" fill="white"/>
<path d="M7 188C7 188.552 6.55228 189 6 189C5.44772 189 5 188.552 5 188C5 187.448 5.44772 187 6 187C6.55228 187 7 187.448 7 188Z" fill="white"/>
<path d="M15 260C15 260.552 14.5523 261 14 261C13.4477 261 13 260.552 13 260C13 259.448 13.4477 259 14 259C14.5523 259 15 259.448 15 260Z" fill="white"/>
<path d="M15 252C15 252.552 14.5523 253 14 253C13.4477 253 13 252.552 13 252C13 251.448 13.4477 251 14 251C14.5523 251 15 251.448 15 252Z" fill="white"/>
<path d="M15 244C15 244.552 14.5523 245 14 245C13.4477 245 13 244.552 13 244C13 243.448 13.4477 243 14 243C14.5523 243 15 243.448 15 244Z" fill="white"/>
<path d="M15 236C15 236.552 14.5523 237 14 237C13.4477 237 13 236.552 13 236C13 235.448 13.4477 235 14 235C14.5523 235 15 235.448 15 236Z" fill="white"/>
<path d="M15 228C15 228.552 14.5523 229 14 229C13.4477 229 13 228.552 13 228C13 227.448 13.4477 227 14 227C14.5523 227 15 227.448 15 228Z" fill="white"/>
<path d="M15 220C15 220.552 14.5523 221 14 221C13.4477 221 13 220.552 13 220C13 219.448 13.4477 219 14 219C14.5523 219 15 219.448 15 220Z" fill="white"/>
<path d="M15 212C15 212.552 14.5523 213 14 213C13.4477 213 13 212.552 13 212C13 211.448 13.4477 211 14 211C14.5523 211 15 211.448 15 212Z" fill="white"/>
<path d="M15 204C15 204.552 14.5523 205 14 205C13.4477 205 13 204.552 13 204C13 203.448 13.4477 203 14 203C14.5523 203 15 203.448 15 204Z" fill="white"/>
<path d="M15 196C15 196.552 14.5523 197 14 197C13.4477 197 13 196.552 13 196C13 195.448 13.4477 195 14 195C14.5523 195 15 195.448 15 196Z" fill="white"/>
<path d="M15 188C15 188.552 14.5523 189 14 189C13.4477 189 13 188.552 13 188C13 187.448 13.4477 187 14 187C14.5523 187 15 187.448 15 188Z" fill="white"/>
<path d="M-9 260C-9 260.552 -9.44772 261 -10 261C-10.5523 261 -11 260.552 -11 260C-11 259.448 -10.5523 259 -10 259C-9.44772 259 -9 259.448 -9 260Z" fill="white"/>
<path d="M-9 252C-9 252.552 -9.44772 253 -10 253C-10.5523 253 -11 252.552 -11 252C-11 251.448 -10.5523 251 -10 251C-9.44772 251 -9 251.448 -9 252Z" fill="white"/>
<path d="M-9 244C-9 244.552 -9.44772 245 -10 245C-10.5523 245 -11 244.552 -11 244C-11 243.448 -10.5523 243 -10 243C-9.44772 243 -9 243.448 -9 244Z" fill="white"/>
<path d="M-9 236C-9 236.552 -9.44772 237 -10 237C-10.5523 237 -11 236.552 -11 236C-11 235.448 -10.5523 235 -10 235C-9.44772 235 -9 235.448 -9 236Z" fill="white"/>
<path d="M-9 228C-9 228.552 -9.44772 229 -10 229C-10.5523 229 -11 228.552 -11 228C-11 227.448 -10.5523 227 -10 227C-9.44772 227 -9 227.448 -9 228Z" fill="white"/>
<path d="M-9 220C-9 220.552 -9.44772 221 -10 221C-10.5523 221 -11 220.552 -11 220C-11 219.448 -10.5523 219 -10 219C-9.44772 219 -9 219.448 -9 220Z" fill="white"/>
<path d="M-9 212C-9 212.552 -9.44772 213 -10 213C-10.5523 213 -11 212.552 -11 212C-11 211.448 -10.5523 211 -10 211C-9.44772 211 -9 211.448 -9 212Z" fill="white"/>
<path d="M-9 204C-9 204.552 -9.44772 205 -10 205C-10.5523 205 -11 204.552 -11 204C-11 203.448 -10.5523 203 -10 203C-9.44772 203 -9 203.448 -9 204Z" fill="white"/>
<path d="M-9 196C-9 196.552 -9.44772 197 -10 197C-10.5523 197 -11 196.552 -11 196C-11 195.448 -10.5523 195 -10 195C-9.44772 195 -9 195.448 -9 196Z" fill="white"/>
<path d="M-9 188C-9 188.552 -9.44772 189 -10 189C-10.5523 189 -11 188.552 -11 188C-11 187.448 -10.5523 187 -10 187C-9.44772 187 -9 187.448 -9 188Z" fill="white"/>
<path d="M-1 260C-1 260.552 -1.44771 261 -2 261C-2.55229 261 -3 260.552 -3 260C-3 259.448 -2.55229 259 -2 259C-1.44771 259 -1 259.448 -1 260Z" fill="white"/>
<path d="M-1 252C-1 252.552 -1.44771 253 -2 253C-2.55229 253 -3 252.552 -3 252C-3 251.448 -2.55229 251 -2 251C-1.44771 251 -1 251.448 -1 252Z" fill="white"/>
<path d="M-1 244C-1 244.552 -1.44771 245 -2 245C-2.55229 245 -3 244.552 -3 244C-3 243.448 -2.55229 243 -2 243C-1.44771 243 -1 243.448 -1 244Z" fill="white"/>
<path d="M-1 236C-1 236.552 -1.44771 237 -2 237C-2.55229 237 -3 236.552 -3 236C-3 235.448 -2.55229 235 -2 235C-1.44771 235 -1 235.448 -1 236Z" fill="white"/>
<path d="M-1 228C-1 228.552 -1.44771 229 -2 229C-2.55229 229 -3 228.552 -3 228C-3 227.448 -2.55229 227 -2 227C-1.44771 227 -1 227.448 -1 228Z" fill="white"/>
<path d="M-1 220C-1 220.552 -1.44771 221 -2 221C-2.55229 221 -3 220.552 -3 220C-3 219.448 -2.55229 219 -2 219C-1.44771 219 -1 219.448 -1 220Z" fill="white"/>
<path d="M-1 212C-1 212.552 -1.44771 213 -2 213C-2.55229 213 -3 212.552 -3 212C-3 211.448 -2.55229 211 -2 211C-1.44771 211 -1 211.448 -1 212Z" fill="white"/>
<path d="M-1 204C-1 204.552 -1.44771 205 -2 205C-2.55229 205 -3 204.552 -3 204C-3 203.448 -2.55229 203 -2 203C-1.44771 203 -1 203.448 -1 204Z" fill="white"/>
<path d="M-1 196C-1 196.552 -1.44771 197 -2 197C-2.55229 197 -3 196.552 -3 196C-3 195.448 -2.55229 195 -2 195C-1.44771 195 -1 195.448 -1 196Z" fill="white"/>
<path d="M-1 188C-1 188.552 -1.44771 189 -2 189C-2.55229 189 -3 188.552 -3 188C-3 187.448 -2.55229 187 -2 187C-1.44771 187 -1 187.448 -1 188Z" fill="white"/>
<path d="M71 180C71 180.552 70.5523 181 70 181C69.4477 181 69 180.552 69 180C69 179.448 69.4477 179 70 179C70.5523 179 71 179.448 71 180Z" fill="white"/>
<path d="M71 172C71 172.552 70.5523 173 70 173C69.4477 173 69 172.552 69 172C69 171.448 69.4477 171 70 171C70.5523 171 71 171.448 71 172Z" fill="white"/>
<path d="M71 164C71 164.552 70.5523 165 70 165C69.4477 165 69 164.552 69 164C69 163.448 69.4477 163 70 163C70.5523 163 71 163.448 71 164Z" fill="white"/>
<path d="M71 156C71 156.552 70.5523 157 70 157C69.4477 157 69 156.552 69 156C69 155.448 69.4477 155 70 155C70.5523 155 71 155.448 71 156Z" fill="white"/>
<path d="M71 148C71 148.552 70.5523 149 70 149C69.4477 149 69 148.552 69 148C69 147.448 69.4477 147 70 147C70.5523 147 71 147.448 71 148Z" fill="white"/>
<path d="M71 140C71 140.552 70.5523 141 70 141C69.4477 141 69 140.552 69 140C69 139.448 69.4477 139 70 139C70.5523 139 71 139.448 71 140Z" fill="white"/>
<path d="M71 132C71 132.552 70.5523 133 70 133C69.4477 133 69 132.552 69 132C69 131.448 69.4477 131 70 131C70.5523 131 71 131.448 71 132Z" fill="white"/>
<path d="M71 124C71 124.552 70.5523 125 70 125C69.4477 125 69 124.552 69 124C69 123.448 69.4477 123 70 123C70.5523 123 71 123.448 71 124Z" fill="white"/>
<path d="M71 116C71 116.552 70.5523 117 70 117C69.4477 117 69 116.552 69 116C69 115.448 69.4477 115 70 115C70.5523 115 71 115.448 71 116Z" fill="white"/>
<path d="M71 108C71 108.552 70.5523 109 70 109C69.4477 109 69 108.552 69 108C69 107.448 69.4477 107 70 107C70.5523 107 71 107.448 71 108Z" fill="white"/>
<path d="M79 180C79 180.552 78.5523 181 78 181C77.4477 181 77 180.552 77 180C77 179.448 77.4477 179 78 179C78.5523 179 79 179.448 79 180Z" fill="white"/>
<path d="M79 172C79 172.552 78.5523 173 78 173C77.4477 173 77 172.552 77 172C77 171.448 77.4477 171 78 171C78.5523 171 79 171.448 79 172Z" fill="white"/>
<path d="M79 164C79 164.552 78.5523 165 78 165C77.4477 165 77 164.552 77 164C77 163.448 77.4477 163 78 163C78.5523 163 79 163.448 79 164Z" fill="white"/>
<path d="M79 156C79 156.552 78.5523 157 78 157C77.4477 157 77 156.552 77 156C77 155.448 77.4477 155 78 155C78.5523 155 79 155.448 79 156Z" fill="white"/>
<path d="M79 148C79 148.552 78.5523 149 78 149C77.4477 149 77 148.552 77 148C77 147.448 77.4477 147 78 147C78.5523 147 79 147.448 79 148Z" fill="white"/>
<path d="M79 140C79 140.552 78.5523 141 78 141C77.4477 141 77 140.552 77 140C77 139.448 77.4477 139 78 139C78.5523 139 79 139.448 79 140Z" fill="white"/>
<path d="M79 132C79 132.552 78.5523 133 78 133C77.4477 133 77 132.552 77 132C77 131.448 77.4477 131 78 131C78.5523 131 79 131.448 79 132Z" fill="white"/>
<path d="M79 124C79 124.552 78.5523 125 78 125C77.4477 125 77 124.552 77 124C77 123.448 77.4477 123 78 123C78.5523 123 79 123.448 79 124Z" fill="white"/>
<path d="M79 116C79 116.552 78.5523 117 78 117C77.4477 117 77 116.552 77 116C77 115.448 77.4477 115 78 115C78.5523 115 79 115.448 79 116Z" fill="white"/>
<path d="M79 108C79 108.552 78.5523 109 78 109C77.4477 109 77 108.552 77 108C77 107.448 77.4477 107 78 107C78.5523 107 79 107.448 79 108Z" fill="white"/>
<path d="M55 180C55 180.552 54.5523 181 54 181C53.4477 181 53 180.552 53 180C53 179.448 53.4477 179 54 179C54.5523 179 55 179.448 55 180Z" fill="white"/>
<path d="M55 172C55 172.552 54.5523 173 54 173C53.4477 173 53 172.552 53 172C53 171.448 53.4477 171 54 171C54.5523 171 55 171.448 55 172Z" fill="white"/>
<path d="M55 164C55 164.552 54.5523 165 54 165C53.4477 165 53 164.552 53 164C53 163.448 53.4477 163 54 163C54.5523 163 55 163.448 55 164Z" fill="white"/>
<path d="M55 156C55 156.552 54.5523 157 54 157C53.4477 157 53 156.552 53 156C53 155.448 53.4477 155 54 155C54.5523 155 55 155.448 55 156Z" fill="white"/>
<path d="M55 148C55 148.552 54.5523 149 54 149C53.4477 149 53 148.552 53 148C53 147.448 53.4477 147 54 147C54.5523 147 55 147.448 55 148Z" fill="white"/>
<path d="M55 140C55 140.552 54.5523 141 54 141C53.4477 141 53 140.552 53 140C53 139.448 53.4477 139 54 139C54.5523 139 55 139.448 55 140Z" fill="white"/>
<path d="M55 132C55 132.552 54.5523 133 54 133C53.4477 133 53 132.552 53 132C53 131.448 53.4477 131 54 131C54.5523 131 55 131.448 55 132Z" fill="white"/>
<path d="M55 124C55 124.552 54.5523 125 54 125C53.4477 125 53 124.552 53 124C53 123.448 53.4477 123 54 123C54.5523 123 55 123.448 55 124Z" fill="white"/>
<path d="M55 116C55 116.552 54.5523 117 54 117C53.4477 117 53 116.552 53 116C53 115.448 53.4477 115 54 115C54.5523 115 55 115.448 55 116Z" fill="white"/>
<path d="M55 108C55 108.552 54.5523 109 54 109C53.4477 109 53 108.552 53 108C53 107.448 53.4477 107 54 107C54.5523 107 55 107.448 55 108Z" fill="white"/>
<path d="M63 180C63 180.552 62.5523 181 62 181C61.4477 181 61 180.552 61 180C61 179.448 61.4477 179 62 179C62.5523 179 63 179.448 63 180Z" fill="white"/>
<path d="M63 172C63 172.552 62.5523 173 62 173C61.4477 173 61 172.552 61 172C61 171.448 61.4477 171 62 171C62.5523 171 63 171.448 63 172Z" fill="white"/>
<path d="M63 164C63 164.552 62.5523 165 62 165C61.4477 165 61 164.552 61 164C61 163.448 61.4477 163 62 163C62.5523 163 63 163.448 63 164Z" fill="white"/>
<path d="M63 156C63 156.552 62.5523 157 62 157C61.4477 157 61 156.552 61 156C61 155.448 61.4477 155 62 155C62.5523 155 63 155.448 63 156Z" fill="white"/>
<path d="M63 148C63 148.552 62.5523 149 62 149C61.4477 149 61 148.552 61 148C61 147.448 61.4477 147 62 147C62.5523 147 63 147.448 63 148Z" fill="white"/>
<path d="M63 140C63 140.552 62.5523 141 62 141C61.4477 141 61 140.552 61 140C61 139.448 61.4477 139 62 139C62.5523 139 63 139.448 63 140Z" fill="white"/>
<path d="M63 132C63 132.552 62.5523 133 62 133C61.4477 133 61 132.552 61 132C61 131.448 61.4477 131 62 131C62.5523 131 63 131.448 63 132Z" fill="white"/>
<path d="M63 124C63 124.552 62.5523 125 62 125C61.4477 125 61 124.552 61 124C61 123.448 61.4477 123 62 123C62.5523 123 63 123.448 63 124Z" fill="white"/>
<path d="M63 116C63 116.552 62.5523 117 62 117C61.4477 117 61 116.552 61 116C61 115.448 61.4477 115 62 115C62.5523 115 63 115.448 63 116Z" fill="white"/>
<path d="M63 108C63 108.552 62.5523 109 62 109C61.4477 109 61 108.552 61 108C61 107.448 61.4477 107 62 107C62.5523 107 63 107.448 63 108Z" fill="white"/>
<path d="M39 180C39 180.552 38.5523 181 38 181C37.4477 181 37 180.552 37 180C37 179.448 37.4477 179 38 179C38.5523 179 39 179.448 39 180Z" fill="white"/>
<path d="M39 172C39 172.552 38.5523 173 38 173C37.4477 173 37 172.552 37 172C37 171.448 37.4477 171 38 171C38.5523 171 39 171.448 39 172Z" fill="white"/>
<path d="M39 164C39 164.552 38.5523 165 38 165C37.4477 165 37 164.552 37 164C37 163.448 37.4477 163 38 163C38.5523 163 39 163.448 39 164Z" fill="white"/>
<path d="M39 156C39 156.552 38.5523 157 38 157C37.4477 157 37 156.552 37 156C37 155.448 37.4477 155 38 155C38.5523 155 39 155.448 39 156Z" fill="white"/>
<path d="M39 148C39 148.552 38.5523 149 38 149C37.4477 149 37 148.552 37 148C37 147.448 37.4477 147 38 147C38.5523 147 39 147.448 39 148Z" fill="white"/>
<path d="M39 140C39 140.552 38.5523 141 38 141C37.4477 141 37 140.552 37 140C37 139.448 37.4477 139 38 139C38.5523 139 39 139.448 39 140Z" fill="white"/>
<path d="M39 132C39 132.552 38.5523 133 38 133C37.4477 133 37 132.552 37 132C37 131.448 37.4477 131 38 131C38.5523 131 39 131.448 39 132Z" fill="white"/>
<path d="M39 124C39 124.552 38.5523 125 38 125C37.4477 125 37 124.552 37 124C37 123.448 37.4477 123 38 123C38.5523 123 39 123.448 39 124Z" fill="white"/>
<path d="M39 116C39 116.552 38.5523 117 38 117C37.4477 117 37 116.552 37 116C37 115.448 37.4477 115 38 115C38.5523 115 39 115.448 39 116Z" fill="white"/>
<path d="M39 108C39 108.552 38.5523 109 38 109C37.4477 109 37 108.552 37 108C37 107.448 37.4477 107 38 107C38.5523 107 39 107.448 39 108Z" fill="white"/>
<path d="M47 180C47 180.552 46.5523 181 46 181C45.4477 181 45 180.552 45 180C45 179.448 45.4477 179 46 179C46.5523 179 47 179.448 47 180Z" fill="white"/>
<path d="M47 172C47 172.552 46.5523 173 46 173C45.4477 173 45 172.552 45 172C45 171.448 45.4477 171 46 171C46.5523 171 47 171.448 47 172Z" fill="white"/>
<path d="M47 164C47 164.552 46.5523 165 46 165C45.4477 165 45 164.552 45 164C45 163.448 45.4477 163 46 163C46.5523 163 47 163.448 47 164Z" fill="white"/>
<path d="M47 156C47 156.552 46.5523 157 46 157C45.4477 157 45 156.552 45 156C45 155.448 45.4477 155 46 155C46.5523 155 47 155.448 47 156Z" fill="white"/>
<path d="M47 148C47 148.552 46.5523 149 46 149C45.4477 149 45 148.552 45 148C45 147.448 45.4477 147 46 147C46.5523 147 47 147.448 47 148Z" fill="white"/>
<path d="M47 140C47 140.552 46.5523 141 46 141C45.4477 141 45 140.552 45 140C45 139.448 45.4477 139 46 139C46.5523 139 47 139.448 47 140Z" fill="white"/>
<path d="M47 132C47 132.552 46.5523 133 46 133C45.4477 133 45 132.552 45 132C45 131.448 45.4477 131 46 131C46.5523 131 47 131.448 47 132Z" fill="white"/>
<path d="M47 124C47 124.552 46.5523 125 46 125C45.4477 125 45 124.552 45 124C45 123.448 45.4477 123 46 123C46.5523 123 47 123.448 47 124Z" fill="white"/>
<path d="M47 116C47 116.552 46.5523 117 46 117C45.4477 117 45 116.552 45 116C45 115.448 45.4477 115 46 115C46.5523 115 47 115.448 47 116Z" fill="white"/>
<path d="M47 108C47 108.552 46.5523 109 46 109C45.4477 109 45 108.552 45 108C45 107.448 45.4477 107 46 107C46.5523 107 47 107.448 47 108Z" fill="white"/>
<path d="M23 180C23 180.552 22.5523 181 22 181C21.4477 181 21 180.552 21 180C21 179.448 21.4477 179 22 179C22.5523 179 23 179.448 23 180Z" fill="white"/>
<path d="M23 172C23 172.552 22.5523 173 22 173C21.4477 173 21 172.552 21 172C21 171.448 21.4477 171 22 171C22.5523 171 23 171.448 23 172Z" fill="white"/>
<path d="M23 164C23 164.552 22.5523 165 22 165C21.4477 165 21 164.552 21 164C21 163.448 21.4477 163 22 163C22.5523 163 23 163.448 23 164Z" fill="white"/>
<path d="M23 156C23 156.552 22.5523 157 22 157C21.4477 157 21 156.552 21 156C21 155.448 21.4477 155 22 155C22.5523 155 23 155.448 23 156Z" fill="white"/>
<path d="M23 148C23 148.552 22.5523 149 22 149C21.4477 149 21 148.552 21 148C21 147.448 21.4477 147 22 147C22.5523 147 23 147.448 23 148Z" fill="white"/>
<path d="M23 140C23 140.552 22.5523 141 22 141C21.4477 141 21 140.552 21 140C21 139.448 21.4477 139 22 139C22.5523 139 23 139.448 23 140Z" fill="white"/>
<path d="M23 132C23 132.552 22.5523 133 22 133C21.4477 133 21 132.552 21 132C21 131.448 21.4477 131 22 131C22.5523 131 23 131.448 23 132Z" fill="white"/>
<path d="M23 124C23 124.552 22.5523 125 22 125C21.4477 125 21 124.552 21 124C21 123.448 21.4477 123 22 123C22.5523 123 23 123.448 23 124Z" fill="white"/>
<path d="M23 116C23 116.552 22.5523 117 22 117C21.4477 117 21 116.552 21 116C21 115.448 21.4477 115 22 115C22.5523 115 23 115.448 23 116Z" fill="white"/>
<path d="M23 108C23 108.552 22.5523 109 22 109C21.4477 109 21 108.552 21 108C21 107.448 21.4477 107 22 107C22.5523 107 23 107.448 23 108Z" fill="white"/>
<path d="M31 180C31 180.552 30.5523 181 30 181C29.4477 181 29 180.552 29 180C29 179.448 29.4477 179 30 179C30.5523 179 31 179.448 31 180Z" fill="white"/>
<path d="M31 172C31 172.552 30.5523 173 30 173C29.4477 173 29 172.552 29 172C29 171.448 29.4477 171 30 171C30.5523 171 31 171.448 31 172Z" fill="white"/>
<path d="M31 164C31 164.552 30.5523 165 30 165C29.4477 165 29 164.552 29 164C29 163.448 29.4477 163 30 163C30.5523 163 31 163.448 31 164Z" fill="white"/>
<path d="M31 156C31 156.552 30.5523 157 30 157C29.4477 157 29 156.552 29 156C29 155.448 29.4477 155 30 155C30.5523 155 31 155.448 31 156Z" fill="white"/>
<path d="M31 148C31 148.552 30.5523 149 30 149C29.4477 149 29 148.552 29 148C29 147.448 29.4477 147 30 147C30.5523 147 31 147.448 31 148Z" fill="white"/>
<path d="M31 140C31 140.552 30.5523 141 30 141C29.4477 141 29 140.552 29 140C29 139.448 29.4477 139 30 139C30.5523 139 31 139.448 31 140Z" fill="white"/>
<path d="M31 132C31 132.552 30.5523 133 30 133C29.4477 133 29 132.552 29 132C29 131.448 29.4477 131 30 131C30.5523 131 31 131.448 31 132Z" fill="white"/>
<path d="M31 124C31 124.552 30.5523 125 30 125C29.4477 125 29 124.552 29 124C29 123.448 29.4477 123 30 123C30.5523 123 31 123.448 31 124Z" fill="white"/>
<path d="M31 116C31 116.552 30.5523 117 30 117C29.4477 117 29 116.552 29 116C29 115.448 29.4477 115 30 115C30.5523 115 31 115.448 31 116Z" fill="white"/>
<path d="M31 108C31 108.552 30.5523 109 30 109C29.4477 109 29 108.552 29 108C29 107.448 29.4477 107 30 107C30.5523 107 31 107.448 31 108Z" fill="white"/>
<path d="M7 180C7 180.552 6.55228 181 6 181C5.44772 181 5 180.552 5 180C5 179.448 5.44772 179 6 179C6.55228 179 7 179.448 7 180Z" fill="white"/>
<path d="M7 172C7 172.552 6.55228 173 6 173C5.44772 173 5 172.552 5 172C5 171.448 5.44772 171 6 171C6.55228 171 7 171.448 7 172Z" fill="white"/>
<path d="M7 164C7 164.552 6.55228 165 6 165C5.44772 165 5 164.552 5 164C5 163.448 5.44772 163 6 163C6.55228 163 7 163.448 7 164Z" fill="white"/>
<path d="M7 156C7 156.552 6.55228 157 6 157C5.44772 157 5 156.552 5 156C5 155.448 5.44772 155 6 155C6.55228 155 7 155.448 7 156Z" fill="white"/>
<path d="M7 148C7 148.552 6.55228 149 6 149C5.44772 149 5 148.552 5 148C5 147.448 5.44772 147 6 147C6.55228 147 7 147.448 7 148Z" fill="white"/>
<path d="M7 140C7 140.552 6.55228 141 6 141C5.44772 141 5 140.552 5 140C5 139.448 5.44772 139 6 139C6.55228 139 7 139.448 7 140Z" fill="white"/>
<path d="M7 132C7 132.552 6.55228 133 6 133C5.44772 133 5 132.552 5 132C5 131.448 5.44772 131 6 131C6.55228 131 7 131.448 7 132Z" fill="white"/>
<path d="M7 124C7 124.552 6.55228 125 6 125C5.44772 125 5 124.552 5 124C5 123.448 5.44772 123 6 123C6.55228 123 7 123.448 7 124Z" fill="white"/>
<path d="M7 116C7 116.552 6.55228 117 6 117C5.44772 117 5 116.552 5 116C5 115.448 5.44772 115 6 115C6.55228 115 7 115.448 7 116Z" fill="white"/>
<path d="M7 108C7 108.552 6.55228 109 6 109C5.44772 109 5 108.552 5 108C5 107.448 5.44772 107 6 107C6.55228 107 7 107.448 7 108Z" fill="white"/>
<path d="M15 180C15 180.552 14.5523 181 14 181C13.4477 181 13 180.552 13 180C13 179.448 13.4477 179 14 179C14.5523 179 15 179.448 15 180Z" fill="white"/>
<path d="M15 172C15 172.552 14.5523 173 14 173C13.4477 173 13 172.552 13 172C13 171.448 13.4477 171 14 171C14.5523 171 15 171.448 15 172Z" fill="white"/>
<path d="M15 164C15 164.552 14.5523 165 14 165C13.4477 165 13 164.552 13 164C13 163.448 13.4477 163 14 163C14.5523 163 15 163.448 15 164Z" fill="white"/>
<path d="M15 156C15 156.552 14.5523 157 14 157C13.4477 157 13 156.552 13 156C13 155.448 13.4477 155 14 155C14.5523 155 15 155.448 15 156Z" fill="white"/>
<path d="M15 148C15 148.552 14.5523 149 14 149C13.4477 149 13 148.552 13 148C13 147.448 13.4477 147 14 147C14.5523 147 15 147.448 15 148Z" fill="white"/>
<path d="M15 140C15 140.552 14.5523 141 14 141C13.4477 141 13 140.552 13 140C13 139.448 13.4477 139 14 139C14.5523 139 15 139.448 15 140Z" fill="white"/>
<path d="M15 132C15 132.552 14.5523 133 14 133C13.4477 133 13 132.552 13 132C13 131.448 13.4477 131 14 131C14.5523 131 15 131.448 15 132Z" fill="white"/>
<path d="M15 124C15 124.552 14.5523 125 14 125C13.4477 125 13 124.552 13 124C13 123.448 13.4477 123 14 123C14.5523 123 15 123.448 15 124Z" fill="white"/>
<path d="M15 116C15 116.552 14.5523 117 14 117C13.4477 117 13 116.552 13 116C13 115.448 13.4477 115 14 115C14.5523 115 15 115.448 15 116Z" fill="white"/>
<path d="M15 108C15 108.552 14.5523 109 14 109C13.4477 109 13 108.552 13 108C13 107.448 13.4477 107 14 107C14.5523 107 15 107.448 15 108Z" fill="white"/>
<path d="M-9 180C-9 180.552 -9.44772 181 -10 181C-10.5523 181 -11 180.552 -11 180C-11 179.448 -10.5523 179 -10 179C-9.44772 179 -9 179.448 -9 180Z" fill="white"/>
<path d="M-9 172C-9 172.552 -9.44772 173 -10 173C-10.5523 173 -11 172.552 -11 172C-11 171.448 -10.5523 171 -10 171C-9.44772 171 -9 171.448 -9 172Z" fill="white"/>
<path d="M-9 164C-9 164.552 -9.44772 165 -10 165C-10.5523 165 -11 164.552 -11 164C-11 163.448 -10.5523 163 -10 163C-9.44772 163 -9 163.448 -9 164Z" fill="white"/>
<path d="M-9 156C-9 156.552 -9.44772 157 -10 157C-10.5523 157 -11 156.552 -11 156C-11 155.448 -10.5523 155 -10 155C-9.44772 155 -9 155.448 -9 156Z" fill="white"/>
<path d="M-9 148C-9 148.552 -9.44772 149 -10 149C-10.5523 149 -11 148.552 -11 148C-11 147.448 -10.5523 147 -10 147C-9.44772 147 -9 147.448 -9 148Z" fill="white"/>
<path d="M-9 140C-9 140.552 -9.44772 141 -10 141C-10.5523 141 -11 140.552 -11 140C-11 139.448 -10.5523 139 -10 139C-9.44772 139 -9 139.448 -9 140Z" fill="white"/>
<path d="M-9 132C-9 132.552 -9.44772 133 -10 133C-10.5523 133 -11 132.552 -11 132C-11 131.448 -10.5523 131 -10 131C-9.44772 131 -9 131.448 -9 132Z" fill="white"/>
<path d="M-9 124C-9 124.552 -9.44772 125 -10 125C-10.5523 125 -11 124.552 -11 124C-11 123.448 -10.5523 123 -10 123C-9.44772 123 -9 123.448 -9 124Z" fill="white"/>
<path d="M-9 116C-9 116.552 -9.44772 117 -10 117C-10.5523 117 -11 116.552 -11 116C-11 115.448 -10.5523 115 -10 115C-9.44772 115 -9 115.448 -9 116Z" fill="white"/>
<path d="M-9 108C-9 108.552 -9.44772 109 -10 109C-10.5523 109 -11 108.552 -11 108C-11 107.448 -10.5523 107 -10 107C-9.44772 107 -9 107.448 -9 108Z" fill="white"/>
<path d="M-1 180C-1 180.552 -1.44771 181 -2 181C-2.55229 181 -3 180.552 -3 180C-3 179.448 -2.55229 179 -2 179C-1.44771 179 -1 179.448 -1 180Z" fill="white"/>
<path d="M-1 172C-1 172.552 -1.44771 173 -2 173C-2.55229 173 -3 172.552 -3 172C-3 171.448 -2.55229 171 -2 171C-1.44771 171 -1 171.448 -1 172Z" fill="white"/>
<path d="M-1 164C-1 164.552 -1.44771 165 -2 165C-2.55229 165 -3 164.552 -3 164C-3 163.448 -2.55229 163 -2 163C-1.44771 163 -1 163.448 -1 164Z" fill="white"/>
<path d="M-1 156C-1 156.552 -1.44771 157 -2 157C-2.55229 157 -3 156.552 -3 156C-3 155.448 -2.55229 155 -2 155C-1.44771 155 -1 155.448 -1 156Z" fill="white"/>
<path d="M-1 148C-1 148.552 -1.44771 149 -2 149C-2.55229 149 -3 148.552 -3 148C-3 147.448 -2.55229 147 -2 147C-1.44771 147 -1 147.448 -1 148Z" fill="white"/>
<path d="M-1 140C-1 140.552 -1.44771 141 -2 141C-2.55229 141 -3 140.552 -3 140C-3 139.448 -2.55229 139 -2 139C-1.44771 139 -1 139.448 -1 140Z" fill="white"/>
<path d="M-1 132C-1 132.552 -1.44771 133 -2 133C-2.55229 133 -3 132.552 -3 132C-3 131.448 -2.55229 131 -2 131C-1.44771 131 -1 131.448 -1 132Z" fill="white"/>
<path d="M-1 124C-1 124.552 -1.44771 125 -2 125C-2.55229 125 -3 124.552 -3 124C-3 123.448 -2.55229 123 -2 123C-1.44771 123 -1 123.448 -1 124Z" fill="white"/>
<path d="M-1 116C-1 116.552 -1.44771 117 -2 117C-2.55229 117 -3 116.552 -3 116C-3 115.448 -2.55229 115 -2 115C-1.44771 115 -1 115.448 -1 116Z" fill="white"/>
<path d="M-1 108C-1 108.552 -1.44771 109 -2 109C-2.55229 109 -3 108.552 -3 108C-3 107.448 -2.55229 107 -2 107C-1.44771 107 -1 107.448 -1 108Z" fill="white"/>
</g>
</g>
</svg>
