<svg width="30" height="34" viewBox="0 0 30 34" fill="none" xmlns="http://www.w3.org/2000/svg">
<path d="M0.405405 30.9231C0.181507 30.9231 1.25212e-07 30.7509 1.34497e-07 30.5385C1.43782e-07 30.326 0.181507 30.1538 0.405405 30.1538C0.629305 30.1538 0.81081 30.326 0.81081 30.5385C0.81081 30.7509 0.629305 30.9231 0.405405 30.9231Z" fill="white"/>
<path d="M3.64865 30.9231C3.42475 30.9231 3.24324 30.7509 3.24324 30.5385C3.24324 30.326 3.42475 30.1538 3.64865 30.1538C3.87255 30.1538 4.05405 30.326 4.05405 30.5385C4.05405 30.7509 3.87255 30.9231 3.64865 30.9231Z" fill="white"/>
<path d="M6.89189 30.9231C6.66799 30.9231 6.48649 30.7509 6.48649 30.5385C6.48649 30.326 6.66799 30.1538 6.89189 30.1538C7.11579 30.1538 7.2973 30.326 7.2973 30.5385C7.2973 30.7509 7.11579 30.9231 6.89189 30.9231Z" fill="white"/>
<path d="M10.1351 30.9231C9.91124 30.9231 9.72973 30.7509 9.72973 30.5385C9.72973 30.326 9.91124 30.1538 10.1351 30.1538C10.359 30.1538 10.5405 30.326 10.5405 30.5385C10.5405 30.7509 10.359 30.9231 10.1351 30.9231Z" fill="white"/>
<path d="M13.3784 30.9231C13.1545 30.9231 12.973 30.7509 12.973 30.5385C12.973 30.326 13.1545 30.1538 13.3784 30.1538C13.6023 30.1538 13.7838 30.326 13.7838 30.5385C13.7838 30.7509 13.6023 30.9231 13.3784 30.9231Z" fill="white"/>
<path d="M16.6216 30.9231C16.3977 30.9231 16.2162 30.7509 16.2162 30.5385C16.2162 30.326 16.3977 30.1538 16.6216 30.1538C16.8455 30.1538 17.027 30.326 17.027 30.5385C17.027 30.7509 16.8455 30.9231 16.6216 30.9231Z" fill="white"/>
<path d="M19.8649 30.9231C19.641 30.9231 19.4595 30.7509 19.4595 30.5385C19.4595 30.326 19.641 30.1538 19.8649 30.1538C20.0888 30.1538 20.2703 30.326 20.2703 30.5385C20.2703 30.7509 20.0888 30.9231 19.8649 30.9231Z" fill="white"/>
<path d="M23.1081 30.9231C22.8842 30.9231 22.7027 30.7509 22.7027 30.5385C22.7027 30.326 22.8842 30.1538 23.1081 30.1538C23.332 30.1538 23.5135 30.326 23.5135 30.5385C23.5135 30.7509 23.332 30.9231 23.1081 30.9231Z" fill="white"/>
<path d="M26.3514 30.9231C26.1275 30.9231 25.9459 30.7509 25.9459 30.5385C25.9459 30.326 26.1275 30.1538 26.3514 30.1538C26.5753 30.1538 26.7568 30.326 26.7568 30.5385C26.7568 30.7509 26.5753 30.9231 26.3514 30.9231Z" fill="white"/>
<path d="M29.5946 30.9231C29.3707 30.9231 29.1892 30.7509 29.1892 30.5385C29.1892 30.326 29.3707 30.1538 29.5946 30.1538C29.8185 30.1538 30 30.326 30 30.5385C30 30.7509 29.8185 30.9231 29.5946 30.9231Z" fill="white"/>
<path d="M0.405405 34C0.181507 34 -9.28503e-09 33.8278 0 33.6154C9.28507e-09 33.403 0.181507 33.2308 0.405405 33.2308C0.629305 33.2308 0.81081 33.403 0.81081 33.6154C0.81081 33.8278 0.629305 34 0.405405 34Z" fill="white"/>
<path d="M3.64865 34C3.42475 34 3.24324 33.8278 3.24324 33.6154C3.24324 33.403 3.42475 33.2308 3.64865 33.2308C3.87255 33.2308 4.05405 33.403 4.05405 33.6154C4.05405 33.8278 3.87255 34 3.64865 34Z" fill="white"/>
<path d="M6.89189 34C6.66799 34 6.48649 33.8278 6.48649 33.6154C6.48649 33.403 6.66799 33.2308 6.89189 33.2308C7.11579 33.2308 7.2973 33.403 7.2973 33.6154C7.2973 33.8278 7.11579 34 6.89189 34Z" fill="white"/>
<path d="M10.1351 34C9.91124 34 9.72973 33.8278 9.72973 33.6154C9.72973 33.403 9.91124 33.2308 10.1351 33.2308C10.359 33.2308 10.5405 33.403 10.5405 33.6154C10.5405 33.8278 10.359 34 10.1351 34Z" fill="white"/>
<path d="M13.3784 34C13.1545 34 12.973 33.8278 12.973 33.6154C12.973 33.403 13.1545 33.2308 13.3784 33.2308C13.6023 33.2308 13.7838 33.403 13.7838 33.6154C13.7838 33.8278 13.6023 34 13.3784 34Z" fill="white"/>
<path d="M16.6216 34C16.3977 34 16.2162 33.8278 16.2162 33.6154C16.2162 33.403 16.3977 33.2308 16.6216 33.2308C16.8455 33.2308 17.027 33.403 17.027 33.6154C17.027 33.8278 16.8455 34 16.6216 34Z" fill="white"/>
<path d="M19.8649 34C19.641 34 19.4595 33.8278 19.4595 33.6154C19.4595 33.403 19.641 33.2308 19.8649 33.2308C20.0888 33.2308 20.2703 33.403 20.2703 33.6154C20.2703 33.8278 20.0888 34 19.8649 34Z" fill="white"/>
<path d="M23.1081 34C22.8842 34 22.7027 33.8278 22.7027 33.6154C22.7027 33.403 22.8842 33.2308 23.1081 33.2308C23.332 33.2308 23.5135 33.403 23.5135 33.6154C23.5135 33.8278 23.332 34 23.1081 34Z" fill="white"/>
<path d="M26.3514 34C26.1275 34 25.9459 33.8278 25.9459 33.6154C25.9459 33.403 26.1275 33.2308 26.3514 33.2308C26.5753 33.2308 26.7568 33.403 26.7568 33.6154C26.7568 33.8278 26.5753 34 26.3514 34Z" fill="white"/>
<path d="M29.5946 34C29.3707 34 29.1892 33.8278 29.1892 33.6154C29.1892 33.403 29.3707 33.2308 29.5946 33.2308C29.8185 33.2308 30 33.403 30 33.6154C30 33.8278 29.8185 34 29.5946 34Z" fill="white"/>
<path d="M0.405405 24.7692C0.181507 24.7692 3.94205e-07 24.597 4.0349e-07 24.3846C4.12775e-07 24.1722 0.181508 24 0.405405 24C0.629305 24 0.810811 24.1722 0.810811 24.3846C0.810811 24.597 0.629305 24.7692 0.405405 24.7692Z" fill="white"/>
<path d="M3.64865 24.7692C3.42475 24.7692 3.24324 24.597 3.24324 24.3846C3.24324 24.1722 3.42475 24 3.64865 24C3.87255 24 4.05405 24.1722 4.05405 24.3846C4.05405 24.597 3.87255 24.7692 3.64865 24.7692Z" fill="white"/>
<path d="M6.89189 24.7692C6.66799 24.7692 6.48649 24.597 6.48649 24.3846C6.48649 24.1722 6.66799 24 6.89189 24C7.11579 24 7.2973 24.1722 7.2973 24.3846C7.2973 24.597 7.11579 24.7692 6.89189 24.7692Z" fill="white"/>
<path d="M10.1351 24.7692C9.91124 24.7692 9.72973 24.597 9.72973 24.3846C9.72973 24.1722 9.91124 24 10.1351 24C10.359 24 10.5405 24.1722 10.5405 24.3846C10.5405 24.597 10.359 24.7692 10.1351 24.7692Z" fill="white"/>
<path d="M13.3784 24.7692C13.1545 24.7692 12.973 24.597 12.973 24.3846C12.973 24.1722 13.1545 24 13.3784 24C13.6023 24 13.7838 24.1722 13.7838 24.3846C13.7838 24.597 13.6023 24.7692 13.3784 24.7692Z" fill="white"/>
<path d="M16.6216 24.7692C16.3977 24.7692 16.2162 24.597 16.2162 24.3846C16.2162 24.1722 16.3977 24 16.6216 24C16.8455 24 17.027 24.1722 17.027 24.3846C17.027 24.597 16.8455 24.7692 16.6216 24.7692Z" fill="white"/>
<path d="M19.8649 24.7692C19.641 24.7692 19.4595 24.597 19.4595 24.3846C19.4595 24.1722 19.641 24 19.8649 24C20.0888 24 20.2703 24.1722 20.2703 24.3846C20.2703 24.597 20.0888 24.7692 19.8649 24.7692Z" fill="white"/>
<path d="M23.1081 24.7692C22.8842 24.7692 22.7027 24.597 22.7027 24.3846C22.7027 24.1722 22.8842 24 23.1081 24C23.332 24 23.5135 24.1722 23.5135 24.3846C23.5135 24.597 23.332 24.7692 23.1081 24.7692Z" fill="white"/>
<path d="M26.3514 24.7692C26.1275 24.7692 25.9459 24.597 25.9459 24.3846C25.9459 24.1722 26.1275 24 26.3514 24C26.5753 24 26.7568 24.1722 26.7568 24.3846C26.7568 24.597 26.5753 24.7692 26.3514 24.7692Z" fill="white"/>
<path d="M29.5946 24.7692C29.3707 24.7692 29.1892 24.597 29.1892 24.3846C29.1892 24.1722 29.3707 24 29.5946 24C29.8185 24 30 24.1722 30 24.3846C30 24.597 29.8185 24.7692 29.5946 24.7692Z" fill="white"/>
<path d="M0.405405 27.8462C0.181507 27.8462 2.59708e-07 27.674 2.68993e-07 27.4615C2.78278e-07 27.2491 0.181507 27.0769 0.405405 27.0769C0.629305 27.0769 0.81081 27.2491 0.81081 27.4615C0.81081 27.674 0.629305 27.8462 0.405405 27.8462Z" fill="white"/>
<path d="M3.64865 27.8462C3.42475 27.8462 3.24324 27.674 3.24324 27.4615C3.24324 27.2491 3.42475 27.0769 3.64865 27.0769C3.87255 27.0769 4.05405 27.2491 4.05405 27.4615C4.05405 27.674 3.87255 27.8462 3.64865 27.8462Z" fill="white"/>
<path d="M6.89189 27.8462C6.66799 27.8462 6.48649 27.674 6.48649 27.4615C6.48649 27.2491 6.66799 27.0769 6.89189 27.0769C7.11579 27.0769 7.2973 27.2491 7.2973 27.4615C7.2973 27.674 7.11579 27.8462 6.89189 27.8462Z" fill="white"/>
<path d="M10.1351 27.8462C9.91124 27.8462 9.72973 27.674 9.72973 27.4615C9.72973 27.2491 9.91124 27.0769 10.1351 27.0769C10.359 27.0769 10.5405 27.2491 10.5405 27.4615C10.5405 27.674 10.359 27.8462 10.1351 27.8462Z" fill="white"/>
<path d="M13.3784 27.8462C13.1545 27.8462 12.973 27.674 12.973 27.4615C12.973 27.2491 13.1545 27.0769 13.3784 27.0769C13.6023 27.0769 13.7838 27.2491 13.7838 27.4615C13.7838 27.674 13.6023 27.8462 13.3784 27.8462Z" fill="white"/>
<path d="M16.6216 27.8462C16.3977 27.8462 16.2162 27.674 16.2162 27.4615C16.2162 27.2491 16.3977 27.0769 16.6216 27.0769C16.8455 27.0769 17.027 27.2491 17.027 27.4615C17.027 27.674 16.8455 27.8462 16.6216 27.8462Z" fill="white"/>
<path d="M19.8649 27.8462C19.641 27.8462 19.4595 27.674 19.4595 27.4615C19.4595 27.2491 19.641 27.0769 19.8649 27.0769C20.0888 27.0769 20.2703 27.2491 20.2703 27.4615C20.2703 27.674 20.0888 27.8462 19.8649 27.8462Z" fill="white"/>
<path d="M23.1081 27.8462C22.8842 27.8462 22.7027 27.674 22.7027 27.4615C22.7027 27.2491 22.8842 27.0769 23.1081 27.0769C23.332 27.0769 23.5135 27.2491 23.5135 27.4615C23.5135 27.674 23.332 27.8462 23.1081 27.8462Z" fill="white"/>
<path d="M26.3514 27.8462C26.1275 27.8462 25.9459 27.674 25.9459 27.4615C25.9459 27.2491 26.1275 27.0769 26.3514 27.0769C26.5753 27.0769 26.7568 27.2491 26.7568 27.4615C26.7568 27.674 26.5753 27.8462 26.3514 27.8462Z" fill="white"/>
<path d="M29.5946 27.8462C29.3707 27.8462 29.1892 27.674 29.1892 27.4615C29.1892 27.2491 29.3707 27.0769 29.5946 27.0769C29.8185 27.0769 30 27.2491 30 27.4615C30 27.674 29.8185 27.8462 29.5946 27.8462Z" fill="white"/>
<path d="M0.405405 18.9231C0.181507 18.9231 1.25212e-07 18.7509 1.34497e-07 18.5385C1.43782e-07 18.326 0.181507 18.1538 0.405405 18.1538C0.629305 18.1538 0.81081 18.326 0.81081 18.5385C0.81081 18.7509 0.629305 18.9231 0.405405 18.9231Z" fill="white"/>
<path d="M3.64865 18.9231C3.42475 18.9231 3.24324 18.7509 3.24324 18.5385C3.24324 18.326 3.42475 18.1538 3.64865 18.1538C3.87255 18.1538 4.05405 18.326 4.05405 18.5385C4.05405 18.7509 3.87255 18.9231 3.64865 18.9231Z" fill="white"/>
<path d="M6.89189 18.9231C6.66799 18.9231 6.48649 18.7509 6.48649 18.5385C6.48649 18.326 6.66799 18.1538 6.89189 18.1538C7.11579 18.1538 7.2973 18.326 7.2973 18.5385C7.2973 18.7509 7.11579 18.9231 6.89189 18.9231Z" fill="white"/>
<path d="M10.1351 18.9231C9.91124 18.9231 9.72973 18.7509 9.72973 18.5385C9.72973 18.326 9.91124 18.1538 10.1351 18.1538C10.359 18.1538 10.5405 18.326 10.5405 18.5385C10.5405 18.7509 10.359 18.9231 10.1351 18.9231Z" fill="white"/>
<path d="M13.3784 18.9231C13.1545 18.9231 12.973 18.7509 12.973 18.5385C12.973 18.326 13.1545 18.1538 13.3784 18.1538C13.6023 18.1538 13.7838 18.326 13.7838 18.5385C13.7838 18.7509 13.6023 18.9231 13.3784 18.9231Z" fill="white"/>
<path d="M16.6216 18.9231C16.3977 18.9231 16.2162 18.7509 16.2162 18.5385C16.2162 18.326 16.3977 18.1538 16.6216 18.1538C16.8455 18.1538 17.027 18.326 17.027 18.5385C17.027 18.7509 16.8455 18.9231 16.6216 18.9231Z" fill="white"/>
<path d="M19.8649 18.9231C19.641 18.9231 19.4595 18.7509 19.4595 18.5385C19.4595 18.326 19.641 18.1538 19.8649 18.1538C20.0888 18.1538 20.2703 18.326 20.2703 18.5385C20.2703 18.7509 20.0888 18.9231 19.8649 18.9231Z" fill="white"/>
<path d="M23.1081 18.9231C22.8842 18.9231 22.7027 18.7509 22.7027 18.5385C22.7027 18.326 22.8842 18.1538 23.1081 18.1538C23.332 18.1538 23.5135 18.326 23.5135 18.5385C23.5135 18.7509 23.332 18.9231 23.1081 18.9231Z" fill="white"/>
<path d="M26.3514 18.9231C26.1275 18.9231 25.9459 18.7509 25.9459 18.5385C25.9459 18.326 26.1275 18.1538 26.3514 18.1538C26.5753 18.1538 26.7568 18.326 26.7568 18.5385C26.7568 18.7509 26.5753 18.9231 26.3514 18.9231Z" fill="white"/>
<path d="M29.5946 18.9231C29.3707 18.9231 29.1892 18.7509 29.1892 18.5385C29.1892 18.326 29.3707 18.1538 29.5946 18.1538C29.8185 18.1538 30 18.326 30 18.5385C30 18.7509 29.8185 18.9231 29.5946 18.9231Z" fill="white"/>
<path d="M0.405405 22C0.181507 22 -9.28503e-09 21.8278 0 21.6154C9.28507e-09 21.403 0.181507 21.2308 0.405405 21.2308C0.629305 21.2308 0.81081 21.403 0.81081 21.6154C0.81081 21.8278 0.629305 22 0.405405 22Z" fill="white"/>
<path d="M3.64865 22C3.42475 22 3.24324 21.8278 3.24324 21.6154C3.24324 21.403 3.42475 21.2308 3.64865 21.2308C3.87255 21.2308 4.05405 21.403 4.05405 21.6154C4.05405 21.8278 3.87255 22 3.64865 22Z" fill="white"/>
<path d="M6.89189 22C6.66799 22 6.48649 21.8278 6.48649 21.6154C6.48649 21.403 6.66799 21.2308 6.89189 21.2308C7.11579 21.2308 7.2973 21.403 7.2973 21.6154C7.2973 21.8278 7.11579 22 6.89189 22Z" fill="white"/>
<path d="M10.1351 22C9.91124 22 9.72973 21.8278 9.72973 21.6154C9.72973 21.403 9.91124 21.2308 10.1351 21.2308C10.359 21.2308 10.5405 21.403 10.5405 21.6154C10.5405 21.8278 10.359 22 10.1351 22Z" fill="white"/>
<path d="M13.3784 22C13.1545 22 12.973 21.8278 12.973 21.6154C12.973 21.403 13.1545 21.2308 13.3784 21.2308C13.6023 21.2308 13.7838 21.403 13.7838 21.6154C13.7838 21.8278 13.6023 22 13.3784 22Z" fill="white"/>
<path d="M16.6216 22C16.3977 22 16.2162 21.8278 16.2162 21.6154C16.2162 21.403 16.3977 21.2308 16.6216 21.2308C16.8455 21.2308 17.027 21.403 17.027 21.6154C17.027 21.8278 16.8455 22 16.6216 22Z" fill="white"/>
<path d="M19.8649 22C19.641 22 19.4595 21.8278 19.4595 21.6154C19.4595 21.403 19.641 21.2308 19.8649 21.2308C20.0888 21.2308 20.2703 21.403 20.2703 21.6154C20.2703 21.8278 20.0888 22 19.8649 22Z" fill="white"/>
<path d="M23.1081 22C22.8842 22 22.7027 21.8278 22.7027 21.6154C22.7027 21.403 22.8842 21.2308 23.1081 21.2308C23.332 21.2308 23.5135 21.403 23.5135 21.6154C23.5135 21.8278 23.332 22 23.1081 22Z" fill="white"/>
<path d="M26.3514 22C26.1275 22 25.9459 21.8278 25.9459 21.6154C25.9459 21.403 26.1275 21.2308 26.3514 21.2308C26.5753 21.2308 26.7568 21.403 26.7568 21.6154C26.7568 21.8278 26.5753 22 26.3514 22Z" fill="white"/>
<path d="M29.5946 22C29.3707 22 29.1892 21.8278 29.1892 21.6154C29.1892 21.403 29.3707 21.2308 29.5946 21.2308C29.8185 21.2308 30 21.403 30 21.6154C30 21.8278 29.8185 22 29.5946 22Z" fill="white"/>
<path d="M0.405405 12.7692C0.181507 12.7692 3.94205e-07 12.597 4.0349e-07 12.3846C4.12775e-07 12.1722 0.181508 12 0.405405 12C0.629305 12 0.810811 12.1722 0.810811 12.3846C0.810811 12.597 0.629305 12.7692 0.405405 12.7692Z" fill="white"/>
<path d="M3.64865 12.7692C3.42475 12.7692 3.24324 12.597 3.24324 12.3846C3.24324 12.1722 3.42475 12 3.64865 12C3.87255 12 4.05405 12.1722 4.05405 12.3846C4.05405 12.597 3.87255 12.7692 3.64865 12.7692Z" fill="white"/>
<path d="M6.89189 12.7692C6.66799 12.7692 6.48649 12.597 6.48649 12.3846C6.48649 12.1722 6.66799 12 6.89189 12C7.11579 12 7.2973 12.1722 7.2973 12.3846C7.2973 12.597 7.11579 12.7692 6.89189 12.7692Z" fill="white"/>
<path d="M10.1351 12.7692C9.91124 12.7692 9.72973 12.597 9.72973 12.3846C9.72973 12.1722 9.91124 12 10.1351 12C10.359 12 10.5405 12.1722 10.5405 12.3846C10.5405 12.597 10.359 12.7692 10.1351 12.7692Z" fill="white"/>
<path d="M13.3784 12.7692C13.1545 12.7692 12.973 12.597 12.973 12.3846C12.973 12.1722 13.1545 12 13.3784 12C13.6023 12 13.7838 12.1722 13.7838 12.3846C13.7838 12.597 13.6023 12.7692 13.3784 12.7692Z" fill="white"/>
<path d="M16.6216 12.7692C16.3977 12.7692 16.2162 12.597 16.2162 12.3846C16.2162 12.1722 16.3977 12 16.6216 12C16.8455 12 17.027 12.1722 17.027 12.3846C17.027 12.597 16.8455 12.7692 16.6216 12.7692Z" fill="white"/>
<path d="M19.8649 12.7692C19.641 12.7692 19.4595 12.597 19.4595 12.3846C19.4595 12.1722 19.641 12 19.8649 12C20.0888 12 20.2703 12.1722 20.2703 12.3846C20.2703 12.597 20.0888 12.7692 19.8649 12.7692Z" fill="white"/>
<path d="M23.1081 12.7692C22.8842 12.7692 22.7027 12.597 22.7027 12.3846C22.7027 12.1722 22.8842 12 23.1081 12C23.332 12 23.5135 12.1722 23.5135 12.3846C23.5135 12.597 23.332 12.7692 23.1081 12.7692Z" fill="white"/>
<path d="M26.3514 12.7692C26.1275 12.7692 25.9459 12.597 25.9459 12.3846C25.9459 12.1722 26.1275 12 26.3514 12C26.5753 12 26.7568 12.1722 26.7568 12.3846C26.7568 12.597 26.5753 12.7692 26.3514 12.7692Z" fill="white"/>
<path d="M29.5946 12.7692C29.3707 12.7692 29.1892 12.597 29.1892 12.3846C29.1892 12.1722 29.3707 12 29.5946 12C29.8185 12 30 12.1722 30 12.3846C30 12.597 29.8185 12.7692 29.5946 12.7692Z" fill="white"/>
<path d="M0.405405 15.8462C0.181507 15.8462 2.59708e-07 15.674 2.68993e-07 15.4615C2.78278e-07 15.2491 0.181507 15.0769 0.405405 15.0769C0.629305 15.0769 0.81081 15.2491 0.81081 15.4615C0.81081 15.674 0.629305 15.8462 0.405405 15.8462Z" fill="white"/>
<path d="M3.64865 15.8462C3.42475 15.8462 3.24324 15.674 3.24324 15.4615C3.24324 15.2491 3.42475 15.0769 3.64865 15.0769C3.87255 15.0769 4.05405 15.2491 4.05405 15.4615C4.05405 15.674 3.87255 15.8462 3.64865 15.8462Z" fill="white"/>
<path d="M6.89189 15.8462C6.66799 15.8462 6.48649 15.674 6.48649 15.4615C6.48649 15.2491 6.66799 15.0769 6.89189 15.0769C7.11579 15.0769 7.2973 15.2491 7.2973 15.4615C7.2973 15.674 7.11579 15.8462 6.89189 15.8462Z" fill="white"/>
<path d="M10.1351 15.8462C9.91124 15.8462 9.72973 15.674 9.72973 15.4615C9.72973 15.2491 9.91124 15.0769 10.1351 15.0769C10.359 15.0769 10.5405 15.2491 10.5405 15.4615C10.5405 15.674 10.359 15.8462 10.1351 15.8462Z" fill="white"/>
<path d="M13.3784 15.8462C13.1545 15.8462 12.973 15.674 12.973 15.4615C12.973 15.2491 13.1545 15.0769 13.3784 15.0769C13.6023 15.0769 13.7838 15.2491 13.7838 15.4615C13.7838 15.674 13.6023 15.8462 13.3784 15.8462Z" fill="white"/>
<path d="M16.6216 15.8462C16.3977 15.8462 16.2162 15.674 16.2162 15.4615C16.2162 15.2491 16.3977 15.0769 16.6216 15.0769C16.8455 15.0769 17.027 15.2491 17.027 15.4615C17.027 15.674 16.8455 15.8462 16.6216 15.8462Z" fill="white"/>
<path d="M19.8649 15.8462C19.641 15.8462 19.4595 15.674 19.4595 15.4615C19.4595 15.2491 19.641 15.0769 19.8649 15.0769C20.0888 15.0769 20.2703 15.2491 20.2703 15.4615C20.2703 15.674 20.0888 15.8462 19.8649 15.8462Z" fill="white"/>
<path d="M23.1081 15.8462C22.8842 15.8462 22.7027 15.674 22.7027 15.4615C22.7027 15.2491 22.8842 15.0769 23.1081 15.0769C23.332 15.0769 23.5135 15.2491 23.5135 15.4615C23.5135 15.674 23.332 15.8462 23.1081 15.8462Z" fill="white"/>
<path d="M26.3514 15.8462C26.1275 15.8462 25.9459 15.674 25.9459 15.4615C25.9459 15.2491 26.1275 15.0769 26.3514 15.0769C26.5753 15.0769 26.7568 15.2491 26.7568 15.4615C26.7568 15.674 26.5753 15.8462 26.3514 15.8462Z" fill="white"/>
<path d="M29.5946 15.8462C29.3707 15.8462 29.1892 15.674 29.1892 15.4615C29.1892 15.2491 29.3707 15.0769 29.5946 15.0769C29.8185 15.0769 30 15.2491 30 15.4615C30 15.674 29.8185 15.8462 29.5946 15.8462Z" fill="white"/>
<path d="M0.405405 6.92308C0.181507 6.92308 1.25212e-07 6.75088 1.34497e-07 6.53846C1.43782e-07 6.32604 0.181507 6.15385 0.405405 6.15385C0.629305 6.15385 0.81081 6.32604 0.81081 6.53846C0.81081 6.75088 0.629305 6.92308 0.405405 6.92308Z" fill="white"/>
<path d="M3.64865 6.92308C3.42475 6.92308 3.24324 6.75088 3.24324 6.53846C3.24324 6.32604 3.42475 6.15385 3.64865 6.15385C3.87255 6.15385 4.05405 6.32604 4.05405 6.53846C4.05405 6.75088 3.87255 6.92308 3.64865 6.92308Z" fill="white"/>
<path d="M6.89189 6.92308C6.66799 6.92308 6.48649 6.75088 6.48649 6.53846C6.48649 6.32605 6.66799 6.15385 6.89189 6.15385C7.11579 6.15385 7.2973 6.32605 7.2973 6.53846C7.2973 6.75088 7.11579 6.92308 6.89189 6.92308Z" fill="white"/>
<path d="M10.1351 6.92308C9.91124 6.92308 9.72973 6.75088 9.72973 6.53846C9.72973 6.32605 9.91124 6.15385 10.1351 6.15385C10.359 6.15385 10.5405 6.32605 10.5405 6.53846C10.5405 6.75088 10.359 6.92308 10.1351 6.92308Z" fill="white"/>
<path d="M13.3784 6.92308C13.1545 6.92308 12.973 6.75088 12.973 6.53846C12.973 6.32605 13.1545 6.15385 13.3784 6.15385C13.6023 6.15385 13.7838 6.32605 13.7838 6.53846C13.7838 6.75088 13.6023 6.92308 13.3784 6.92308Z" fill="white"/>
<path d="M16.6216 6.92308C16.3977 6.92308 16.2162 6.75088 16.2162 6.53846C16.2162 6.32605 16.3977 6.15385 16.6216 6.15385C16.8455 6.15385 17.027 6.32605 17.027 6.53846C17.027 6.75088 16.8455 6.92308 16.6216 6.92308Z" fill="white"/>
<path d="M19.8649 6.92308C19.641 6.92308 19.4595 6.75088 19.4595 6.53846C19.4595 6.32605 19.641 6.15385 19.8649 6.15385C20.0888 6.15385 20.2703 6.32605 20.2703 6.53846C20.2703 6.75088 20.0888 6.92308 19.8649 6.92308Z" fill="white"/>
<path d="M23.1081 6.92308C22.8842 6.92308 22.7027 6.75088 22.7027 6.53846C22.7027 6.32605 22.8842 6.15385 23.1081 6.15385C23.332 6.15385 23.5135 6.32605 23.5135 6.53846C23.5135 6.75088 23.332 6.92308 23.1081 6.92308Z" fill="white"/>
<path d="M26.3514 6.92308C26.1275 6.92308 25.9459 6.75088 25.9459 6.53846C25.9459 6.32605 26.1275 6.15385 26.3514 6.15385C26.5753 6.15385 26.7568 6.32605 26.7568 6.53846C26.7568 6.75088 26.5753 6.92308 26.3514 6.92308Z" fill="white"/>
<path d="M29.5946 6.92308C29.3707 6.92308 29.1892 6.75088 29.1892 6.53846C29.1892 6.32605 29.3707 6.15385 29.5946 6.15385C29.8185 6.15385 30 6.32605 30 6.53846C30 6.75088 29.8185 6.92308 29.5946 6.92308Z" fill="white"/>
<path d="M0.405405 10C0.181507 10 -9.28503e-09 9.8278 0 9.61539C9.28507e-09 9.40297 0.181507 9.23077 0.405405 9.23077C0.629305 9.23077 0.81081 9.40297 0.81081 9.61539C0.81081 9.8278 0.629305 10 0.405405 10Z" fill="white"/>
<path d="M3.64865 10C3.42475 10 3.24324 9.8278 3.24324 9.61539C3.24324 9.40297 3.42475 9.23077 3.64865 9.23077C3.87255 9.23077 4.05405 9.40297 4.05405 9.61539C4.05405 9.8278 3.87255 10 3.64865 10Z" fill="white"/>
<path d="M6.89189 10C6.66799 10 6.48649 9.8278 6.48649 9.61539C6.48649 9.40297 6.66799 9.23077 6.89189 9.23077C7.11579 9.23077 7.2973 9.40297 7.2973 9.61539C7.2973 9.8278 7.11579 10 6.89189 10Z" fill="white"/>
<path d="M10.1351 10C9.91124 10 9.72973 9.8278 9.72973 9.61539C9.72973 9.40297 9.91124 9.23077 10.1351 9.23077C10.359 9.23077 10.5405 9.40297 10.5405 9.61539C10.5405 9.8278 10.359 10 10.1351 10Z" fill="white"/>
<path d="M13.3784 10C13.1545 10 12.973 9.8278 12.973 9.61539C12.973 9.40297 13.1545 9.23077 13.3784 9.23077C13.6023 9.23077 13.7838 9.40297 13.7838 9.61539C13.7838 9.8278 13.6023 10 13.3784 10Z" fill="white"/>
<path d="M16.6216 10C16.3977 10 16.2162 9.8278 16.2162 9.61539C16.2162 9.40297 16.3977 9.23077 16.6216 9.23077C16.8455 9.23077 17.027 9.40297 17.027 9.61539C17.027 9.8278 16.8455 10 16.6216 10Z" fill="white"/>
<path d="M19.8649 10C19.641 10 19.4595 9.8278 19.4595 9.61539C19.4595 9.40297 19.641 9.23077 19.8649 9.23077C20.0888 9.23077 20.2703 9.40297 20.2703 9.61539C20.2703 9.8278 20.0888 10 19.8649 10Z" fill="white"/>
<path d="M23.1081 10C22.8842 10 22.7027 9.8278 22.7027 9.61539C22.7027 9.40297 22.8842 9.23077 23.1081 9.23077C23.332 9.23077 23.5135 9.40297 23.5135 9.61539C23.5135 9.8278 23.332 10 23.1081 10Z" fill="white"/>
<path d="M26.3514 10C26.1275 10 25.9459 9.8278 25.9459 9.61539C25.9459 9.40297 26.1275 9.23077 26.3514 9.23077C26.5753 9.23077 26.7568 9.40297 26.7568 9.61539C26.7568 9.8278 26.5753 10 26.3514 10Z" fill="white"/>
<path d="M29.5946 10C29.3707 10 29.1892 9.8278 29.1892 9.61539C29.1892 9.40297 29.3707 9.23077 29.5946 9.23077C29.8185 9.23077 30 9.40297 30 9.61539C30 9.8278 29.8185 10 29.5946 10Z" fill="white"/>
<path d="M0.405405 0.769231C0.181507 0.769231 3.94205e-07 0.597033 4.0349e-07 0.384615C4.12775e-07 0.172198 0.181508 -9.78689e-09 0.405405 0C0.629305 9.78697e-09 0.810811 0.172198 0.810811 0.384615C0.810811 0.597033 0.629305 0.769231 0.405405 0.769231Z" fill="white"/>
<path d="M3.64865 0.769231C3.42475 0.769231 3.24324 0.597033 3.24324 0.384616C3.24324 0.172198 3.42475 1.3198e-07 3.64865 1.41767e-07C3.87255 1.51554e-07 4.05405 0.172198 4.05405 0.384616C4.05405 0.597033 3.87255 0.769231 3.64865 0.769231Z" fill="white"/>
<path d="M6.89189 0.769231C6.66799 0.769231 6.48649 0.597033 6.48649 0.384616C6.48649 0.172198 6.66799 2.73746e-07 6.89189 2.83533e-07C7.11579 2.9332e-07 7.2973 0.172198 7.2973 0.384616C7.2973 0.597033 7.11579 0.769231 6.89189 0.769231Z" fill="white"/>
<path d="M10.1351 0.769231C9.91124 0.769231 9.72973 0.597033 9.72973 0.384616C9.72973 0.172199 9.91124 4.15513e-07 10.1351 4.253e-07C10.359 4.35087e-07 10.5405 0.172199 10.5405 0.384616C10.5405 0.597033 10.359 0.769231 10.1351 0.769231Z" fill="white"/>
<path d="M13.3784 0.769231C13.1545 0.769231 12.973 0.597033 12.973 0.384616C12.973 0.172199 13.1545 5.5728e-07 13.3784 5.67067e-07C13.6023 5.76854e-07 13.7838 0.172199 13.7838 0.384616C13.7838 0.597033 13.6023 0.769231 13.3784 0.769231Z" fill="white"/>
<path d="M16.6216 0.769231C16.3977 0.769231 16.2162 0.597033 16.2162 0.384616C16.2162 0.172199 16.3977 6.99047e-07 16.6216 7.08834e-07C16.8455 7.18621e-07 17.027 0.172199 17.027 0.384616C17.027 0.597033 16.8455 0.769231 16.6216 0.769231Z" fill="white"/>
<path d="M19.8649 0.769232C19.641 0.769232 19.4595 0.597033 19.4595 0.384616C19.4595 0.172199 19.641 8.40813e-07 19.8649 8.506e-07C20.0888 8.60387e-07 20.2703 0.172199 20.2703 0.384616C20.2703 0.597034 20.0888 0.769232 19.8649 0.769232Z" fill="white"/>
<path d="M23.1081 0.769232C22.8842 0.769232 22.7027 0.597034 22.7027 0.384616C22.7027 0.172199 22.8842 9.8258e-07 23.1081 9.92367e-07C23.332 1.00215e-06 23.5135 0.172199 23.5135 0.384616C23.5135 0.597034 23.332 0.769232 23.1081 0.769232Z" fill="white"/>
<path d="M26.3514 0.769232C26.1275 0.769232 25.9459 0.597034 25.9459 0.384616C25.9459 0.172199 26.1275 1.12435e-06 26.3514 1.13413e-06C26.5753 1.14392e-06 26.7568 0.172199 26.7568 0.384617C26.7568 0.597034 26.5753 0.769232 26.3514 0.769232Z" fill="white"/>
<path d="M29.5946 0.769232C29.3707 0.769232 29.1892 0.597034 29.1892 0.384617C29.1892 0.172199 29.3707 1.26611e-06 29.5946 1.2759e-06C29.8185 1.28569e-06 30 0.172199 30 0.384617C30 0.597034 29.8185 0.769232 29.5946 0.769232Z" fill="white"/>
<path d="M0.405405 3.84615C0.181507 3.84615 2.59708e-07 3.67396 2.68993e-07 3.46154C2.78278e-07 3.24912 0.181507 3.07692 0.405405 3.07692C0.629305 3.07692 0.81081 3.24912 0.81081 3.46154C0.81081 3.67396 0.629305 3.84615 0.405405 3.84615Z" fill="white"/>
<path d="M3.64865 3.84615C3.42475 3.84615 3.24324 3.67396 3.24324 3.46154C3.24324 3.24912 3.42475 3.07692 3.64865 3.07692C3.87255 3.07692 4.05405 3.24912 4.05405 3.46154C4.05405 3.67396 3.87255 3.84615 3.64865 3.84615Z" fill="white"/>
<path d="M6.89189 3.84615C6.66799 3.84615 6.48649 3.67396 6.48649 3.46154C6.48649 3.24912 6.66799 3.07692 6.89189 3.07692C7.11579 3.07692 7.2973 3.24912 7.2973 3.46154C7.2973 3.67396 7.11579 3.84615 6.89189 3.84615Z" fill="white"/>
<path d="M10.1351 3.84615C9.91124 3.84615 9.72973 3.67396 9.72973 3.46154C9.72973 3.24912 9.91124 3.07692 10.1351 3.07692C10.359 3.07692 10.5405 3.24912 10.5405 3.46154C10.5405 3.67396 10.359 3.84615 10.1351 3.84615Z" fill="white"/>
<path d="M13.3784 3.84615C13.1545 3.84615 12.973 3.67396 12.973 3.46154C12.973 3.24912 13.1545 3.07692 13.3784 3.07692C13.6023 3.07692 13.7838 3.24912 13.7838 3.46154C13.7838 3.67396 13.6023 3.84615 13.3784 3.84615Z" fill="white"/>
<path d="M16.6216 3.84615C16.3977 3.84615 16.2162 3.67396 16.2162 3.46154C16.2162 3.24912 16.3977 3.07692 16.6216 3.07692C16.8455 3.07692 17.027 3.24912 17.027 3.46154C17.027 3.67396 16.8455 3.84615 16.6216 3.84615Z" fill="white"/>
<path d="M19.8649 3.84615C19.641 3.84615 19.4595 3.67396 19.4595 3.46154C19.4595 3.24912 19.641 3.07692 19.8649 3.07692C20.0888 3.07692 20.2703 3.24912 20.2703 3.46154C20.2703 3.67396 20.0888 3.84615 19.8649 3.84615Z" fill="white"/>
<path d="M23.1081 3.84615C22.8842 3.84615 22.7027 3.67396 22.7027 3.46154C22.7027 3.24912 22.8842 3.07692 23.1081 3.07692C23.332 3.07692 23.5135 3.24912 23.5135 3.46154C23.5135 3.67396 23.332 3.84615 23.1081 3.84615Z" fill="white"/>
<path d="M26.3514 3.84616C26.1275 3.84616 25.9459 3.67396 25.9459 3.46154C25.9459 3.24912 26.1275 3.07692 26.3514 3.07692C26.5753 3.07692 26.7568 3.24912 26.7568 3.46154C26.7568 3.67396 26.5753 3.84616 26.3514 3.84616Z" fill="white"/>
<path d="M29.5946 3.84616C29.3707 3.84616 29.1892 3.67396 29.1892 3.46154C29.1892 3.24912 29.3707 3.07692 29.5946 3.07692C29.8185 3.07692 30 3.24912 30 3.46154C30 3.67396 29.8185 3.84616 29.5946 3.84616Z" fill="white"/>
</svg>
